ManufacturingConsent.glyphspackage
{
glyphname = exclam;
layers = (
{
layerId = m001;
shapes = (
{
closed = 1;
nodes = (
(128.936,212,l),
(171.936,766.753,l),
(152.762,766.753,l),
(15,678.109,l),
(15.002,663.729,l),
(44,663.729,o),
(49.321,638.676,o),
(54,600,cs),
(100.936,212,l)
);
},
{
closed = 1;
nodes = (
(198.012,78.998,l),
(106.665,170.346,l),
(16.788,80.468,l),
(108.136,-10.878,l)
);
}
);
width = 213;
}
);
unicode = 33;
}
{
glyphname = numbersign;
layers = (
{
layerId = m001;
shapes = (
{
closed = 1;
nodes = (
(302.243,137,l),
(302.242,676,l),
(195.243,676,l),
(195.243,137,l)
);
},
{
closed = 1;
nodes = (
(615,247,l),
(615,354,l),
(78.242,354,l),
(81.092,247,l)
);
},
{
closed = 1;
nodes = (
(615,457,l),
(615,564,l),
(78.242,564,l),
(81.092,457,l)
);
},
{
closed = 1;
nodes = (
(512.243,137,l),
(512.243,670,l),
(405.242,670,l),
(405.243,137,l)
);
}
);
width = 697;
}
);
unicode = 35;
}
{
glyphname = dollar;
layers = (
{
layerId = m001;
shapes = (
{
closed = 1;
nodes = (
(48.803,-16.099,l),
(45.109,-4.806,o),
(43.105,7.777,o),
(43.105,21.791,cs),
(43.105,121.054,o),
(151.068,216.729,o),
(214.728,273.556,cs),
(447.728,481.556,ls),
(530.158,555.143,o),
(638.007,644.614,o),
(638.404,786.961,cs),
(638.443,800.961,l),
(610.441,801.04,l),
(610.404,787.039,ls),
(610.064,658.664,o),
(505.999,571.104,o),
(429.081,502.44,cs),
(196.081,294.444,ls),
(124.998,230.985,o),
(11,124,o),
(11,18.386,cs),
(11,1.467,o),
(11.172,-12.65,o),
(15.256,-29.872,c)
);
},
{
closed = 1;
nodes = (
(309.999,-55.143,l),
(309.999,805.508,l),
(281.999,805.508,l),
(281.999,-55.143,l)
);
},
{
closed = 1;
nodes = (
(35.747,68,o),
(111,81.083,o),
(167.048,81.083,cs),
(242,81.083,o),
(303.703,42.179,o),
(345.571,-3.833,c),
(619.737,169,l),
(619.737,420,l),
(572.742,458.836,o),
(514.759,490.727,o),
(449.737,509,c),
(355.737,415,l),
(488.737,350,l),
(488.737,120,l),
(469.737,111,l),
(411.551,157.14,o),
(333.917,199.637,o),
(237.656,199.637,cs),
(120.551,199.637,o),
(33.349,124.105,o),
(17.737,22,c),
(45.747,-5,l)
);
},
{
closed = 1;
nodes = (
(389.999,-55.143,l),
(389.999,805.508,l),
(361.999,805.508,l),
(361.999,-55.143,l)
);
},
{
closed = 1;
nodes = (
(312.404,388,l),
(196.404,468,l),
(196.404,640,l),
(215.404,653,l),
(270.032,618.432,o),
(339.023,581.919,o),
(424.067,581.919,cs),
(534,581.919,o),
(628.411,655.658,o),
(628.411,768.668,cs),
(628,801,l),
(610.404,801,l),
(605.409,740.257,o),
(551,700.489,o),
(490.461,700.489,cs),
(432,700.489,o),
(376,751,o),
(325,751,cs),
(282,751,o),
(268.739,746.176,o),
(134,646,cs),
(65.404,595,l),
(65.404,394,l),
(218.404,294,l)
);
}
);
width = 653;
}
);
unicode = 36;
}
{
glyphname = percent;
layers = (
{
layerId = m001;
shapes = (
{
closed = 1;
nodes = (
(332.874,6.18,l),
(725.826,719.82,l),
(658.779,719.82,l),
(262.874,6.18,l)
);
},
{
closed = 1;
nodes = (
(409.918,339.488,o),
(481.288,435.254,o),
(481.288,528.541,cs),
(481.288,658.641,o),
(370.56,720.214,o),
(290.093,720.214,cs),
(163.78,720.214,o),
(99.638,614.905,o),
(99.638,530.148,cs),
(99.638,403.996,o),
(205.518,339.488,o),
(294.008,339.488,cs)
);
},
{
closed = 1;
nodes = (
(207.923,379.05,o),
(214.533,479.205,o),
(214.533,482.988,cs),
(214.533,573.684,ls),
(214.533,583.058,o),
(207.781,687.315,o),
(293.377,687.315,cs),
(377.476,687.315,o),
(372.873,588.667,o),
(372.873,572.189,cs),
(372.873,479.999,ls),
(372.873,391.554,o),
(323.722,379.05,o),
(294.216,379.05,cs)
);
},
{
closed = 1;
nodes = (
(841.255,9.289,o),
(901.288,118.532,o),
(901.288,198.361,cs),
(901.288,328.461,o),
(790.56,390.034,o),
(710.093,390.034,cs),
(583.78,390.034,o),
(519.638,284.725,o),
(519.638,199.968,cs),
(519.638,83.133,o),
(615.575,9.289,o),
(711.235,9.289,cs)
);
},
{
closed = 1;
nodes = (
(629.524,48.871,o),
(634.533,142.768,o),
(634.533,152.809,cs),
(634.533,243.504,ls),
(634.533,325.949,o),
(664.662,357.136,o),
(713.377,357.136,cs),
(803.227,357.136,o),
(792.873,242.087,o),
(792.873,242.01,cs),
(792.873,149.819,ls),
(792.873,72.892,o),
(755.097,48.871,o),
(714.216,48.871,cs)
);
}
);
width = 1005;
}
);
unicode = 37;
}
{
glyphname = ampersand;
layers = (
{
layerId = m001;
shapes = (
{
closed = 1;
nodes = (
(402,-9.378,o),
(536.636,228.737,o),
(609.341,365,c),
(581.418,377.42,l),
(520.694,271.249,o),
(417,94.317,o),
(273.71,94.317,cs),
(195.68,94.317,o),
(129.117,149.22,o),
(129.117,230.571,cs),
(129.117,395,o),
(393.754,510,o),
(393.754,660.622,cs),
(393.754,717.313,o),
(351.916,759.262,o),
(295.779,759.262,cs),
(225,759.262,o),
(79.703,672,o),
(79.703,578.158,cs),
(79.703,540.026,o),
(98.449,516.291,o),
(117.616,492,cs),
(505.85,0,l),
(686,0,l),
(363,386,ls),
(336.423,417.761,o),
(190.95,599,o),
(190.95,644.398,cs),
(190.95,674.7,o),
(214.265,696.134,o),
(244.304,696.134,cs),
(287.072,696.134,o),
(313.037,658.148,o),
(313.037,615.31,cs),
(313.037,458,o),
(6.491,396,o),
(6.491,204.983,cs),
(6.491,96.391,o),
(77,-9.378,o),
(216.466,-9.378,cs)
);
},
{
closed = 1;
nodes = (
(388.272,350.414,l),
(602.356,350.414,l),
(741.212,487,l),
(728.584,501.381,l),
(702.483,477.414,l),
(487.475,477.414,l),
(348.62,340.827,l),
(361.248,326.447,l)
);
}
);
width = 738;
}
);
unicode = 38;
}
{
glyphname = quotesingle;
layers = (
{
layerId = m001;
shapes = (
{
closed = 1;
nodes = (
(128.936,397.359,l),
(171.936,766.753,l),
(152.762,766.753,l),
(15,678.109,l),
(15.002,663.729,l),
(58.773,657.193,o),
(65.974,611.416,o),
(73.006,568.359,cs),
(100.936,397.359,l)
);
}
);
width = 186;
}
);
unicode = 39;
}
{
glyphname = parenleft;
layers = (
{
layerId = m001;
shapes = (
{
closed = 1;
nodes = (
(302.6,-28.69,l),
(194.425,53.96,o),
(113.235,201.997,o),
(113.235,375.883,cs),
(113.235,553.243,o),
(194.605,700.424,o),
(303.931,784.288,c),
(294.054,800.973,l),
(142.908,737.822,o),
(12.052,580.842,o),
(12.052,377.529,cs),
(12.052,174.581,o),
(142.306,18.029,o),
(292.723,-45.375,c)
);
}
);
width = 319;
}
);
unicode = 40;
}
{
glyphname = plus;
layers = (
{
layerId = m001;
shapes = (
{
closed = 1;
nodes = (
(346,198,l),
(346,637,l),
(239,539.849,l),
(239,100.849,l)
);
},
{
closed = 1;
nodes = (
(453.166,313,l),
(550.318,420,l),
(131.318,420,l),
(34.166,313,l)
);
}
);
width = 574;
}
);
unicode = 43;
}
{
glyphname = hyphen;
layers = (
{
layerId = m001;
shapes = (
{
closed = 1;
nodes = (
(78.024,330,l),
(382.108,330,l),
(504.314,466.586,l),
(489.934,480.967,l),
(466.755,457,l),
(161.746,457,l),
(39.54,320.413,l),
(53.921,306.033,l)
);
}
);
width = 530;
}
);
unicode = 45;
}
{
glyphname = period;
layers = (
{
layerId = m001;
shapes = (
{
closed = 1;
nodes = (
(221,79,l),
(130,170,l),
(40,80,l),
(131,-11,l)
);
}
);
width = 261;
}
);
unicode = 46;
}
{
glyphname = slash;
layers = (
{
layerId = m001;
shapes = (
{
closed = 1;
nodes = (
(431.742,792,l),
(316.107,791.996,l),
(-6.195,-42.764,l),
(108.103,-43.33,l)
);
}
);
width = 417;
}
);
unicode = 47;
}
{
glyphname = zero;
layers = (
{
layerId = m001;
shapes = (
{
closed = 1;
nodes = (
(530.826,0.473,o),
(628.194,183.095,o),
(628.194,359.919,cs),
(628.194,535.776,o),
(529.732,717.001,o),
(344.037,717.001,cs),
(158.41,717.001,o),
(60,535.862,o),
(60,359.93,cs),
(60,183.105,o),
(157.305,0.473,o),
(344.04,0.473,cs)
);
},
{
closed = 1;
nodes = (
(260.183,53.142,o),
(222.097,103.524,o),
(222.097,190,cs),
(222.097,521,ls),
(222.097,607.51,o),
(260.839,673.005,o),
(346,673.005,cs),
(432.728,673.005,o),
(470,605,o),
(470.1,519,cs),
(470.097,190,ls),
(470.096,108,o),
(427.573,53.142,o),
(346,53.142,cs)
);
}
);
width = 689;
}
);
unicode = 48;
}
{
glyphname = one;
layers = (
{
layerId = m001;
shapes = (
{
closed = 1;
nodes = (
(351.976,2.01,l),
(351.976,715,l),
(165.812,720,l),
(164.979,651.167,l),
(195.477,638.747,o),
(207.812,612,o),
(207.812,567,cs),
(207.812,2,l)
);
}
);
width = 542;
}
);
unicode = 49;
}
{
glyphname = two;
layers = (
{
layerId = m001;
shapes = (
{
closed = 1;
nodes = (
(506.762,21.333,l),
(587.84,190.5,l),
(566.958,200.667,l),
(545.486,174.766,o),
(512,165,o),
(468.794,165,cs),
(102.9,165,l),
(266.412,223.519,o),
(567.141,332,o),
(567.141,526.267,cs),
(567.141,652.639,o),
(453.744,726.536,o),
(328.409,726.536,cs),
(202.846,726.536,o),
(49.121,655.879,o),
(49.121,525.211,cs),
(49.121,473.76,o),
(86.946,426.827,o),
(138.074,426.827,cs),
(176.635,426.827,o),
(211.961,460.133,o),
(211.961,498.941,cs),
(211.961,537.312,o),
(181.18,573.988,o),
(139.189,573.988,cs),
(127,573.988,o),
(120.203,572.485,o),
(114.011,570.424,c),
(133.536,624.774,o),
(192,673.789,o),
(277.871,673.789,cs),
(361.665,673.789,o),
(413.283,610.47,o),
(413.283,526.211,cs),
(413.283,377,o),
(150,235,o),
(48,164,c),
(48,20,l)
);
}
);
width = 630;
}
);
unicode = 50;
}
{
glyphname = three;
layers = (
{
layerId = m001;
shapes = (
{
closed = 1;
nodes = (
(432.338,-4.888,o),
(581.829,94.322,o),
(581.829,252.494,cs),
(581.829,385.379,o),
(472.676,480.808,o),
(344.522,480.808,cs),
(332.301,480.808,o),
(320.082,479.882,o),
(308,478,c),
(173.466,360,l),
(202.41,376.601,o),
(235.728,385.526,o),
(269.092,385.526,cs),
(367.353,385.526,o),
(447.851,313.176,o),
(447.851,211.091,cs),
(447.851,107.437,o),
(364.439,29.83,o),
(262.236,29.83,cs),
(203.392,29.83,o),
(145.068,58.36,o),
(109.092,105,c),
(118.865,100.623,o),
(129.56,98.464,o),
(140.262,98.464,cs),
(184.557,98.464,o),
(217.142,134.401,o),
(217.142,174.71,cs),
(217.142,216.71,o),
(182.171,251.017,o),
(140.501,251.017,cs),
(90.962,251.017,o),
(53.918,205.766,o),
(53.918,155.175,cs),
(53.918,127.942,o),
(62.761,104.643,o),
(76.745,83.64,cs),
(114.498,26.931,o),
(190.991,-4.888,o),
(275.717,-4.888,cs)
);
},
{
closed = 1;
nodes = (
(535,572,l),
(554.4,715.667,l),
(153.638,714.334,l),
(72.56,545.167,l),
(93.442,535,l),
(114.936,560.943,o),
(141.606,570.67,o),
(191.606,570.67,cs),
(447.5,570.667,l),
(141.966,383,l),
(173.466,360,l)
);
}
);
width = 630;
}
);
unicode = 51;
}
{
glyphname = four;
layers = (
{
layerId = m001;
shapes = (
{
closed = 1;
nodes = (
(576.711,223.837,l),
(615.803,366.834,l),
(595.47,377,l),
(559.206,345.663,o),
(512.795,334.167,o),
(448.97,334.167,cs),
(108.47,334.167,l),
(463.47,725,l),
(413.47,725.291,l),
(21.22,305,l),
(21.387,223.837,l)
);
},
{
closed = 1;
nodes = (
(496.636,10.009,l),
(496.632,725.29,l),
(413.472,725.291,l),
(334.472,617,l),
(334.472,10,l)
);
}
);
width = 630;
}
);
unicode = 52;
}
{
glyphname = five;
layers = (
{
layerId = m001;
shapes = (
{
closed = 1;
nodes = (
(411.875,-31.557,o),
(543.595,79.49,o),
(543.595,224.102,cs),
(543.595,387,o),
(411,510,o),
(180.575,482,c),
(198.408,577.333,l),
(467.741,577.333,l),
(551.075,754.667,l),
(530.741,764.833,l),
(514.075,734.198,o),
(481.654,722,o),
(436.575,722,cs),
(192.075,722,l),
(123.075,334,l),
(294,359,o),
(411.27,295,o),
(411.27,163.096,cs),
(411.27,76.437,o),
(348.912,1.073,o),
(261.539,1.073,cs),
(203.499,1.073,o),
(161.165,33.176,o),
(143.075,75,c),
(147.887,73.992,o),
(152.796,73.498,o),
(157.707,73.498,cs),
(198.998,73.498,o),
(231.218,106.936,o),
(231.218,146.485,cs),
(231.218,187.832,o),
(196.313,221.001,o),
(155.619,221.001,cs),
(105.177,221.001,o),
(68,174.362,o),
(68,123.115,cs),
(68,22.642,o),
(171.748,-31.557,o),
(267.601,-31.557,cs)
);
}
);
width = 590;
}
);
unicode = 53;
}
{
glyphname = six;
layers = (
{
layerId = m001;
shapes = (
{
closed = 1;
nodes = (
(482.668,-1.844,o),
(603.268,97.76,o),
(603.268,243.274,cs),
(603.268,388.835,o),
(479.411,493.771,o),
(333.243,493.771,cs),
(294.539,493.771,o),
(255.822,486.373,o),
(219.599,472.094,c),
(219.282,476.808,o),
(219.126,481.533,o),
(219.126,486.259,cs),
(219.126,592.785,o),
(294.986,685.377,o),
(399.345,685.377,cs),
(425.811,685.377,o),
(452.285,678.932,o),
(475.879,666.392,c),
(456.367,655.445,o),
(440.461,633.7,o),
(440.461,604.35,cs),
(440.461,565.547,o),
(469.395,534.232,o),
(507.552,534.232,cs),
(548.787,534.232,o),
(576.267,567.932,o),
(576.267,609.465,cs),
(576.267,699.574,o),
(477.587,737.711,o),
(388.155,737.711,cs),
(173.183,737.711,o),
(53.037,566.645,o),
(53.037,349.093,cs),
(53.037,158.868,o),
(160.689,-1.844,o),
(346.366,-1.844,cs)
);
},
{
closed = 1;
nodes = (
(261.194,55.329,o),
(223.316,161.216,o),
(223.316,255.867,cs),
(223.316,342.689,o),
(262.941,430.633,o),
(350.898,430.633,cs),
(446.108,430.633,o),
(488.112,327.393,o),
(488.112,238.283,cs),
(488.112,152.207,o),
(449.3,55.329,o),
(358.238,55.329,cs)
);
}
);
width = 637;
}
);
unicode = 54;
}
{
glyphname = seven;
layers = (
{
layerId = m001;
shapes = (
{
closed = 1;
nodes = (
(560.991,716.863,l),
(93.42,716.863,l),
(43,522.033,l),
(63.333,511.867,l),
(75.752,542.365,o),
(106.209,554.7,o),
(147.5,554.7,cs),
(432,554.7,l),
(189.234,0,l),
(249.234,-0.291,l)
);
}
);
width = 563;
}
);
unicode = 55;
}
{
glyphname = eight;
layers = (
{
layerId = m001;
shapes = (
{
closed = 1;
nodes = (
(474.318,-0.011,o),
(618.629,66.427,o),
(618.629,213.469,cs),
(618.629,354.197,o),
(472.428,425.3,o),
(335.04,425.3,cs),
(191.175,425.3,o),
(60.306,348.291,o),
(60.306,204.921,cs),
(60.306,64.643,o),
(199.704,-0.011,o),
(333.173,-0.011,cs)
);
},
{
closed = 1;
nodes = (
(253.008,66.048,o),
(210.873,145.792,o),
(210.873,225.609,cs),
(210.873,305.572,o),
(253.162,385.608,o),
(337.688,385.608,cs),
(421.195,385.608,o),
(466.03,303.57,o),
(466.03,225.737,cs),
(466.03,147.414,o),
(420.765,66.048,o),
(337.328,66.048,cs)
);
},
{
closed = 1;
nodes = (
(269.818,429.24,o),
(232.981,491.806,o),
(232.981,555.518,cs),
(232.981,620.012,o),
(268.582,685.444,o),
(335.892,685.444,cs),
(403.345,685.444,o),
(438.702,621.013,o),
(438.702,555.761,cs),
(438.702,492.028,o),
(401.449,429.24,o),
(335.433,429.24,cs)
);
},
{
closed = 1;
nodes = (
(454.397,385.458,o),
(586.719,436.71,o),
(586.719,564.078,cs),
(586.719,685.047,o),
(465.305,734.531,o),
(348.392,734.531,cs),
(226.808,734.531,o),
(94.779,686.361,o),
(94.779,559.602,cs),
(94.779,436.966,o),
(219.781,385.458,o),
(335.461,385.458,cs)
);
}
);
width = 661;
}
);
unicode = 56;
}
{
glyphname = nine;
layers = (
{
layerId = m001;
shapes = (
{
closed = 1;
nodes = (
(479.432,3.024,o),
(593.126,186.945,o),
(593.126,397.151,cs),
(593.126,575.026,o),
(483.158,724.412,o),
(304.437,724.412,cs),
(162.095,724.412,o),
(50,621.858,o),
(50,477.716,cs),
(50,333.299,o),
(161.382,226.032,o),
(303.857,226.032,cs),
(345.559,226.032,o),
(387.293,235.98,o),
(424.237,255.355,c),
(417.499,152.691,o),
(359.525,49.548,o),
(250.13,49.548,cs),
(227.515,49.548,o),
(204.924,54.839,o),
(184.951,65.462,c),
(204.059,75.786,o),
(219.923,96.127,o),
(219.923,124.264,cs),
(219.923,161.999,o),
(190.263,191.023,o),
(152.974,191.023,cs),
(112.17,191.023,o),
(83.847,158.03,o),
(83.847,118.569,cs),
(83.847,34,o),
(180.754,3.024,o),
(266.537,3.024,cs)
);
},
{
closed = 1;
nodes = (
(219.682,302.885,o),
(180.184,401.535,o),
(180.184,488.628,cs),
(180.184,571.159,o),
(218.607,659.748,o),
(305.555,659.748,cs),
(399.396,659.748,o),
(436.458,560.273,o),
(436.458,469.768,cs),
(436.458,386.338,o),
(398.189,302.885,o),
(312.966,302.885,cs)
);
}
);
width = 630;
}
);
unicode = 57;
}
{
glyphname = less;
layers = (
{
layerId = m001;
shapes = (
{
closed = 1;
nodes = (
(391.333,220.102,l),
(86.333,378.602,l),
(86.333,386.602,l),
(391.333,545.102,l),
(312.333,695.602,l),
(292.333,685.602,l),
(309.333,648.602,l),
(25,494.269,l),
(37.762,458.516,o),
(44.333,420.563,o),
(44.333,382.602,cs),
(44.333,344.64,o),
(37.762,306.687,o),
(25,270.935,c),
(309.333,116.602,l),
(292.333,79.602,l),
(312.333,69.602,l)
);
}
);
width = 425;
}
);
unicode = 60;
}
{
glyphname = equal;
layers = (
{
layerId = m001;
shapes = (
{
closed = 1;
nodes = (
(545.167,433,l),
(642.318,540,l),
(163.318,540,l),
(66.167,433,l)
);
},
{
closed = 1;
nodes = (
(545.167,223,l),
(642.318,330,l),
(163.318,330,l),
(66.167,223,l)
);
}
);
width = 697;
}
);
unicode = 61;
}
{
glyphname = question;
layers = (
{
layerId = m001;
shapes = (
{
closed = 1;
nodes = (
(112,200,l),
(112,275,o),
(157.411,300.082,o),
(203.333,319,cs),
(298,358,l),
(289.801,396.573,o),
(284.479,441.968,o),
(290.383,482,cs),
(296.644,524.465,o),
(309.646,559.014,o),
(328.333,589.667,c),
(104,744,l),
(121,781,l),
(101,791,l),
(22,640.5,l),
(267,482,l),
(66,388,l),
(86,199,l)
);
},
{
closed = 1;
nodes = (
(202.224,78.998,l),
(110.877,170.346,l),
(21,80.468,l),
(112.348,-10.878,l)
);
}
);
width = 349;
}
);
unicode = 63;
}
{
glyphname = at;
layers = (
{
layerId = m001;
shapes = (
{
closed = 1;
nodes = (
(540.346,-182.033,o),
(653.597,-66.641,o),
(690.252,-20.341,c),
(674.149,-5.041,l),
(674.149,-5.041,o),
(567.341,-96.475,o),
(397.384,-96.475,cs),
(250.541,-96.475,o),
(140.208,56.333,o),
(130.052,250.121,cs),
(119.086,459.358,o),
(256.862,607.107,o),
(387.863,607.107,cs),
(577.269,607.107,o),
(713.684,506.159,o),
(723.188,324.797,cs),
(731.56,165.059,o),
(653.471,154.583,o),
(595.982,104.127,c),
(608.275,90.338,l),
(699.787,152.534,o),
(826.849,212.021,o),
(817.871,383.321,cs),
(808.745,557.459,o),
(690.751,675.21,o),
(458.904,675.21,cs),
(335.162,675.21,o),
(34.619,549.358,o),
(53.369,191.597,cs),
(64.252,-16.06,o),
(180.823,-182.033,o),
(367.274,-182.033,cs)
);
},
{
closed = 1;
nodes = (
(668.334,131.387,l),
(660.127,149.785,l),
(623.104,123.92,l),
(577.261,167.957,l),
(577.261,455.732,l),
(488.162,477.358,l),
(330.662,509.759,o),
(245.295,392.759,o),
(246.062,255.059,cs),
(246.784,125.461,o),
(293.357,63.283,o),
(374.498,47.159,c),
(470.173,116.722,l),
(469.408,129.13,l),
(458.567,125.746,o),
(448.176,124.183,o),
(438.279,124.183,cs),
(388.262,124.183,o),
(352.42,196.648,o),
(346.862,269.459,cs),
(340.824,348.562,o),
(356.96,468.009,o),
(465.094,446.759,c),
(465.093,120.617,l),
(543.062,45.358,l)
);
}
);
width = 860;
}
);
unicode = 64;
}
{
glyphname = A;
layers = (
{
anchors = (
{
name = ogonek;
pos = (653,80);
},
{
name = top;
pos = (505,836);
}
);
layerId = m001;
shapes = (
{
closed = 1;
nodes = (
(320,310.5,l),
(260.763,340.214,o),
(213.892,399.137,o),
(213.892,479.794,cs),
(213.892,584.865,o),
(295.313,659.568,o),
(400.709,659.568,cs),
(457.479,659.568,o),
(510.453,636.897,o),
(550,599,c),
(646,675,l),
(588.047,727.492,o),
(510.194,757.683,o),
(432.112,757.683,cs),
(290.453,757.683,o),
(158.909,660.401,o),
(158.909,508.309,cs),
(158.909,401.035,o),
(228.453,325.458,o),
(313,301,c)
);
},
{
closed = 1;
nodes = (
(63,-10,l),
(107.642,37.157,o),
(171.816,65.003,o),
(237.238,65.003,cs),
(294.171,65.003,o),
(350.878,43.952,o),
(394,6.772,c),
(576,164,l),
(547,197,l),
(464,127,l),
(417.931,157.523,o),
(362.68,173.817,o),
(307.449,173.817,cs),
(176.024,173.817,o),
(80.726,89.058,o),
(44,-10,c)
);
},
{
closed = 1;
nodes = (
(502.065,635.186,l),
(477.523,649.992,l),
(157.691,113.311,l),
(182.259,98.542,l)
);
},
{
closed = 1;
nodes = (
(592,261,l),
(592,364,l),
(333,364,l),
(280,261,l)
);
},
{
closed = 1;
nodes = (
(759,103.833,l),
(730,136.833,l),
(696,109,l),
(656.637,139.496,o),
(653,184.929,o),
(653,251.67,cs),
(653,634,ls),
(653,672.653,o),
(659.221,701.182,o),
(676.625,724.625,c),
(694,744,l),
(672.25,762.083,l),
(524,636,l),
(524,120.174,l),
(504.782,104.608,l),
(539.617,63.376,o),
(580.344,26.995,o),
(626,-3.228,c)
);
}
);
width = 767;
}
);
unicode = 65;
}
{
glyphname = B;
layers = (
{
layerId = m001;
shapes = (
{
closed = 1;
nodes = (
(93.051,-32,l),
(141.093,14.603,o),
(209.626,45.425,o),
(299.43,45.425,cs),
(366.958,45.425,o),
(434.376,27.441,o),
(494.345,-3.83,c),
(828.511,169,l),
(828.511,420,l),
(781.515,458.836,o),
(723.531,490.727,o),
(658.511,509,c),
(545.345,430,l),
(601.324,410.941,o),
(653.409,382.829,o),
(697.511,350,c),
(697.511,120,l),
(615.759,82,l),
(563.25,128.555,o),
(490.053,163.164,o),
(397.903,163.164,cs),
(250.227,163.164,o),
(132.999,79.849,o),
(68.759,-32,c)
);
},
{
closed = 1;
nodes = (
(86.41,309.364,l),
(79.375,348.115,o),
(107.237,367.203,o),
(143.692,367.203,cs),
(219.519,367.204,l),
(211.223,485,l),
(176.779,478.568,o),
(141.63,477.751,o),
(110.761,463.25,cs),
(77.591,447.668,o),
(52,415.645,o),
(52,368.182,cs),
(52,347.735,o),
(57.326,327.249,o),
(67.285,309.364,c)
);
},
{
closed = 1;
nodes = (
(215.923,118.731,o),
(303.248,180.576,o),
(303.254,304,cs),
(303.324,552.478,ls),
(303.34,589.99,o),
(314.881,609.29,o),
(336.345,626.108,cs),
(484.117,741.907,l),
(450.345,739.01,l),
(378.446,693.077,o),
(306.453,647.266,o),
(234.345,601.564,cs),
(200.787,580.297,o),
(174.22,560.352,o),
(174.22,505.375,cs),
(174.22,505.25,o),
(174.22,505.125,o),
(174.22,505,cs),
(174.259,422.5,l),
(174.265,299.33,ls),
(174.268,215.161,o),
(168.717,151.057,o),
(113.174,119.33,c),
(122.504,95.33,l)
);
},
{
closed = 1;
nodes = (
(551.847,77.571,l),
(551.845,699.739,l),
(523.183,699.739,l),
(523.181,77.525,l)
);
},
{
closed = 1;
nodes = (
(114.845,634.141,l),
(124.959,660.817,o),
(149.801,678.492,o),
(184.416,678.492,cs),
(229.865,678.492,o),
(261.822,654.89,o),
(307.752,654.89,cs),
(385.504,654.89,o),
(434.64,709.517,o),
(484.117,741.907,c),
(490.345,764.148,l),
(467.239,750.051,o),
(435.99,739.763,o),
(401.078,739.763,cs),
(353.73,739.763,o),
(311.855,758.674,o),
(264.513,758.674,cs),
(177.089,758.674,o),
(116.368,695.069,o),
(91.345,634.141,c)
);
},
{
closed = 1;
nodes = (
(332.845,124,l),
(396.89,185.694,o),
(483.845,225.703,o),
(483.845,350.5,cs),
(483.845,612.274,ls),
(484,653,o),
(513.834,684.144,o),
(545.345,698.401,c),
(684.845,534.181,l),
(545.299,430,l),
(583.345,422,l),
(816.345,585.5,l),
(654.595,775.23,l),
(529.936,733.824,o),
(425.114,656.047,o),
(350.845,560.51,c),
(350.845,248,ls),
(350.845,188.265,o),
(328.265,152.975,o),
(295.845,124,c)
);
},
{
closed = 1;
nodes = (
(747.344,255.5,l),
(734.385,281.07,l),
(532.215,179.001,l),
(545.132,153.415,l)
);
},
{
closed = 1;
nodes = (
(748.387,360.986,l),
(735.428,386.557,l),
(533.258,284.487,l),
(546.175,258.901,l)
);
}
);
width = 855;
}
);
unicode = 66;
}
{
glyphname = C;
layers = (
{
anchors = (
{
name = cedilla;
pos = (385.975,-12);
},
{
name = top;
pos = (505.975,812);
}
);
layerId = m001;
shapes = (
{
closed = 1;
nodes = (
(588.614,-17.698,o),
(708.342,90.245,o),
(715.681,240,c),
(696.512,240,l),
(657.89,162.764,o),
(576.229,95.01,o),
(465.483,95.01,cs),
(298.956,95.01,o),
(215.561,231.674,o),
(215.561,397.658,cs),
(215.561,545.358,o),
(274.108,656.266,o),
(375.266,708.474,c),
(365.677,722.857,l),
(220.55,673.544,o),
(92.975,531.93,o),
(92.975,345.579,cs),
(92.975,154.587,o),
(242.549,-17.698,o),
(433.848,-17.698,cs)
);
},
{
closed = 1;
nodes = (
(426.266,297.474,l),
(426.332,681.052,l),
(192.987,561.333,l),
(182.685,548.598,l),
(297.266,596.942,l),
(297.268,272.409,l),
(182.639,223.557,l),
(182.619,194.932,l)
);
},
{
closed = 1;
nodes = (
(499.63,42.571,l),
(499.628,681,l),
(470.966,681,l),
(470.965,42.525,l)
);
},
{
closed = 1;
nodes = (
(546.686,744.556,l),
(531.743,769.015,l),
(221.251,579.339,l),
(236.234,554.9,l)
);
},
{
closed = 1;
nodes = (
(740.684,699.909,l),
(732.502,709.546,l),
(700.956,683.363,l),
(636.697,703.561,o),
(581.85,732.281,o),
(531.744,769.015,c),
(420.307,685.252,l),
(481.242,642.381,o),
(548.858,605.068,o),
(621.744,575.682,c)
);
}
);
width = 748;
}
);
unicode = 67;
}
{
glyphname = D;
layers = (
{
anchors = (
{
name = top;
pos = (446,792);
}
);
layerId = m001;
shapes = (
{
closed = 1;
nodes = (
(77.5,-31.5,l),
(131.625,17.914,o),
(204.607,46.089,o),
(277.874,46.089,cs),
(341.516,46.089,o),
(400.695,26.214,o),
(450.5,-9.5,c),
(700.5,128,l),
(737.634,203.325,o),
(766.411,303.21,o),
(766.411,407.367,cs),
(766.411,598.4,o),
(692,740,o),
(482.5,740,cs),
(209.5,740,ls),
(170.381,740,o),
(142.345,752.107,o),
(136,784.75,c),
(114.5,785.5,l),
(96.258,716.47,o),
(96.198,618,o),
(177,618,cs),
(442.5,618,ls),
(467.183,618,o),
(492.277,616.964,o),
(515.586,608.845,cs),
(601.124,579.049,o),
(630.71,483.993,o),
(630.71,370.769,cs),
(630.71,260.103,o),
(608.483,167.701,o),
(574.5,83,c),
(513.042,130.474,o),
(435.318,155.777,o),
(357.748,155.777,cs),
(209.481,155.777,o),
(104.023,73.163,o),
(49,-31.5,c)
);
},
{
closed = 1;
nodes = (
(313.416,158.42,o),
(367.701,202.622,o),
(367.705,290.999,cs),
(367.775,470.988,ls),
(367.803,541.939,o),
(380.742,589.047,o),
(427.406,617.809,c),
(422.272,625.603,o),
(417.138,633.397,o),
(412.005,641.191,c),
(358.089,607.657,o),
(339.807,550.799,o),
(339.775,471.012,cs),
(339.705,291.001,ls),
(339.701,211.557,o),
(290.088,174.727,o),
(248.86,133.954,c),
(268.55,114.046,l)
);
},
{
closed = 1;
nodes = (
(93.65,267.159,l),
(90,302,o),
(110,324.998,o),
(150.933,324.998,cs),
(226.759,324.999,l),
(218.463,442.795,l),
(138.795,434.919,o),
(59.241,420.989,o),
(59.241,325.977,cs),
(59.241,305.53,o),
(64.567,285.044,o),
(74.525,267.159,c)
);
},
{
closed = 1;
nodes = (
(216.836,141.731,o),
(304.163,203.576,o),
(304.169,327,cs),
(304.174,429,l),
(304.239,507,ls),
(304.285,562.758,o),
(322.781,591.659,o),
(353.395,619,cs),
(397.062,658,l),
(373.288,655.103,l),
(237.206,566.5,ls),
(201.403,543.188,o),
(175.134,520.602,o),
(175.134,461.46,cs),
(175.13,322.33,ls),
(175.137,239,o),
(169.629,174.062,o),
(114.089,142.33,c),
(123.419,118.33,l)
);
},
{
closed = 1;
nodes = (
(448.708,40.571,l),
(448.706,679,l),
(420.044,679,l),
(420.043,40.525,l)
);
},
{
closed = 1;
nodes = (
(653.039,378.333,l),
(640.079,403.902,l),
(422.457,293.586,l),
(435.374,268,l)
);
},
{
closed = 1;
nodes = (
(630.629,475.573,l),
(617.669,501.142,l),
(424.477,403.503,l),
(437.395,377.917,l)
);
}
);
width = 787;
}
);
unicode = 68;
}
{
glyphname = E;
layers = (
{
anchors = (
{
name = ogonek;
pos = (522.709,44);
},
{
name = top;
pos = (522.709,812);
}
);
layerId = m001;
shapes = (
{
closed = 1;
nodes = (
(597.244,-17.25,o),
(719.198,89.236,o),
(726.278,240,c),
(707.109,240,l),
(665.115,163.145,o),
(581.029,95.251,o),
(467.929,95.251,cs),
(300.493,95.251,o),
(216.105,230.067,o),
(216.105,396.924,cs),
(216.105,544.952,o),
(274.436,656.221,o),
(375.863,708.474,c),
(366.273,722.857,l),
(220.849,676.164,o),
(93.709,535.03,o),
(93.709,350.85,cs),
(93.709,156.863,o),
(248.416,-17.25,o),
(442.439,-17.25,cs)
);
},
{
closed = 1;
nodes = (
(426.863,297.474,l),
(426.929,681.052,l),
(193.584,561.333,l),
(183.282,548.598,l),
(297.863,596.942,l),
(297.865,272.409,l),
(183.235,223.557,l),
(183.216,194.932,l)
);
},
{
closed = 1;
nodes = (
(500.228,42.571,l),
(500.226,681,l),
(471.563,681,l),
(471.562,42.525,l)
);
},
{
closed = 1;
nodes = (
(611.426,333,l),
(733.426,460,l),
(485.426,460,l),
(484.426,333,l)
);
},
{
closed = 1;
nodes = (
(547.283,744.556,l),
(532.341,769.015,l),
(221.849,579.339,l),
(236.832,554.9,l)
);
},
{
closed = 1;
nodes = (
(741.28,699.909,l),
(733.099,709.546,l),
(701.554,683.363,l),
(637.294,703.561,o),
(582.447,732.281,o),
(532.342,769.015,c),
(420.903,685.252,l),
(481.839,642.381,o),
(549.456,605.068,o),
(622.342,575.682,c)
);
}
);
width = 737;
}
);
unicode = 69;
}
{
glyphname = F;
layers = (
{
layerId = m001;
shapes = (
{
closed = 1;
nodes = (
(173.413,-164.528,o),
(174.284,-164.519,o),
(175.156,-164.5,cs),
(175.156,-138.5,l),
(149,-138,o),
(129.648,-113,o),
(129.648,-89.67,cs),
(129.648,-66.926,o),
(152,-53,o),
(177.656,-53,cs),
(206.656,-53,ls),
(247.78,-52.304,o),
(290.45,-36.898,o),
(312.656,-17,cs),
(391.127,53.319,o),
(516.656,221,o),
(516.656,221,c),
(516.656,663.667,l),
(558.962,634.389,o),
(607.968,610.266,o),
(662.156,594.667,c),
(784.656,715.667,l),
(756.656,736.667,l),
(725.156,707.667,l),
(666.898,726.602,o),
(616.903,751.834,o),
(569.656,784.167,c),
(375.656,613,l),
(375.656,107,ls),
(375.656,82.477,o),
(369.445,65.028,o),
(353.656,55,c),
(300.804,60.228,o),
(246.459,72.475,o),
(191.249,72.475,cs),
(116.01,72.475,o),
(49,33.42,o),
(49,-44.306,cs),
(49,-113.184,o),
(104.716,-164.528,o),
(172.541,-164.528,cs)
);
},
{
closed = 1;
nodes = (
(93.811,302.184,l),
(86.168,343.204,o),
(112.211,365.913,o),
(151.094,365.913,cs),
(226.92,365.915,l),
(218.624,480.6,l),
(184.13,473.882,o),
(148.921,472.683,o),
(118.162,457.763,cs),
(68.548,433.697,o),
(41.807,364.441,o),
(74.686,302.184,c)
);
},
{
closed = 1;
nodes = (
(159,49,o),
(326.654,114,o),
(326.656,208,cs),
(326.661,397.65,l),
(326.726,539,ls),
(326.788,668.748,o),
(401.707,701.208,o),
(479.656,752.833,c),
(457.156,752.961,l),
(384.053,711,o),
(316.763,660.057,o),
(257.746,602.993,cs),
(229.975,576.142,o),
(197.621,556.086,o),
(197.621,501.811,cs),
(197.621,501.74,o),
(197.621,501.67,o),
(197.621,501.6,cs),
(197.661,414.975,l),
(197.666,294.646,ls),
(197.672,177.443,o),
(198.942,82.763,o),
(124.986,32.946,c),
(124.315,17.746,l)
);
},
{
closed = 1;
nodes = (
(92.656,648,l),
(102.336,674.913,o),
(127.64,694.883,o),
(163.437,694.883,cs),
(212.494,694.883,o),
(246.623,664.893,o),
(296.047,664.893,cs),
(374.271,664.893,o),
(425.495,723.283,o),
(479.656,752.833,c),
(481.156,779.355,l),
(458.138,764.717,o),
(427.342,753.728,o),
(392.324,753.728,cs),
(339.857,753.728,o),
(294.275,778.753,o),
(241.862,778.753,cs),
(153.762,778.753,o),
(94.567,711.872,o),
(69.156,648,c)
);
},
{
closed = 1;
nodes = (
(602.976,363.6,l),
(716.624,480.6,l),
(468.624,480.6,l),
(467.624,363.6,l)
);
}
);
width = 679;
}
);
unicode = 70;
}
{
glyphname = G;
layers = (
{
anchors = (
{
name = cedilla;
pos = (409.316,-36);
},
{
name = top;
pos = (497.316,824);
}
);
layerId = m001;
shapes = (
{
closed = 1;
nodes = (
(609.873,-23.917,o),
(775.68,102.31,o),
(775.68,286.32,cs),
(775.68,418.942,o),
(679.52,514.904,o),
(568.55,531,c),
(461.3,432.5,l),
(559.339,411.21,o),
(648.1,321.993,o),
(648.1,206.08,cs),
(648.1,101.102,o),
(572.302,12.886,o),
(465.984,12.886,cs),
(271.554,12.886,o),
(218.477,238.95,o),
(218.477,433.489,cs),
(218.477,599.198,o),
(302.782,693.739,o),
(460.55,704,c),
(446.046,722.503,l),
(253.557,712.534,o),
(80.317,532.85,o),
(80.317,324.153,cs),
(80.317,127.756,o),
(227.32,-23.917,o),
(426.491,-23.917,cs)
);
},
{
closed = 1;
nodes = (
(495.499,2.571,l),
(495.497,437,l),
(466.835,437,l),
(466.833,2.525,l)
);
},
{
closed = 1;
nodes = (
(300.331,153.48,o),
(381.623,201.464,o),
(405.642,276.276,cs),
(412.518,297.695,o),
(413.468,320.504,o),
(413.468,343,cs),
(413.468,480.667,l),
(413.533,714.333,l),
(284.468,660.223,l),
(284.47,338.333,ls),
(284.47,318.68,o),
(284.491,299.104,o),
(281.783,279.699,cs),
(274.536,227.773,o),
(244.18,186.393,o),
(197.379,175.333,c),
(206.714,151.333,l)
);
},
{
closed = 1;
nodes = (
(686.376,234.086,l),
(673.417,259.656,l),
(471.247,157.587,l),
(484.164,132.001,l)
);
},
{
closed = 1;
nodes = (
(687.419,339.572,l),
(674.46,365.143,l),
(472.29,263.073,l),
(485.207,237.487,l)
);
},
{
closed = 1;
nodes = (
(749.568,692.717,l),
(729.403,713.086,l),
(283.883,272.046,l),
(283.883,255.621,l),
(295.857,243.564,l)
);
},
{
closed = 1;
nodes = (
(711.05,675.5,l),
(638.535,699.225,o),
(575.656,734.583,o),
(521.05,778.5,c),
(409.55,709.667,l),
(469.332,664.817,o),
(535.801,605.507,o),
(607.55,574,c)
);
}
);
width = 807;
}
);
unicode = 71;
}
{
glyphname = H;
layers = (
{
layerId = m001;
shapes = (
{
closed = 1;
nodes = (
(766.5,109,l),
(752.12,123.38,l),
(721,97,l),
(692.5,128.808,l),
(692.5,691.5,l),
(607.5,761,l),
(491.582,666.917,l),
(492.249,639.25,l),
(526.5,665.5,l),
(553.491,640,l),
(553,121.042,l),
(501.624,81.042,l),
(512.957,66.333,l),
(537.291,85.042,l),
(634.196,-3.203,l)
);
},
{
closed = 1;
nodes = (
(75.5,-34.5,l),
(112.295,4.437,o),
(165.572,27.187,o),
(219.108,27.187,cs),
(273.265,27.187,o),
(313.176,4.675,o),
(332.5,-9,c),
(432.167,86.667,l),
(390.591,109.797,o),
(342.995,121.618,o),
(295.438,121.618,cs),
(127.879,121.618,o),
(55.624,-12.867,o),
(45,-34.5,c)
);
},
{
closed = 1;
nodes = (
(131.392,287.159,l),
(125.204,321.244,o),
(146.706,344.998,o),
(188.674,344.998,cs),
(264.5,344.999,l),
(256.204,462.795,l),
(201.849,452.645,o),
(96.982,451.848,o),
(96.982,345.977,cs),
(96.982,325.53,o),
(102.308,305.044,o),
(112.267,287.159,c)
);
},
{
closed = 1;
nodes = (
(197.682,122.298,o),
(236.177,134.587,o),
(269.5,155.5,cs),
(342,201,o),
(341.909,268,o),
(341.91,304,cs),
(341.98,527,ls),
(342.054,617.674,o),
(358.423,642.336,o),
(398.25,683.75,cs),
(416.282,702.5,l),
(387.62,702.5,l),
(362,673.5,ls),
(347.305,656.865,o),
(331.676,640.961,o),
(313.978,627.566,cs),
(257.487,584.81,o),
(213,572.045,o),
(213,481.239,cs),
(213,342.33,ls),
(213.048,193,o),
(202,168,o),
(158.5,143.33,c),
(158.5,118.75,l)
);
},
{
closed = 1;
nodes = (
(416.284,84.071,l),
(416.282,702.5,l),
(387.62,702.5,l),
(387.618,84.025,l)
);
},
{
closed = 1;
nodes = (
(90,649,o),
(123,657.545,o),
(151.329,657.545,cs),
(180.588,657.545,o),
(211.596,649.158,o),
(242.848,649.158,cs),
(330.856,649.158,o),
(382.971,723.468,o),
(414.69,758.382,c),
(395.507,767.974,l),
(368.64,751.105,o),
(341.536,746.295,o),
(314.756,746.295,cs),
(279.205,746.295,o),
(244.225,754.773,o),
(211.131,754.773,cs),
(88.598,754.773,o),
(55.057,634.526,o),
(52.351,626.339,c),
(71.522,616.751,l)
);
},
{
closed = 1;
nodes = (
(658,343,l),
(661.648,460,l),
(403.648,460,l),
(402.648,343,l)
);
},
{
closed = 1;
nodes = (
(730.25,701.255,l),
(712.613,723.003,l),
(653.326,674.922,l),
(670.963,653.175,l)
);
}
);
width = 780;
}
);
unicode = 72;
}
{
glyphname = I;
layers = (
{
anchors = (
{
name = top;
pos = (390,852);
}
);
layerId = m001;
shapes = (
{
closed = 1;
nodes = (
(155.005,-84,l),
(154.907,-84,o),
(154.81,-84,o),
(154.713,-84,cs),
(129.08,-84,o),
(105.832,-64.031,o),
(105.832,-38.307,cs),
(105.832,-16.625,o),
(121.57,-2.732,o),
(143.22,-2.732,cs),
(147.821,-2.732,o),
(152.432,-3.284,o),
(157.005,-3.88,cs),
(249.005,-15.88,ls),
(262.466,-17.636,o),
(276.045,-19.605,o),
(289.574,-19.605,cs),
(318.438,-19.605,o),
(336.803,-9.368,o),
(354.005,3.12,cs),
(438.289,64.302,o),
(510.117,142.726,o),
(564.005,234.12,c),
(564.005,619,ls),
(564.005,670.141,o),
(576.997,706.624,o),
(610.005,727.5,c),
(595.005,744,l),
(536.505,705,ls),
(460.036,654.021,o),
(423.005,647.802,o),
(423.005,538.5,cs),
(423.005,160.12,ls),
(423.005,90.1,o),
(414.565,88.341,o),
(393.505,78,c),
(315.197,99.188,o),
(234.544,132.116,o),
(166.3,132.116,cs),
(99.071,132.116,o),
(45,86.236,o),
(45,17.386,cs),
(45,-48.146,o),
(78,-99.88,o),
(155.005,-99.88,c)
);
},
{
closed = 1;
nodes = (
(144.16,302.184,l),
(143.461,305.936,o),
(143.107,309.754,o),
(143.107,313.572,cs),
(143.107,335.691,o),
(153.286,365.913,o),
(201.443,365.913,cs),
(277.269,365.915,l),
(268.973,480.6,l),
(219.837,471.029,o),
(110.31,470.303,o),
(110.31,361.364,cs),
(110.31,340.863,o),
(115.452,320.331,o),
(125.035,302.184,c)
);
},
{
closed = 1;
nodes = (
(209.005,150,l),
(265.322,166.896,o),
(325.931,194.858,o),
(352.152,243.82,cs),
(363.535,265.076,o),
(367.003,289.423,o),
(367.005,320.5,cs),
(367.01,397.65,l),
(367.075,539,ls),
(367.115,626.595,o),
(394.745,630.903,o),
(420.059,652.776,cs),
(448.656,677.489,o),
(481.535,692.441,o),
(507.505,732.478,c),
(485.005,732.605,l),
(425.175,680.124,o),
(363.547,659.605,o),
(300.005,611,cs),
(242.129,566.732,o),
(238,545.472,o),
(238,501.6,cs),
(238,294.059,ls),
(238,276.802,o),
(237.959,259.484,o),
(235.565,242.395,cs),
(229.644,200.1,o),
(208.41,167.089,o),
(176.005,150,c)
);
},
{
closed = 1;
nodes = (
(118.005,607,l),
(127.593,631.822,o),
(152.61,647.017,o),
(185.963,647.017,cs),
(226.791,647.017,o),
(266.209,632.948,o),
(308.979,632.948,cs),
(391.935,632.948,o),
(464.42,679.951,o),
(507.505,732.478,c),
(509.005,759,l),
(481.084,732.68,o),
(447.527,726.802,o),
(423.119,726.802,cs),
(374.194,726.802,o),
(326.146,751.545,o),
(274.63,751.545,cs),
(168.265,751.545,o),
(110.522,646.194,o),
(94.505,607,c)
);
}
);
width = 615;
}
);
unicode = 73;
}
{
glyphname = J;
layers = (
{
anchors = (
{
name = top;
pos = (356,856);
}
);
layerId = m001;
shapes = (
{
closed = 1;
nodes = (
(306.856,-94.922,o),
(571,-82.323,o),
(571,263,cs),
(571,539,ls),
(571,649,o),
(583,699.82,o),
(612.913,733,c),
(600.413,745.5,l),
(499.977,669.407,o),
(438.913,656.111,o),
(438.913,457,cs),
(438.913,152.5,ls),
(438.913,-23.272,o),
(321.174,-71.15,o),
(247.595,-71.15,cs),
(180.243,-71.15,o),
(132.102,-34.253,o),
(109.413,15,c),
(118.83,10.57,o),
(129.223,8.384,o),
(139.624,8.384,cs),
(180.203,8.384,o),
(211.431,39.255,o),
(211.431,80.066,cs),
(211.431,121.214,o),
(176.201,154.503,o),
(135.102,154.503,cs),
(84.098,154.503,o),
(47,109.557,o),
(47,57.889,cs),
(47,-4.023,o),
(91.947,-47.556,o),
(135.015,-69.342,cs),
(170.597,-87.341,o),
(210.473,-94.922,o),
(250.548,-94.922,cs)
);
},
{
closed = 1;
nodes = (
(332,-47,o),
(395.913,42,o),
(395.913,132,cs),
(395.913,543,ls),
(395.913,628.148,o),
(424.188,665.935,o),
(530.913,744,c),
(508.413,764.5,l),
(478.186,741.177,o),
(442.622,729.241,o),
(401.195,729.241,cs),
(338.474,729.241,o),
(282.945,757.122,o),
(221.021,757.122,cs),
(140.542,757.122,o),
(72.645,704.209,o),
(72.645,623.877,cs),
(72.645,563.396,o),
(112.196,519.065,o),
(157.913,503,c),
(161.913,511.333,l),
(143.125,517.553,o),
(127.174,535.58,o),
(127.174,560.16,cs),
(127.174,607.245,o),
(174.095,626.209,o),
(221.419,626.209,cs),
(256.934,626.209,o),
(290.873,618.383,o),
(327.771,618.383,cs),
(346.368,618.383,o),
(364.966,619.939,o),
(383.247,623.333,c),
(276.611,545.589,o),
(263.913,514.839,o),
(263.913,461,cs),
(263.913,50,ls),
(263.913,13.598,o),
(244.052,-6.169,o),
(215.913,-14,c),
(215.913,-47,l)
);
},
{
closed = 1;
nodes = (
(181.805,251.659,l),
(175.003,289.126,o),
(201.46,309.498,o),
(239.087,309.498,cs),
(314.913,309.499,l),
(306.617,427.295,l),
(273.725,421.148,o),
(147.395,422.382,o),
(147.395,310.478,cs),
(147.395,290.03,o),
(152.721,269.544,o),
(162.68,251.659,c)
);
}
);
width = 621;
}
);
unicode = 74;
}
{
glyphname = K;
layers = (
{
anchors = (
{
name = cedilla;
pos = (234.316,68);
}
);
layerId = m001;
shapes = (
{
closed = 1;
nodes = (
(827.816,114.5,l),
(827.816,145,l),
(759.252,92,l),
(710.122,133.994,o),
(697.229,200.597,o),
(678.317,267,cs),
(655.046,348.712,o),
(622.659,430.122,o),
(502.418,464.999,c),
(408.149,365,l),
(498.624,352.813,o),
(529.744,291.582,o),
(551.018,221,cs),
(576.972,134.894,o),
(588.275,34.872,o),
(674.816,-7,c)
);
},
{
closed = 1;
nodes = (
(113.816,-22.5,l),
(143.54,23.335,o),
(196.608,56.413,o),
(268.569,56.413,cs),
(287.294,56.413,o),
(306.038,54.121,o),
(324.316,50,cs),
(368.441,40.051,o),
(410.062,19.706,o),
(445.816,-8,c),
(597.566,111.667,l),
(586.566,124.833,l),
(550.066,96,l),
(499.069,137.678,o),
(433.289,160.583,o),
(367.451,160.583,cs),
(239.978,160.583,o),
(133.703,77.977,o),
(83.316,-22.5,c)
);
},
{
closed = 1;
nodes = (
(123.816,310,l),
(117.179,344.627,o),
(139.664,367.998,o),
(179.99,367.998,cs),
(255.816,368,l),
(250.149,477.9,l),
(225.469,478.963,o),
(91.925,497.194,o),
(91.925,369.74,cs),
(91.925,349.269,o),
(96.429,328.756,o),
(104.691,310,c)
);
},
{
closed = 1;
nodes = (
(177.816,146,l),
(234.168,167.716,o),
(292.884,201.003,o),
(319.525,253.253,cs),
(332.016,277.745,o),
(335.814,305.587,o),
(335.816,340.85,cs),
(335.821,418,l),
(335.887,509,ls),
(335.954,628.137,o),
(387.357,693.682,o),
(440.066,733.333,c),
(385.085,697.5,l),
(279.816,609,ls),
(233.363,569.946,o),
(206.892,562,o),
(207,447.5,cs),
(207,284.439,ls),
(207,264.898,o),
(206.683,245.216,o),
(202.832,226.059,cs),
(195.681,190.483,o),
(174.782,160.602,o),
(144.816,146,c)
);
},
{
closed = 1;
nodes = (
(380.561,182.517,o),
(401.367,228.227,o),
(403.063,308.705,cs),
(408.063,526.205,ls),
(410.228,629.028,o),
(448.855,686.668,o),
(525.043,739.495,c),
(509.09,762.505,l),
(369.355,665.624,o),
(380.616,552.765,o),
(380.069,526.795,cs),
(375.069,309.295,ls),
(373.408,230.337,o),
(344.869,193.295,o),
(239.674,127.89,c),
(254.459,104.11,l)
);
},
{
closed = 1;
nodes = (
(96.816,607,l),
(101.686,632.136,o),
(124.898,649.409,o),
(155.178,649.409,cs),
(193.5,649.409,o),
(223.561,629.729,o),
(264.378,629.729,cs),
(328.286,629.729,o),
(373.92,682.541,o),
(440.066,733.333,c),
(441.566,748.5,l),
(420.37,733.324,o),
(396.75,723.517,o),
(364.281,723.517,cs),
(316.116,723.517,o),
(283.422,751.076,o),
(236.289,751.076,cs),
(153.146,751.076,o),
(96.046,648.701,o),
(73.316,607,c)
);
},
{
closed = 1;
nodes = (
(407.736,348,l),
(634.899,613.5,l),
(606.816,613.5,l),
(380.816,348,l)
);
},
{
closed = 1;
nodes = (
(515.149,622.333,l),
(545.218,602.929,o),
(580.613,592.079,o),
(616.676,592.079,cs),
(709.728,592.079,o),
(767.854,660.617,o),
(767.854,732.787,cs),
(767.854,740.591,o),
(767.181,748.394,o),
(765.816,756.081,c),
(752.15,756.414,l),
(742.938,724.758,o),
(713.059,700.03,o),
(672.526,700.03,cs),
(633.774,700.03,o),
(605.952,718.215,o),
(585.816,741,c),
(462.568,594.05,l),
(476.947,579.669,l)
);
}
);
width = 820;
}
);
unicode = 75;
}
{
glyphname = L;
layers = (
{
anchors = (
{
name = cedilla;
pos = (324,32);
},
{
name = middledot;
pos = (606,388);
},
{
name = top;
pos = (396,848);
}
);
layerId = m001;
shapes = (
{
closed = 1;
nodes = (
(434.09,199.687,o),
(475.906,229.354,o),
(475.91,327,cs),
(475.98,558,ls),
(476.051,643.58,o),
(498.783,709.583,o),
(575,732,cs),
(592,737,l),
(592,759,l),
(581,757,ls),
(423.397,728.345,o),
(347,665,o),
(347,471.5,cs),
(347,322.33,ls),
(347,219,o),
(334,156,o),
(285.83,122.33,c),
(295.16,98.33,l)
);
},
{
closed = 1;
nodes = (
(164.285,9.216,o),
(250.781,39.205,o),
(345.613,39.205,cs),
(421.008,39.205,o),
(496.34,18.949,o),
(561.5,-19,c),
(708.167,90.667,l),
(692.167,113.333,l),
(659.5,89.333,l),
(590.596,124.411,o),
(506.321,153.149,o),
(409.469,153.149,cs),
(257.66,153.149,o),
(147.857,76.043,o),
(91.5,-25.75,c),
(91.5,-44.5,l)
);
},
{
closed = 1;
nodes = (
(88.5,289.1,l),
(81.862,323.727,o),
(104.348,347.098,o),
(144.674,347.098,cs),
(220.5,347.1,l),
(214.833,457,l),
(151.453,459.729,o),
(133.491,455.813,o),
(115.006,447.763,cs),
(80.005,432.519,o),
(56.609,397.744,o),
(56.609,348.84,cs),
(56.609,328.369,o),
(61.113,307.856,o),
(69.375,289.1,c)
);
},
{
closed = 1;
nodes = (
(145.5,96,ls),
(219,96,o),
(303.493,200,o),
(303.5,310.5,cs),
(303.57,509,ls),
(303.597,565.272,o),
(314.93,622.63,o),
(347.813,653.087,cs),
(366.408,670.307,o),
(387.494,683.87,o),
(398.833,708.294,c),
(376.333,708.421,l),
(257.761,577.437,o),
(173.971,606.923,o),
(174,471.6,cs),
(174,284.646,ls),
(174.004,189,o),
(153.207,121.866,o),
(112.5,96,c)
);
},
{
closed = 1;
nodes = (
(74.5,607,l),
(84.084,631.513,o),
(108.78,647.03,o),
(141.829,647.03,cs),
(180.22,647.03,o),
(216.109,632.466,o),
(256.418,632.466,cs),
(357.35,632.466,o),
(429.717,723.229,o),
(438,732.669,c),
(439.5,759.191,l),
(419.386,740.541,o),
(390.557,726.818,o),
(354.458,726.818,cs),
(306.394,726.818,o),
(269.461,751.05,o),
(221.563,751.05,cs),
(113.781,751.05,o),
(55.852,617.327,o),
(51,607,c)
);
}
);
width = 719;
}
);
unicode = 76;
}
{
glyphname = M;
layers = (
{
layerId = m001;
shapes = (
{
closed = 1;
nodes = (
(766.228,124.427,l),
(751.847,138.807,l),
(695.209,100.984,l),
(632.01,148.394,l),
(632.024,626.014,l),
(637.805,631.67,l),
(591.174,670.346,o),
(544.457,708.937,o),
(497.793,747.58,c),
(297.501,620.75,ls),
(204.577,561.908,o),
(180.65,512.35,o),
(180.65,427,cs),
(180.65,269.667,ls),
(180.65,226.868,o),
(176.701,181.715,o),
(133.463,177.028,c),
(138.338,157.966,l),
(218.869,163.623,o),
(310.501,200.446,o),
(310.501,299.5,cs),
(310.502,523,ls),
(310.502,587.355,o),
(341.062,623.334,o),
(380.501,649,c),
(502.587,565.425,l),
(502.585,129.222,l),
(440.271,86.079,l),
(449.857,71.699,l),
(483.412,95.666,l),
(598.455,-0.203,l)
);
},
{
closed = 1;
nodes = (
(90.357,287.364,l),
(83.561,324.832,o),
(110.014,345.203,o),
(147.641,345.203,cs),
(219,345.204,l),
(219,463,l),
(111.83,463,o),
(55.948,415,o),
(55.948,346.182,cs),
(55.948,325.735,o),
(61.274,305.249,o),
(71.232,287.364,c)
);
},
{
closed = 1;
nodes = (
(197.172,-101.654,o),
(201.294,-101.395,o),
(205.391,-100.867,c),
(205.391,-76.932,l),
(204.409,-76.978,o),
(203.426,-77,o),
(202.442,-77,cs),
(176.976,-77,o),
(152.431,-62.158,o),
(152.431,-36.841,cs),
(152.431,1.341,o),
(197.485,5.902,o),
(232.869,8.545,cs),
(322.991,15.278,o),
(397.063,55.96,o),
(397.063,154.57,cs),
(397.063,154.824,o),
(397.063,155.077,o),
(397.062,155.33,cs),
(396.898,251.333,l),
(396.898,651.667,l),
(368.232,651.621,l),
(368.231,275.833,ls),
(368.231,183,o),
(345,132.333,o),
(203.453,132.333,cs),
(136.36,132.333,o),
(85.446,85.015,o),
(85.446,14.96,cs),
(85.446,-45.642,o),
(130.168,-101.654,o),
(193.051,-101.654,cs)
);
},
{
closed = 0;
nodes = (
(396.898,251.333,ls)
);
},
{
closed = 1;
nodes = (
(508.784,306.938,l),
(473.299,345.063,o),
(415.803,341.293,o),
(383.784,307.438,c),
(384.034,278.188,l),
(417.731,315.088,o),
(475.948,314.274,o),
(508.784,277.438,c)
);
},
{
closed = 1;
nodes = (
(418.142,382.674,o),
(475.616,383.867,o),
(508.784,419.5,c),
(508.784,449,l),
(475.903,412.112,o),
(417.591,411.504,o),
(384.034,448.25,c),
(383.784,419,l)
);
},
{
closed = 1;
nodes = (
(80.184,648.863,o),
(101.785,668.86,o),
(134.497,668.86,cs),
(171.339,668.86,o),
(197.139,649.31,o),
(235.052,649.31,cs),
(282.389,649.31,o),
(319.387,667.928,o),
(392.339,749.432,c),
(373.155,759.023,l),
(360.274,745.775,o),
(347.146,729.943,o),
(322.174,729.943,cs),
(269.989,729.943,o),
(238.888,759.467,o),
(188.369,759.467,cs),
(142.313,759.467,o),
(79.871,722.289,o),
(52,634.389,c),
(71.172,624.801,l)
);
},
{
closed = 1;
nodes = (
(1077.23,124.427,l),
(1062.85,138.807,l),
(1006.21,100.984,l),
(962.76,138.808,l),
(962.76,627.742,l),
(828.709,747.333,l),
(615.161,619.166,l),
(626.709,597.833,l),
(712.738,649.941,l),
(823.75,560.631,l),
(823.75,125.867,l),
(766.271,86.079,l),
(775.857,71.699,l),
(809.412,95.666,l),
(924.455,-0.203,l)
);
},
{
closed = 0;
nodes = (
(632.01,148.394,ls)
);
},
{
closed = 0;
nodes = (
(809.412,95.666,ls)
);
},
{
closed = 0;
nodes = (
(809.412,95.666,ls)
);
},
{
closed = 1;
nodes = (
(831.784,306.938,l),
(796.299,345.063,o),
(738.803,341.293,o),
(706.784,307.438,c),
(707.034,278.188,l),
(740.731,315.088,o),
(798.948,314.274,o),
(831.784,277.438,c)
);
},
{
closed = 1;
nodes = (
(720.079,99.562,l),
(720.077,737.991,l),
(691.415,737.991,l),
(691.414,99.517,l)
);
},
{
closed = 1;
nodes = (
(741.142,382.674,o),
(798.616,383.867,o),
(831.784,419.5,c),
(831.784,449,l),
(798.902,412.113,o),
(740.591,411.504,o),
(707.034,448.25,c),
(706.784,419,l)
);
},
{
closed = 1;
nodes = (
(1014.79,646.228,l),
(997.155,667.976,l),
(937.868,619.895,l),
(955.505,598.147,l)
);
}
);
width = 1085;
}
);
unicode = 77;
}
{
glyphname = N;
layers = (
{
anchors = (
{
name = top;
pos = (435,804);
}
);
layerId = m001;
shapes = (
{
closed = 1;
nodes = (
(607.163,0,l),
(607.163,656.5,l),
(579.163,656.5,l),
(579.162,258.475,l),
(338.748,660.977,ls),
(312,706,o),
(285.418,758.13,o),
(212.587,758.13,cs),
(143.456,758.13,o),
(87.381,698.714,o),
(87.381,626.146,cs),
(87.381,617.022,o),
(88.287,607.901,o),
(90.124,598.962,c),
(109.302,594.184,l),
(109.302,628,o),
(125.247,647.642,o),
(153.774,647.642,cs),
(181,647.642,o),
(209.223,609.999,o),
(234.312,567.5,cs),
(569.347,0,l)
);
},
{
closed = 1;
nodes = (
(200.318,-58.333,l),
(165.576,-61.877,o),
(133.622,-37.554,o),
(133.622,-3.495,cs),
(133.622,25.115,o),
(156.119,43.097,o),
(184.818,43.097,cs),
(221.462,43.097,o),
(248.757,20.752,o),
(267.984,0,c),
(396.883,143.6,l),
(382.504,157.981,l),
(348.969,119.649,l),
(290.937,177.776,o),
(223.663,184.732,o),
(197.141,184.732,cs),
(114.313,184.732,o),
(46,130.025,o),
(46,49.179,cs),
(46,-39.125,o),
(125.458,-88.451,o),
(195.651,-77,c)
);
},
{
closed = 1;
nodes = (
(151.941,292.833,l),
(144.09,297.69,o),
(138.902,306.458,o),
(138.902,316.304,cs),
(138.902,341.368,o),
(161.946,348.833,o),
(187.441,348.833,cs),
(219.441,348.835,l),
(221.441,481.833,l),
(213.345,483.437,o),
(205.091,484.237,o),
(196.837,484.237,cs),
(130.229,484.237,o),
(76.251,434.234,o),
(76.251,371.442,cs),
(76.251,324.292,o),
(108.543,288.953,o),
(146.941,278.833,c)
);
},
{
closed = 1;
nodes = (
(226.164,120.5,l),
(226.164,656.5,l),
(198.164,656.5,l),
(198.164,120.5,l)
);
},
{
closed = 1;
nodes = (
(668.103,587.664,o),
(734.743,633.776,o),
(734.743,707.148,cs),
(734.743,724.417,o),
(730.606,741.691,o),
(722.607,757,c),
(708.941,757.333,l),
(705.89,727.337,o),
(681.214,704.927,o),
(648.042,704.927,cs),
(612.262,704.927,o),
(586.816,726.683,o),
(570.274,747.667,c),
(550.607,748,l),
(426.026,604.05,l),
(440.405,589.669,l),
(478.607,632.333,l),
(505.245,607.07,o),
(546.456,587.664,o),
(594.218,587.664,cs)
);
}
);
width = 693;
}
);
unicode = 78;
}
{
glyphname = O;
layers = (
{
anchors = (
{
name = top;
pos = (451.342,856);
}
);
layerId = m001;
shapes = (
{
closed = 1;
nodes = (
(525.023,-28.565,o),
(735.952,190.854,o),
(735.952,419.056,cs),
(735.952,589.153,o),
(628.342,711.201,o),
(505.201,765,c),
(175.534,623.25,l),
(175.534,593.5,l),
(392.284,683.5,l),
(556,612,o),
(633.692,479,o),
(633.692,316.441,cs),
(633.692,170.6,o),
(531.013,81.239,o),
(425.644,81.239,cs),
(266.797,81.239,o),
(165.928,250.011,o),
(165.928,429.619,cs),
(165.928,580.485,o),
(233.475,701.054,o),
(328.704,767.83,c),
(314.201,786.333,l),
(163.142,725.036,o),
(42.342,572.338,o),
(42.342,366.321,cs),
(42.342,140.775,o),
(182.314,-28.565,o),
(350.014,-28.565,cs)
);
},
{
closed = 1;
nodes = (
(389.952,330.754,l),
(390.019,694.333,l),
(260.952,640.223,l),
(260.954,305.69,l),
(146.325,256.837,l),
(146.306,228.212,l)
);
},
{
closed = 1;
nodes = (
(464.983,42.571,l),
(464.981,681,l),
(436.319,681,l),
(436.318,42.525,l)
);
},
{
closed = 1;
nodes = (
(655.86,372.086,l),
(642.901,397.656,l),
(440.731,295.587,l),
(453.648,270.001,l)
);
},
{
closed = 1;
nodes = (
(656.903,477.572,l),
(643.944,503.143,l),
(441.774,401.073,l),
(454.691,375.487,l)
);
}
);
width = 754;
}
);
unicode = 79;
}
{
glyphname = P;
layers = (
{
layerId = m001;
shapes = (
{
closed = 1;
nodes = (
(68,13.5,l),
(115.845,65.43,o),
(185.977,96.05,o),
(256.564,96.05,cs),
(321.035,96.05,o),
(382.135,71.634,o),
(428.5,29.5,c),
(690.991,171,l),
(690.991,639,l),
(656.874,686.198,o),
(614.771,727.622,o),
(566.908,761,c),
(292.5,561,l),
(292.5,532,l),
(469.408,656.95,l),
(503.861,632.028,o),
(535.338,603.501,o),
(563.324,572,c),
(563.324,135.5,l),
(541.324,122.5,l),
(483.568,164.731,o),
(412.122,187.809,o),
(340.606,187.809,cs),
(181.222,187.809,o),
(81.293,78.831,o),
(45,13.5,c)
);
},
{
closed = 1;
nodes = (
(396.506,-111.5,l),
(396.506,-83,l),
(186.567,-83,l),
(186.567,-111.5,l)
);
},
{
closed = 1;
nodes = (
(98.576,291.5,l),
(98.542,292.287,o),
(98.525,293.075,o),
(98.525,293.863,cs),
(98.525,322,o),
(115,336.727,o),
(153.977,336.625,cs),
(201.43,336.5,l),
(203.43,434.498,l),
(196.136,435.951,o),
(188.701,436.671,o),
(181.265,436.671,cs),
(123.52,436.671,o),
(69.295,392.48,o),
(69.295,327.614,cs),
(69.295,315.334,o),
(71.406,303.052,o),
(75.576,291.5,c)
);
},
{
closed = 1;
nodes = (
(326.991,-111.5,l),
(326.991,604,ls),
(326.991,719.135,o),
(258.076,738.834,o),
(212.12,738.834,cs),
(134.825,738.834,o),
(79.618,678.248,o),
(77.13,613.388,c),
(101.067,613.388,l),
(105.31,636.877,o),
(121.745,661.396,o),
(148.632,661.396,cs),
(174,661.396,o),
(186.567,638,o),
(186.567,602,cs),
(186.567,-111.5,l)
);
},
{
closed = 1;
nodes = (
(396.502,-111,l),
(396.5,737.04,l),
(367.839,737.04,l),
(367.837,-111.046,l)
);
},
{
closed = 1;
nodes = (
(580.379,372.086,l),
(567.42,397.656,l),
(375.25,300.587,l),
(388.167,275.001,l)
);
},
{
closed = 1;
nodes = (
(581.422,477.572,l),
(568.463,503.143,l),
(376.293,406.073,l),
(389.21,380.487,l)
);
}
);
width = 724;
}
);
unicode = 80;
}
{
glyphname = Q;
layers = (
{
anchors = (
{
name = top;
pos = (444,848);
}
);
layerId = m001;
shapes = (
{
closed = 1;
nodes = (
(537.023,-28.564,o),
(747.951,190.854,o),
(747.951,419.057,cs),
(747.951,589.153,o),
(640.342,711.201,o),
(517.201,765,c),
(187.534,623.25,l),
(187.534,593.5,l),
(404.284,683.5,l),
(568,612,o),
(645.692,479,o),
(645.692,316.441,cs),
(645.692,170.6,o),
(543.013,81.239,o),
(437.644,81.239,cs),
(278.797,81.239,o),
(177.928,250.011,o),
(177.928,429.619,cs),
(177.928,580.485,o),
(245.475,701.055,o),
(340.704,767.83,c),
(326.201,786.333,l),
(175.142,725.036,o),
(54.342,572.339,o),
(54.342,366.321,cs),
(54.342,140.774,o),
(194.313,-28.564,o),
(362.014,-28.564,cs)
);
},
{
closed = 1;
nodes = (
(833.359,13,l),
(812.359,34.333,l),
(772.344,0.202,l),
(676.822,49.352,o),
(636.094,127.821,o),
(626.359,147,c),
(519.709,53.697,l),
(598.245,-56.596,o),
(645.122,-87.236,o),
(682.359,-106.667,c)
);
},
{
closed = 1;
nodes = (
(272.787,225.925,o),
(395.61,269.848,o),
(395.61,415.667,cs),
(395.677,694.333,l),
(267,640.223,l),
(267,411,ls),
(267.001,326,o),
(229.055,251.551,o),
(179.522,248,c),
(188.857,224,l)
);
},
{
closed = 1;
nodes = (
(476.983,42.571,l),
(476.981,681,l),
(448.319,681,l),
(448.318,42.525,l)
);
},
{
closed = 1;
nodes = (
(667.86,372.086,l),
(654.901,397.656,l),
(452.731,295.587,l),
(465.648,270.001,l)
);
},
{
closed = 1;
nodes = (
(668.903,477.572,l),
(655.944,503.143,l),
(453.774,401.073,l),
(466.691,375.487,l)
);
}
);
width = 780;
}
);
unicode = 81;
}
{
glyphname = R;
layers = (
{
anchors = (
{
name = cedilla;
pos = (341,8);
},
{
name = top;
pos = (385,828);
}
);
layerId = m001;
shapes = (
{
closed = 1;
nodes = (
(693.483,545,l),
(534.75,762,l),
(318.521,582.478,l),
(327.555,555.315,l),
(439.483,652.5,l),
(566.483,472,l),
(384.717,314.829,l),
(393.75,287.667,l)
);
},
{
closed = 1;
nodes = (
(74.5,-25.5,l),
(104.224,20.335,o),
(157.292,53.413,o),
(229.253,53.413,cs),
(317.365,53.413,o),
(386.707,4.338,o),
(406.5,-11,c),
(613.5,152.5,l),
(602.5,165.667,l),
(510.75,93,l),
(459.752,134.678,o),
(393.973,157.583,o),
(328.134,157.583,cs),
(200.662,157.583,o),
(94.387,74.977,o),
(44,-25.5,c)
);
},
{
closed = 1;
nodes = (
(110,260,l),
(103.362,294.627,o),
(125.848,317.998,o),
(166.174,317.998,cs),
(242,318,l),
(236.333,427.9,l),
(207,431,o),
(78.109,447.194,o),
(78.109,319.74,cs),
(78.109,299.27,o),
(82.612,278.757,o),
(90.875,260,c)
);
},
{
closed = 1;
nodes = (
(340,90,l),
(340,615,ls),
(340,730.136,o),
(271.085,749.834,o),
(225.129,749.834,cs),
(147.834,749.834,o),
(92.627,689.247,o),
(90.139,624.388,c),
(114.076,624.388,l),
(114.35,650.61,o),
(132.958,674.089,o),
(158.898,674.089,cs),
(191.149,674.089,o),
(199.576,645.213,o),
(199.576,613,cs),
(199.576,90,l)
);
},
{
closed = 1;
nodes = (
(812,111.5,l),
(812,142,l),
(743.435,89,l),
(634.738,181.99,o),
(706,358.715,o),
(540.75,423,c),
(422.333,332,l),
(604,307.53,o),
(501.519,66.195,o),
(659,-10,c)
);
},
{
closed = 1;
nodes = (
(408.752,122.538,l),
(408.75,740.967,l),
(380.088,740.967,l),
(380.086,122.492,l)
);
}
);
width = 820;
}
);
unicode = 82;
}
{
glyphname = S;
layers = (
{
anchors = (
{
name = cedilla;
pos = (298,36);
},
{
name = top;
pos = (426,808);
}
);
layerId = m001;
shapes = (
{
closed = 1;
nodes = (
(425,-187.093,o),
(552.29,-104.325,o),
(581.861,12.15,c),
(554.941,19.85,l),
(525.391,-75.44,o),
(397,-111,o),
(296.404,-111,cs),
(202,-111,o),
(73.104,-90.568,o),
(73.104,21.791,cs),
(73.104,121.054,o),
(181.068,216.729,o),
(244.728,273.556,cs),
(477.728,481.556,ls),
(560.159,555.143,o),
(668.007,644.614,o),
(668.404,786.961,cs),
(668.443,800.961,l),
(640.441,801.04,l),
(640.404,787.039,ls),
(640.064,658.664,o),
(535.999,571.103,o),
(459.081,502.44,cs),
(226.081,294.444,ls),
(154.998,230.986,o),
(45,132.127,o),
(45,18.386,cs),
(45,-106,o),
(162.409,-187.093,o),
(293.478,-187.093,cs)
);
},
{
closed = 1;
nodes = (
(65.747,68,o),
(141,81.083,o),
(197.048,81.083,cs),
(272,81.083,o),
(333.703,42.178,o),
(375.571,-3.833,c),
(649.737,169,l),
(649.737,420,l),
(602.742,458.836,o),
(544.759,490.727,o),
(479.737,509,c),
(385.737,415,l),
(518.737,350,l),
(518.737,120,l),
(499.737,111,l),
(441.551,157.139,o),
(363.917,199.637,o),
(267.656,199.637,cs),
(150.551,199.637,o),
(63.349,124.105,o),
(47.737,22,c),
(75.747,-5,l)
);
},
{
closed = 1;
nodes = (
(460.707,120.747,l),
(460.707,422,l),
(432.707,422,l),
(432.707,120.747,l)
);
},
{
closed = 1;
nodes = (
(309.707,362.747,l),
(309.707,664,l),
(281.707,664,l),
(281.707,362.747,l)
);
},
{
closed = 1;
nodes = (
(342.404,388,l),
(226.404,468,l),
(226.404,640,l),
(245.404,653,l),
(300.033,618.431,o),
(369.023,581.919,o),
(454.067,581.919,cs),
(564,581.919,o),
(658.411,655.658,o),
(658.411,768.668,cs),
(658,801,l),
(640.404,801,l),
(635.409,740.257,o),
(581,703.49,o),
(520.461,703.49,cs),
(462,703.49,o),
(407.545,732.777,o),
(369.571,767.833,c),
(95.404,595,l),
(95.404,394,l),
(248.404,294,l)
);
}
);
width = 670;
}
);
unicode = 83;
}
{
glyphname = T;
layers = (
{
anchors = (
{
name = top;
pos = (413.975,820);
}
);
layerId = m001;
shapes = (
{
closed = 1;
nodes = (
(574.94,3.639,o),
(702.563,125.013,o),
(702.563,277.701,cs),
(702.563,280.937,o),
(702.502,284.173,o),
(702.381,287.407,c),
(683.212,287.407,l),
(648.179,197.178,o),
(560.619,113.381,o),
(439.997,113.381,cs),
(304.551,113.381,o),
(212.142,222.204,o),
(212.142,347.664,cs),
(212.142,486.61,o),
(312.908,562.807,o),
(338.078,579.805,c),
(328.489,594.189,l),
(180.295,569.748,o),
(92.975,438.166,o),
(92.975,315.536,cs),
(92.975,130.662,o),
(249.19,3.639,o),
(412.723,3.639,cs)
);
},
{
closed = 1;
nodes = (
(457.222,251.754,l),
(457.288,555.333,l),
(213.661,451.504,l),
(213.641,422.879,l),
(328.222,471.224,l),
(328.224,226.689,l),
(213.595,177.837,l),
(213.574,149.212,l)
);
},
{
closed = 1;
nodes = (
(578.993,123,l),
(578.993,575.253,l),
(550.993,575.253,l),
(550.993,123,l)
);
},
{
closed = 1;
nodes = (
(645.763,375.498,l),
(565.518,455.743,l),
(485.272,375.498,l),
(565.518,295.252,l)
);
},
{
closed = 1;
nodes = (
(194.271,541.459,l),
(180.786,547.839,o),
(169.861,561.244,o),
(169.861,580.333,cs),
(169.861,614.946,o),
(201.226,632.368,o),
(235.934,632.368,cs),
(288.187,632.368,o),
(496.836,562.651,o),
(579.896,562.651,cs),
(652.127,562.651,o),
(715.6,601.067,o),
(715.6,673.189,cs),
(715.6,746.477,o),
(642.511,797.835,o),
(548.991,790.72,c),
(548.991,771.547,l),
(579.671,767.401,o),
(625.246,762.734,o),
(625.246,727.593,cs),
(625.246,705.591,o),
(604.584,695.415,o),
(583.145,695.415,cs),
(491.934,695.415,o),
(359.518,766.879,o),
(274.986,766.879,cs),
(177.692,766.879,o),
(116.514,704.336,o),
(116.514,632.548,cs),
(116.514,580.307,o),
(147.308,543.555,o),
(184.688,527.079,c)
);
}
);
width = 719;
}
);
unicode = 84;
}
{
glyphname = U;
layers = (
{
anchors = (
{
name = ogonek;
pos = (434,32);
},
{
name = top;
pos = (482,818);
}
);
layerId = m001;
shapes = (
{
closed = 1;
nodes = (
(656.5,121.5,l),
(656.5,168,l),
(545.5,95,l),
(536.147,93.867,o),
(526.734,93.309,o),
(517.321,93.309,cs),
(347.055,93.309,o),
(251.726,249.773,o),
(251.726,394.581,cs),
(251.726,621.215,o),
(423.894,727.605,o),
(434.5,734.5,c),
(411,758,l),
(388.547,740.283,o),
(364.733,717.926,o),
(326.951,717.926,cs),
(277.713,717.926,o),
(252.927,752.734,o),
(203.089,752.734,cs),
(119.264,752.734,o),
(56.981,634.182,o),
(45,612.5,c),
(68.5,622.5,l),
(123,707,o),
(217.933,635.239,o),
(264.67,635.239,cs),
(283.946,635.239,o),
(303.185,639.644,o),
(320,649,c),
(209.599,598.444,o),
(115.078,483.743,o),
(115.078,328.962,cs),
(115.078,144.809,o),
(271.697,-9.213,o),
(462,-11.5,c)
);
},
{
closed = 1;
nodes = (
(464.5,307,l),
(464.5,613,ls),
(464.386,689.567,o),
(485.864,713.132,o),
(530,734,c),
(530,754.619,l),
(509.5,754,l),
(357.646,643.114,o),
(335.5,621.326,o),
(335.5,526,cs),
(335.502,281.936,l),
(220.873,233.083,l),
(220.853,204.458,l)
);
},
{
closed = 1;
nodes = (
(530.5,65,l),
(530,754.619,l),
(501.836,746.429,l),
(501.834,64.954,l)
);
},
{
closed = 1;
nodes = (
(724.499,387.538,l),
(711.54,413.108,l),
(509.37,311.039,l),
(522.287,285.453,l)
);
},
{
closed = 1;
nodes = (
(861.5,109,l),
(847.12,123.38,l),
(816,97,l),
(767.5,138.808,l),
(767.5,677.5,l),
(667,761,l),
(513.952,662.833,l),
(525.5,641.5,l),
(573,671,l),
(628.491,610.389,l),
(628.491,125.867,l),
(556.359,99.413,l),
(565.945,85.033,l),
(599.5,109,l),
(729.196,-0.203,l)
);
},
{
closed = 1;
nodes = (
(725.542,493.024,l),
(712.583,518.595,l),
(510.413,416.525,l),
(523.33,390.939,l)
);
},
{
closed = 1;
nodes = (
(811.5,700.003,l),
(793.863,721.751,l),
(734.576,673.67,l),
(752.213,651.923,l)
);
}
);
width = 836;
}
);
unicode = 85;
}
{
glyphname = V;
layers = (
{
layerId = m001;
shapes = (
{
closed = 1;
nodes = (
(673.178,199.678,l),
(673.046,678,l),
(574.704,770.645,l),
(281.166,521.118,l),
(299.603,499.167,l),
(494.103,662,l),
(548.546,607.833,l),
(548.546,98,l)
);
},
{
closed = 1;
nodes = (
(731.103,231,l),
(712.103,262,l),
(499.603,95.5,l),
(448.691,146.16,o),
(376.96,174.785,o),
(305.264,174.785,cs),
(176.096,174.785,o),
(89.851,85.319,o),
(57.658,12.945,c),
(76.658,12.945,l),
(119,45,o),
(166,65,o),
(229.038,65,cs),
(296.601,65,o),
(363.692,36.104,o),
(410.103,-13,c)
);
},
{
closed = 1;
nodes = (
(107.546,316,l),
(107.517,316.891,o),
(107.502,317.781,o),
(107.502,318.672,cs),
(107.502,354.949,o),
(128.849,367.601,o),
(165.525,367.601,cs),
(178.611,367.601,o),
(211.984,367.5,o),
(211.984,367.5,c),
(213.984,474.498,l),
(206.053,476.637,o),
(197.845,477.692,o),
(189.633,477.692,cs),
(125.627,477.692,o),
(80.424,418.378,o),
(80.424,350.744,cs),
(80.424,339.055,o),
(81.806,327.364,o),
(84.546,316,c)
);
},
{
closed = 1;
nodes = (
(343.546,106.5,l),
(343.546,622,ls),
(343.546,705,o),
(300.793,756.834,o),
(228.675,756.834,cs),
(151.38,756.834,o),
(102.176,696.248,o),
(99.685,631.389,c),
(123.622,631.389,l),
(123.622,662,o),
(138.3,679.396,o),
(165.188,679.396,cs),
(200.504,679.396,o),
(203.122,635.309,o),
(203.122,620,cs),
(203.122,106.5,l)
);
},
{
closed = 1;
nodes = (
(412.211,140.046,l),
(412.209,748.475,l),
(383.547,748.475,l),
(383.546,140,l)
);
},
{
closed = 1;
nodes = (
(605.088,399.561,l),
(592.129,425.131,l),
(389.959,323.062,l),
(402.876,297.476,l)
);
},
{
closed = 1;
nodes = (
(606.131,505.047,l),
(593.172,530.617,l),
(391.002,428.548,l),
(403.919,402.962,l)
);
},
{
closed = 0;
nodes = (
(673.379,625.175,ls)
);
},
{
closed = 1;
nodes = (
(732.546,692.003,l),
(714.909,713.751,l),
(655.622,665.67,l),
(673.259,643.923,l)
);
}
);
width = 741;
}
);
unicode = 86;
}
{
glyphname = W;
layers = (
{
anchors = (
{
name = top;
pos = (594,844);
}
);
layerId = m001;
shapes = (
{
closed = 1;
nodes = (
(957.792,187.934,l),
(957.792,652.1,l),
(859.888,744.25,l),
(711.388,633.125,l),
(711.388,605.125,l),
(764.156,644.687,l),
(828.792,591,l),
(828.792,136.333,l),
(769.974,93.818,l),
(641.792,180,l),
(641.792,652.25,l),
(543.888,745,l),
(395.388,633.875,l),
(395.388,605.875,l),
(448.156,645.437,l),
(512.792,591.75,l),
(512.792,105,l),
(687.974,-14.182,l)
);
},
{
closed = 1;
nodes = (
(574,149.945,l),
(531,197,l),
(448,127,l),
(403.22,157.896,o),
(348.821,174.428,o),
(294.455,174.428,cs),
(158.16,174.428,o),
(76.456,76.119,o),
(49,12.945,c),
(68,12.945,l),
(108.888,46.37,o),
(161.539,65.072,o),
(214.34,65.072,cs),
(278.798,65.072,o),
(339.244,37.988,o),
(382,-7.281,c)
);
},
{
closed = 1;
nodes = (
(333.5,142.316,l),
(333.5,509.94,l),
(333.497,526.94,ls),
(333.497,541.89,o),
(333.766,556.842,o),
(333.766,571.791,cs),
(333.766,604.756,o),
(333.142,631.504,o),
(322.709,658.94,cs),
(304.44,706.984,o),
(258.07,741.06,o),
(193.594,741.06,cs),
(116.24,741.06,o),
(57.77,687.021,o),
(63.709,618.94,c),
(88.709,618.94,l),
(93.67,643.679,o),
(115.587,666.016,o),
(144.5,666.016,cs),
(197.834,666.016,o),
(194.716,604.959,o),
(194.709,600.94,cs),
(194.487,516.94,l),
(194.491,129.375,l)
);
},
{
closed = 1;
nodes = (
(97.453,301.105,l),
(90.651,338.572,o),
(117.109,358.944,o),
(154.735,358.944,cs),
(230.562,358.945,l),
(222.266,476.741,l),
(187.821,470.305,o),
(152.675,469.492,o),
(121.804,454.991,cs),
(88.634,439.409,o),
(63.043,407.386,o),
(63.043,359.924,cs),
(63.043,339.476,o),
(68.369,318.99,o),
(78.328,301.105,c)
);
},
{
closed = 1;
nodes = (
(407.794,132.634,l),
(407.792,731.062,l),
(379.13,731.062,l),
(379.129,132.588,l)
);
},
{
closed = 1;
nodes = (
(598.671,402.148,l),
(585.712,427.719,l),
(383.542,325.649,l),
(396.459,300.063,l)
);
},
{
closed = 1;
nodes = (
(599.714,507.635,l),
(586.755,533.205,l),
(384.585,431.136,l),
(397.502,405.55,l)
);
},
{
closed = 1;
nodes = (
(722.794,132.634,l),
(722.792,731.062,l),
(694.13,731.062,l),
(694.129,132.588,l)
);
},
{
closed = 1;
nodes = (
(913.671,402.148,l),
(900.712,427.719,l),
(698.542,325.649,l),
(711.459,300.063,l)
);
},
{
closed = 1;
nodes = (
(914.714,507.635,l),
(901.755,533.205,l),
(699.585,431.136,l),
(712.502,405.55,l)
);
}
);
width = 1001;
}
);
unicode = 87;
}
{
glyphname = X;
layers = (
{
layerId = m001;
shapes = (
{
closed = 1;
nodes = (
(715.5,93,l),
(707,107,l),
(670,85,l),
(395.5,597,ls),
(358,668,o),
(311,751,o),
(213.898,751.126,cs),
(123.348,751.244,o),
(60.563,681.582,o),
(48,608,c),
(107,608,l),
(111.264,634.411,o),
(129.425,666.008,o),
(161.402,666.008,cs),
(192.961,666.008,o),
(208.148,644.645,o),
(260,547,cs),
(559.5,-7,l)
);
},
{
closed = 1;
nodes = (
(206.211,-64.333,l),
(171.935,-69.811,o),
(140.183,-45.13,o),
(140.183,-9.321,cs),
(140.183,26.347,o),
(169.842,47.305,o),
(205.574,47.305,cs),
(263.787,47.305,o),
(318.002,-4.709,o),
(326.055,-12.507,c),
(454.953,131.094,l),
(440.573,145.475,l),
(407.038,107.144,l),
(356.538,143.567,o),
(297.479,169.464,o),
(235.557,175.985,cs),
(226.787,176.909,o),
(217.95,177.406,o),
(209.12,177.406,cs),
(123.584,177.406,o),
(51.024,127.035,o),
(51.024,43.55,cs),
(51.024,-41.338,o),
(127.644,-94.088,o),
(201.544,-83,c)
);
},
{
closed = 1;
nodes = (
(561.265,624.402,l),
(538.284,641.533,l),
(166.686,139.643,l),
(189.694,122.547,l)
);
},
{
closed = 1;
nodes = (
(568.167,373,l),
(665.318,480,l),
(186.318,480,l),
(89.167,373,l)
);
},
{
closed = 1;
nodes = (
(643.943,595.813,o),
(708.828,667.687,o),
(698.417,752.5,c),
(684.751,752.834,l),
(670.197,727.308,o),
(643.664,709.339,o),
(609.149,709.339,cs),
(575.032,709.339,o),
(544.771,728.823,o),
(528.167,751,c),
(508.5,751.333,l),
(359.288,624.381,l),
(373.667,610,l),
(416.667,644,l),
(448.869,614.096,o),
(495.322,595.813,o),
(552.836,595.813,cs)
);
}
);
width = 736;
}
);
unicode = 88;
}
{
glyphname = Y;
layers = (
{
anchors = (
{
name = top;
pos = (369,802);
}
);
layerId = m001;
shapes = (
{
closed = 1;
nodes = (
(558.02,-251.93,o),
(570.48,-248.155,o),
(582.344,-243,cs),
(621.954,-225.786,o),
(663.069,-190.116,o),
(663.069,-134.202,cs),
(663.069,-63.286,o),
(597.616,-27.756,o),
(520.674,-27.756,cs),
(389.467,-27.756,o),
(294.951,-75.514,o),
(229.347,-75.514,cs),
(190.798,-75.514,o),
(153.161,-55.984,o),
(153.161,-15.639,cs),
(153.161,34.302,o),
(207.79,52.795,o),
(255.635,52.795,cs),
(354.139,52.795,o),
(450.901,9.099,o),
(530.973,9.099,cs),
(636,9.099,o),
(656.444,80,o),
(656.344,147,cs),
(655.587,661.75,l),
(550.003,752.75,l),
(399.003,630.5,l),
(399.003,595.75,l),
(462.503,645.75,l),
(516.535,599.187,l),
(516.533,198,ls),
(516.533,86,o),
(475,54.246,o),
(415.91,54.246,cs),
(369.247,54.246,o),
(312.385,82.572,o),
(252.351,82.572,cs),
(151.348,82.572,o),
(83.775,13.011,o),
(83.775,-65.202,cs),
(83.775,-131.697,o),
(134.321,-196.884,o),
(234.508,-196.884,cs),
(325.285,-196.884,o),
(451.191,-153.353,o),
(518.356,-153.353,cs),
(547.022,-153.353,o),
(574.165,-167.001,o),
(574.165,-195.931,cs),
(574.165,-217.014,o),
(558.552,-231.47,o),
(540.52,-235.1,c),
(545.296,-254.259,l)
);
},
{
closed = 1;
nodes = (
(127.69,245.498,l),
(119.84,250.355,o),
(114.651,259.123,o),
(114.651,268.969,cs),
(114.651,294.033,o),
(137.695,301.498,o),
(163.19,301.498,cs),
(195.19,301.5,l),
(197.19,434.498,l),
(189.094,436.102,o),
(180.84,436.902,o),
(172.586,436.902,cs),
(105.979,436.902,o),
(52,386.899,o),
(52,324.107,cs),
(52,276.957,o),
(84.292,241.618,o),
(122.69,231.498,c)
);
},
{
closed = 1;
nodes = (
(320.753,63.5,l),
(320.753,614,ls),
(320.753,697,o),
(278,748.834,o),
(205.882,748.834,cs),
(128.587,748.834,o),
(79.383,688.248,o),
(76.892,623.389,c),
(100.829,623.389,l),
(100.829,654,o),
(115.507,671.396,o),
(142.395,671.396,cs),
(177.711,671.396,o),
(180.329,627.309,o),
(180.329,612,cs),
(180.329,63.5,l)
);
},
{
closed = 1;
nodes = (
(526.003,306.477,l),
(490.518,344.601,o),
(433.022,340.831,o),
(401.003,306.977,c),
(401.253,277.727,l),
(434.95,314.626,o),
(493.166,313.812,o),
(526.003,276.977,c)
);
},
{
closed = 1;
nodes = (
(414.299,40,l),
(414.297,743.333,l),
(385.635,743.333,l),
(385.633,39.954,l)
);
},
{
closed = 1;
nodes = (
(435.36,382.212,o),
(492.835,383.405,o),
(526.003,419.038,c),
(526.003,448.538,l),
(493.12,411.651,o),
(434.809,411.042,o),
(401.253,447.788,c),
(401.003,418.538,l)
);
},
{
closed = 1;
nodes = (
(706.524,674.003,l),
(688.888,695.751,l),
(629.601,647.67,l),
(647.237,625.923,l)
);
}
);
width = 714;
}
);
unicode = 89;
}
{
glyphname = Z;
layers = (
{
anchors = (
{
name = top;
pos = (379,800);
}
);
layerId = m001;
shapes = (
{
closed = 1;
nodes = (
(662.888,157.968,l),
(648.508,167.554,l),
(619.747,134,l),
(537.233,170.792,o),
(457.914,190.407,o),
(354.919,190.407,cs),
(292.808,190.407,o),
(240.694,181.524,o),
(181.102,164.01,c),
(472.596,479,ls),
(584.465,607.562,o),
(614.881,651.98,o),
(633.777,724,c),
(615.986,743.9,l),
(557.471,713.697,o),
(497.918,697.354,o),
(417.731,697.354,cs),
(323.102,697.354,o),
(223.835,724.48,o),
(146.796,752.296,c),
(46,566.492,l),
(65.174,556.906,l),
(102.244,611.251,l),
(189.242,576.782,o),
(273.792,559.024,o),
(375.784,559.024,cs),
(423.021,559.024,o),
(470.256,563.529,o),
(516.636,572.48,c),
(425.747,486,ls),
(364.614,418.149,o),
(197,278,o),
(52.407,9.38,c),
(61.997,-0.203,l),
(115.265,33.36,o),
(188.519,56.434,o),
(269.136,56.434,cs),
(369.698,56.434,o),
(461.437,28.438,o),
(539.406,-1.457,c)
);
},
{
closed = 1;
nodes = (
(465.998,330,l),
(550.645,457,l),
(245.636,457,l),
(161.914,330,l)
);
}
);
width = 671;
}
);
unicode = 90;
}
{
glyphname = bracketleft;
layers = (
{
layerId = m001;
shapes = (
{
closed = 1;
nodes = (
(152,0,l),
(152,802,l),
(23,802,l),
(23,0,l)
);
},
{
closed = 1;
nodes = (
(271.475,28.663,l),
(23,28.662,l),
(23,0,l),
(271.429,-0.002,l)
);
},
{
closed = 1;
nodes = (
(271.475,802.001,l),
(23,802,l),
(23,773.338,l),
(271.429,773.336,l)
);
}
);
width = 291;
}
);
unicode = 91;
}
{
glyphname = backslash;
layers = (
{
layerId = m001;
shapes = (
{
closed = 1;
nodes = (
(431.742,-42.764,l),
(109.439,791.996,l),
(-6.195,792,l),
(317.444,-43.33,l)
);
}
);
width = 417;
}
);
unicode = 92;
}
{
glyphname = bracketright;
layers = (
{
layerId = m001;
shapes = (
{
closed = 1;
nodes = (
(271.475,0,l),
(271.475,802,l),
(142.475,802,l),
(142.475,0,l)
);
},
{
closed = 1;
nodes = (
(271.475,0,l),
(271.475,28.662,l),
(23,28.663,l),
(23.046,-0.002,l)
);
},
{
closed = 1;
nodes = (
(271.475,773.338,l),
(271.475,802,l),
(23,802.001,l),
(23.046,773.336,l)
);
}
);
width = 291;
}
);
unicode = 93;
}
{
glyphname = asciicircum;
layers = (
{
layerId = m001;
shapes = (
{
closed = 1;
nodes = (
(543.644,559.968,l),
(308.689,775.523,l),
(38.039,501,l),
(64,477,l),
(248.193,663.548,l),
(451.262,476.262,l)
);
}
);
width = 564;
}
);
unicode = 94;
}
{
glyphname = underscore;
layers = (
{
layerId = m001;
shapes = (
{
closed = 1;
nodes = (
(781.151,-1,l),
(108,0,l),
(10.849,-107,l),
(684,-108,l)
);
}
);
width = 797;
}
);
unicode = 95;
}
{
glyphname = grave;
layers = (
{
layerId = m001;
shapes = (
{
closed = 1;
nodes = (
(200.667,551,l),
(115,726.667,l),
(63.667,687,l),
(192,544.333,l)
);
}
);
width = 280;
}
);
unicode = 96;
}
{
glyphname = a;
layers = (
{
anchors = (
{
name = ogonek;
pos = (395.658,84);
},
{
name = top;
pos = (268,556);
}
);
layerId = m001;
shapes = (
{
closed = 1;
nodes = (
(494.468,90.811,l),
(489.729,110.029,l),
(446.594,81.29,l),
(398.656,129.221,l),
(398.656,408.971,l),
(245.264,507.905,l),
(135.014,450.383,ls),
(105.448,434.957,o),
(72.538,409.85,o),
(72.538,365.852,cs),
(72.538,278.098,o),
(200.843,252.613,o),
(285.253,233.125,c),
(285.253,262.875,l),
(219.804,277.985,o),
(101.449,303.79,o),
(101.449,371.677,cs),
(101.449,398,o),
(126.554,416.343,o),
(156,432,c),
(274.026,359.308,l),
(274.024,76.62,l),
(355.276,-4.775,l)
);
},
{
closed = 1;
nodes = (
(279.669,72.292,l),
(278.819,86.079,l),
(270.721,82.82,o),
(261.992,81.181,o),
(253.263,81.181,cs),
(191.167,81.181,o),
(159.621,160.942,o),
(159.621,217.685,cs),
(159.621,242.509,o),
(170,264,o),
(178.335,270.333,c),
(165.794,276.786,l),
(84.142,236.356,o),
(38.658,183.028,o),
(38.658,126.765,cs),
(38.658,52.019,o),
(109.996,3.255,o),
(173.364,-5,c)
);
},
{
closed = 1;
nodes = (
(450.835,423.715,l),
(433.198,445.463,l),
(373.911,397.382,l),
(391.548,375.635,l)
);
}
);
width = 490;
}
);
unicode = 97;
}
{
glyphname = b;
layers = (
{
layerId = m001;
shapes = (
{
closed = 1;
nodes = (
(432.131,117.7,l),
(432.131,414,l),
(330.131,509.5,l),
(183.131,413.5,l),
(186.131,382.667,l),
(249.131,423.667,l),
(309.131,361,l),
(309.131,72.5,l),
(204.131,134,l),
(204.131,766.753,l),
(184.957,766.753,l),
(21.979,651.71,l),
(21.98,637.33,l),
(62.72,625.021,o),
(69.914,608.354,o),
(69.914,584.601,cs),
(69.914,119.221,l),
(2.805,76.079,l),
(17.186,56.905,l),
(55.533,80.872,l),
(206.501,-10.282,l)
);
}
);
width = 478;
}
);
unicode = 98;
}
{
glyphname = c;
layers = (
{
anchors = (
{
name = cedilla;
pos = (162.826,-4);
},
{
name = top;
pos = (242.826,576);
}
);
layerId = m001;
shapes = (
{
closed = 1;
nodes = (
(218.826,0,l),
(365.993,129.167,l),
(352.993,146.667,l),
(295.326,105,l),
(266.427,105.696,o),
(212.114,119.28,o),
(182.326,174,c),
(182.326,434,l),
(271.326,360,l),
(366.326,432,l),
(260.326,517,l),
(53.826,401.878,l),
(53.826,102.878,l),
(204.826,0,l)
);
}
);
width = 367;
}
);
unicode = 99;
}
{
glyphname = d;
layers = (
{
anchors = (
{
name = top;
pos = (267.588,680);
}
);
layerId = m001;
shapes = (
{
closed = 1;
nodes = (
(418.089,120.5,l),
(418.589,419.973,l),
(61.85,733.844,l),
(61.839,554.5,l),
(82.256,557.975,l),
(289.589,369.167,l),
(289.591,68.661,l),
(183.589,142.375,l),
(183.589,476.668,l),
(54.588,397.334,l),
(54.59,89.918,l),
(198.839,-9,l)
);
},
{
closed = 1;
nodes = (
(461.339,438.618,l),
(443.702,460.366,l),
(384.415,412.285,l),
(402.052,390.538,l)
);
}
);
width = 475;
}
);
unicode = 100;
}
{
glyphname = e;
layers = (
{
anchors = (
{
name = ogonek;
pos = (223.801,68);
},
{
name = top;
pos = (236.801,572);
}
);
layerId = m001;
shapes = (
{
closed = 1;
nodes = (
(423.187,157.981,l),
(408.807,181.949,l),
(298.557,95.666,l),
(178.719,177.155,l),
(178.719,425.21,l),
(197.894,436.003,l),
(279.176,318.372,l),
(137.671,228.718,l),
(137.671,194.75,l),
(394.426,354.515,l),
(394.426,359.308,l),
(293.763,512.699,l),
(54.089,388.068,l),
(54.089,111.253,l),
(217.067,-9.79,l)
);
},
{
closed = 1;
nodes = (
(83.725,112.589,l),
(66.088,134.337,l),
(6.801,86.256,l),
(24.438,64.509,l)
);
}
);
width = 426;
}
);
unicode = 101;
}
{
glyphname = f;
layers = (
{
layerId = m001;
shapes = (
{
closed = 1;
nodes = (
(206.326,678,l),
(315.444,609.5,l),
(438.806,678.667,l),
(304.944,761.5,l),
(82.108,635.5,l),
(82.108,129.222,l),
(206.326,119.633,l)
);
},
{
closed = 1;
nodes = (
(310.826,71,l),
(296.446,90.174,l),
(263.326,72.25,l),
(206.326,119.633,l),
(206.326,619,l),
(187.152,619,l),
(34.174,455.609,l),
(34.176,441.229,l),
(55,441.229,o),
(82.109,432.395,o),
(82.109,393.5,cs),
(82.109,129.221,l),
(15,86.079,l),
(29.381,66.905,l),
(67.728,90.872,l),
(173.186,-0.203,l)
);
},
{
closed = 1;
nodes = (
(288.326,449,l),
(335.222,504,l),
(140.722,504,l),
(93.826,449,l)
);
}
);
width = 331;
}
);
unicode = 102;
}
{
glyphname = g;
layers = (
{
anchors = (
{
name = cedilla;
pos = (191.342,-168);
},
{
name = top;
pos = (295.342,568);
}
);
layerId = m001;
shapes = (
{
closed = 1;
nodes = (
(379.452,-53,ls),
(405.355,-34.721,o),
(448.084,-23.754,o),
(448.084,19.611,cs),
(448.084,56.87,o),
(419.372,56.254,o),
(419.372,138.81,cs),
(419.376,409.736,l),
(275.572,517.492,l),
(50.278,388.068,l),
(50.278,100.46,l),
(194.083,-0.203,l),
(306.452,77.5,l),
(170.115,162.775,l),
(170.115,426.096,l),
(285.158,349.4,l),
(284.452,102.5,ls),
(284.194,13.339,o),
(321.941,4.885,o),
(321.941,-41.724,cs),
(321.941,-65.866,o),
(306.844,-83.883,o),
(285.162,-86.49,c),
(253.378,-53.139,o),
(207.57,-33.655,o),
(161.524,-33.655,cs),
(83.795,-33.655,o),
(24.592,-84.909,o),
(2.342,-144.01,c),
(16.722,-153.594,l),
(38.224,-137.326,o),
(65.195,-128.579,o),
(92.131,-128.579,cs),
(138.999,-128.579,o),
(173.237,-151.679,o),
(194.536,-183.5,c)
);
},
{
closed = 1;
nodes = (
(467.115,431.742,l),
(449.479,453.49,l),
(390.191,405.409,l),
(407.828,383.662,l)
);
}
);
width = 488;
}
);
unicode = 103;
}
{
glyphname = h;
layers = (
{
layerId = m001;
shapes = (
{
closed = 1;
nodes = (
(309.793,86.079,l),
(291.862,108.625,l),
(260.812,87.039,l),
(228.305,119.633,l),
(228.305,766.753,l),
(209.13,766.753,l),
(46.152,651.71,l),
(46.154,637.33,l),
(94.064,622.747,o),
(94.088,600.872,o),
(94.088,584.601,cs),
(94.088,129.221,l),
(26.979,86.079,l),
(44.016,63.033,l),
(82.362,87,l),
(185.163,-0.203,l)
);
},
{
closed = 1;
nodes = (
(438,-112.676,o),
(472.78,11,o),
(472.771,114,cs),
(472.748,412.5,l),
(352.936,512.699,l),
(217.834,386.167,l),
(217.834,356.25,l),
(283.902,418.128,l),
(343.349,368.895,l),
(343.349,114,ls),
(343.349,10.779,o),
(307,-86.49,o),
(233.095,-86.49,c),
(233.095,-110.45,l),
(243.359,-111.937,o),
(253.731,-112.676,o),
(264.104,-112.676,cs)
);
},
{
closed = 1;
nodes = (
(515.779,434.503,l),
(498.143,456.251,l),
(438.855,408.17,l),
(456.492,386.423,l)
);
}
);
width = 526;
}
);
unicode = 104;
}
{
glyphname = i;
layers = (
{
layerId = m001;
shapes = (
{
closed = 1;
nodes = (
(323.504,95.666,l),
(299.537,114.84,l),
(256.396,86.079,l),
(222.842,119.633,l),
(222.842,421.622,l),
(146.146,512.699,l),
(11.929,421.622,l),
(26.31,402.449,l),
(64.657,426.416,l),
(98.211,383.275,l),
(98.211,119.633,l),
(35.897,76.492,l),
(50.276,57.318,l),
(83.831,81.286,l),
(179.7,-4.997,l)
);
},
{
closed = 1;
nodes = (
(246.935,634.405,l),
(161.7,731.479,l),
(66.189,647.614,l),
(151.425,550.542,l)
);
}
);
width = 309;
}
);
unicode = 105;
}
{
glyphname = j;
layers = (
{
layerId = m001;
shapes = (
{
closed = 1;
nodes = (
(94.55,-179.147,o),
(208.551,-135.046,o),
(212.575,26,cs),
(214.913,119.633,l),
(214.913,421.622,l),
(138.218,512.699,l),
(4,421.622,l),
(18.381,402.449,l),
(56.728,426.416,l),
(90.282,383.275,l),
(90.285,41,ls),
(90.286,-79,o),
(82,-151,o),
(12.575,-151,c),
(12.575,-179,l),
(15.106,-179.099,o),
(17.641,-179.147,o),
(20.174,-179.147,cs)
);
},
{
closed = 1;
nodes = (
(256.575,441.003,l),
(238.938,462.751,l),
(179.651,414.67,l),
(197.288,392.923,l)
);
},
{
closed = 1;
nodes = (
(239.006,634.405,l),
(153.771,731.479,l),
(58.26,647.614,l),
(143.496,550.542,l)
);
}
);
width = 278;
}
);
unicode = 106;
}
{
glyphname = k;
layers = (
{
anchors = (
{
name = cedilla;
pos = (104,112);
}
);
layerId = m001;
shapes = (
{
closed = 1;
nodes = (
(297.815,86.079,l),
(283.436,105.253,l),
(254.674,81.286,l),
(216.326,119.633,l),
(216.326,766.753,l),
(197.152,766.753,l),
(34.174,651.71,l),
(34.176,637.33,l),
(59.964,629.48,o),
(82.109,618.771,o),
(82.109,584.601,cs),
(82.109,129.221,l),
(15,86.079,l),
(29.381,66.905,l),
(67.728,90.872,l),
(173.186,-0.203,l)
);
},
{
closed = 1;
nodes = (
(585.599,90.872,l),
(566.425,114.84,l),
(523.286,86.08,l),
(326.75,378.481,l),
(336.336,397.65,l),
(356.764,378.775,o),
(383.378,364.322,o),
(419.365,364.322,cs),
(500.126,364.322,o),
(532.052,436.948,o),
(542.456,507.9,c),
(523.286,507.9,l),
(511.979,487.211,o),
(488.843,469.52,o),
(458.621,469.52,cs),
(428.361,469.52,o),
(405.173,487.192,o),
(393.856,507.9,c),
(384.271,507.905,l),
(235.675,277.818,l),
(432.207,-9.79,l)
);
}
);
width = 577;
}
);
unicode = 107;
}
{
glyphname = l;
layers = (
{
anchors = (
{
name = cedilla;
pos = (100,116);
},
{
name = middledot;
pos = (340,375);
},
{
name = top;
pos = (160,816);
}
);
layerId = m001;
shapes = (
{
closed = 1;
nodes = (
(297.815,86.079,l),
(283.436,105.253,l),
(254.674,81.286,l),
(216.326,119.633,l),
(216.326,766.753,l),
(197.152,766.753,l),
(34.174,651.71,l),
(34.176,637.33,l),
(78,623,o),
(82.109,612,o),
(82.109,564.601,cs),
(82.109,129.221,l),
(15,86.079,l),
(29.381,66.905,l),
(67.728,90.872,l),
(173.186,-0.203,l)
);
}
);
width = 287;
}
);
unicode = 108;
}
{
glyphname = m;
layers = (
{
anchors = (
{
name = top;
pos = (380,564);
}
);
layerId = m001;
shapes = (
{
closed = 1;
nodes = (
(780.987,81.669,l),
(780.324,118.333,l),
(737.324,86,l),
(690.588,133.666,l),
(690.588,419.666,l),
(585.957,509.905,l),
(404.824,396.833,l),
(430.824,374,l),
(506.18,419.667,l),
(575.544,356.515,l),
(575.544,110.047,l),
(533.555,71.666,l),
(632.654,-14.584,l)
);
},
{
closed = 1;
nodes = (
(268.642,71.699,l),
(225.5,110.047,l),
(225.5,419,l),
(144.011,509.905,l),
(5,414.036,l),
(19.381,394.861,l),
(57.728,418.829,l),
(96.077,375.688,l),
(96.077,110.047,l),
(57.728,76.492,l),
(172.772,-14.584,l)
);
},
{
closed = 1;
nodes = (
(505.514,74.001,l),
(453.588,120.334,l),
(453.588,419.666,l),
(348.957,509.905,l),
(167.824,396.833,l),
(193.824,374,l),
(269.18,419.667,l),
(338.544,356.515,l),
(338.544,110.047,l),
(296.555,71.666,l),
(395.654,-14.584,l)
);
},
{
closed = 1;
nodes = (
(740.011,425.003,l),
(722.374,446.751,l),
(663.087,398.67,l),
(680.724,376.923,l)
);
}
);
width = 781;
}
);
unicode = 109;
}
{
glyphname = n;
layers = (
{
anchors = (
{
name = top;
pos = (262,564);
}
);
layerId = m001;
shapes = (
{
closed = 1;
nodes = (
(556.25,86.079,l),
(537.077,114.84,l),
(498.729,86.079,l),
(455.588,124.427,l),
(455.588,402.833,l),
(330.957,509.905,l),
(175.011,388,l),
(201.011,365.167,l),
(268.642,418.829,l),
(340.544,356.515,l),
(340.544,110.047,l),
(306.99,76.492,l),
(407.654,-14.584,l)
);
},
{
closed = 1;
nodes = (
(268.642,71.699,l),
(225.5,110.047,l),
(225.5,419,l),
(144.011,509.905,l),
(5,414.036,l),
(19.381,394.861,l),
(57.728,418.829,l),
(96.077,375.688,l),
(96.077,110.047,l),
(57.728,76.492,l),
(172.772,-14.584,l)
);
},
{
closed = 1;
nodes = (
(504.011,425.003,l),
(486.374,446.751,l),
(427.087,398.67,l),
(444.724,376.923,l)
);
}
);
width = 557;
}
);
unicode = 110;
}
{
glyphname = o;
layers = (
{
anchors = (
{
name = top;
pos = (256,560);
}
);
layerId = m001;
shapes = (
{
closed = 1;
nodes = (
(435.29,134.015,l),
(435.29,407.242,l),
(291.485,517.492,l),
(66.192,388.068,l),
(66.19,107.181,l),
(214.79,-0.203,l)
);
},
{
closed = 1;
nodes = (
(91.924,115.778,l),
(74.287,137.526,l),
(15,89.445,l),
(32.637,67.698,l)
);
},
{
closed = 1;
nodes = (
(195.615,153.188,l),
(195.615,440.797,l),
(310.659,364.101,l),
(310.659,76.492,l)
);
}
);
width = 472;
}
);
unicode = 111;
}
{
glyphname = p;
layers = (
{
layerId = m001;
shapes = (
{
closed = 1;
nodes = (
(321.888,51.228,o),
(377.589,90.211,o),
(437.333,123.5,c),
(437.333,420,l),
(329.833,514.5,l),
(183.333,405,l),
(188.833,376,l),
(247.333,420.5,l),
(313.333,366,l),
(313.333,69,l),
(249.005,99.56,o),
(181.421,126.803,o),
(110.833,150,c),
(36.333,87,l),
(126.256,76.306,o),
(204.96,46.909,o),
(271.333,8,c)
);
},
{
closed = 1;
nodes = (
(106.833,-174,l),
(249.833,-88,l),
(249.831,-73.62,l),
(216.575,-68.672,o),
(203.833,-42.053,o),
(203.833,-3.5,cs),
(203.833,438.833,l),
(188.18,469.508,o),
(164.619,495.19,o),
(136.333,513.333,c),
(15,432,l),
(25.666,416.333,l),
(32.271,420.988,o),
(40.332,423.539,o),
(48.411,423.539,cs),
(79,423.539,o),
(87.663,396,o),
(87.663,380,cs),
(87.663,-174,l)
);
},
{
closed = 1;
nodes = (
(474.704,432.385,l),
(457.067,454.133,l),
(397.78,406.052,l),
(415.417,384.305,l)
);
}
);
width = 480;
}
);
unicode = 112;
}
{
glyphname = q;
layers = (
{
anchors = (
{
name = top;
pos = (298.291,572);
}
);
layerId = m001;
shapes = (
{
closed = 1;
nodes = (
(300.465,-170.753,l),
(463.443,-55.71,l),
(463.441,-41.33,l),
(422.614,-28.902,o),
(415.508,-12.512,o),
(415.508,11.399,cs),
(415.508,386.779,l),
(482.617,429.921,l),
(468.236,449.095,l),
(429.89,425.128,l),
(278.921,516.282,l),
(53.291,388.3,l),
(53.291,92,l),
(155.291,-3.5,l),
(302.291,92.5,l),
(299.291,123.333,l),
(236.291,82.333,l),
(176.291,145,l),
(176.291,433.5,l),
(281.291,372,l),
(281.291,-170.753,l)
);
}
);
width = 472;
}
);
unicode = 113;
}
{
glyphname = r;
layers = (
{
anchors = (
{
name = cedilla;
pos = (132,12);
},
{
name = top;
pos = (256,576);
}
);
layerId = m001;
shapes = (
{
closed = 1;
nodes = (
(338.059,103,l),
(319.375,125.334,l),
(265.392,88.5,l),
(225.913,119.633,l),
(225.913,421.622,l),
(141.218,512.699,l),
(7,421.622,l),
(21.381,402.449,l),
(59.728,426.416,l),
(93.282,383.275,l),
(93.282,119.633,l),
(30.968,76.492,l),
(45.348,57.318,l),
(78.902,81.286,l),
(188.771,-4.997,l)
);
},
{
closed = 1;
nodes = (
(345,373.303,o),
(403,389,o),
(414.726,513,c),
(384.892,513,l),
(376.305,499.605,o),
(360.356,488.302,o),
(339.693,488.302,cs),
(321.189,488.302,o),
(304.133,498.062,o),
(294.559,513,c),
(284.226,513,l),
(211.392,430.333,l),
(247.198,386.567,o),
(290.044,373.303,o),
(315.257,373.303,cs)
);
}
);
width = 403;
}
);
unicode = 114;
}
{
glyphname = s;
layers = (
{
anchors = (
{
name = cedilla;
pos = (186.319,0);
},
{
name = top;
pos = (250.319,560);
}
);
layerId = m001;
shapes = (
{
closed = 1;
nodes = (
(101.341,-25.877,l),
(77.241,-14.426,o),
(58.192,9.824,o),
(58.192,44.088,cs),
(58.192,102.912,o),
(121.967,154.734,o),
(185.388,209.21,cs),
(310.298,316.5,ls),
(373.448,370.742,o),
(398.577,429.574,o),
(406.798,510,c),
(378.548,510,l),
(368.599,414.382,o),
(328.764,369.259,o),
(292.461,338.08,cs),
(167.547,230.79,ls),
(51.454,131.073,o),
(29.32,89.416,o),
(29.32,41.185,cs),
(29.32,-5.762,o),
(57.089,-38.778,o),
(91.589,-52.123,c)
);
},
{
closed = 1;
nodes = (
(101.341,-25.877,l),
(93.338,-21.346,o),
(87.096,-12.93,o),
(87.096,-1.047,cs),
(87.096,23.352,o),
(110.84,36.775,o),
(134.246,36.775,cs),
(169.703,36.775,o),
(194.821,13.917,o),
(208.298,-10,c),
(405.732,110,l),
(405.731,261,l),
(313.51,329.286,l),
(213.51,246.286,l),
(276.732,195.938,l),
(276.734,65.667,l),
(258.275,106.265,o),
(217.19,142.538,o),
(159.949,142.538,cs),
(99.651,142.538,o),
(50.923,97.099,o),
(50.923,38.648,cs),
(50.923,13.968,o),
(60.23,-10.679,o),
(76.798,-29,c)
);
},
{
closed = 1;
nodes = (
(227.298,266.167,l),
(177.464,317.062,l),
(177.462,447.333,l),
(197.958,396.436,o),
(241.664,373.754,o),
(285.008,373.754,cs),
(354.735,373.754,o),
(411.729,428.477,o),
(398.631,505,c),
(378.173,510,l),
(375.614,486.3,o),
(354.369,468.312,o),
(328.128,468.312,cs),
(294.337,468.312,o),
(269.616,490.604,o),
(255.131,512,c),
(48.465,392,l),
(48.465,252,l),
(132.129,186,l)
);
}
);
width = 436;
}
);
unicode = 115;
}
{
glyphname = t;
layers = (
{
anchors = (
{
name = top;
pos = (197.665,630);
}
);
layerId = m001;
shapes = (
{
closed = 1;
nodes = (
(316.491,70,l),
(302.111,89.174,l),
(268.991,71.25,l),
(221.991,118.633,l),
(221.991,594,l),
(202.817,594,l),
(39.839,430.609,l),
(39.841,416.229,l),
(60,416.229,o),
(87.774,407.395,o),
(87.774,368.5,cs),
(87.774,128.221,l),
(20.665,85.079,l),
(35.046,65.905,l),
(73.394,89.872,l),
(178.851,-1.203,l)
);
},
{
closed = 1;
nodes = (
(293.991,424,l),
(340.887,479,l),
(146.387,479,l),
(99.491,424,l)
);
}
);
width = 343;
}
);
unicode = 116;
}
{
glyphname = u;
layers = (
{
anchors = (
{
name = ogonek;
pos = (468,12);
},
{
name = top;
pos = (280,572);
}
);
layerId = m001;
shapes = (
{
closed = 1;
nodes = (
(341.333,110,l),
(341.333,138.5,l),
(273.833,88.5,l),
(211.065,148,l),
(211.065,388.5,ls),
(211.065,454,o),
(179.175,491.105,o),
(132,508.667,c),
(3,425.333,l),
(13.19,411,l),
(22.889,419.08,o),
(35.315,427.569,o),
(51.624,427.569,cs),
(81.7,427.569,o),
(91.643,401.428,o),
(91.643,370.983,cs),
(91.643,370.885,o),
(91.643,370.787,o),
(91.643,370.688,cs),
(91.583,136,l),
(60.083,110,l),
(196.333,-4,l)
);
},
{
closed = 1;
nodes = (
(519.333,80.5,l),
(500.833,105.5,l),
(463.669,75,l),
(444.001,88.464,o),
(437.08,113.213,o),
(436.688,143.5,cs),
(436.153,185,l),
(436.153,447,l),
(363.19,510,l),
(269.19,423.5,l),
(321.112,377.51,l),
(321.109,172,l),
(321.19,121.5,ls),
(321.321,40,o),
(358,0,o),
(399.333,-2,c)
);
},
{
closed = 1;
nodes = (
(479.294,457.622,l),
(461.657,479.37,l),
(402.37,431.289,l),
(420.007,409.542,l)
);
}
);
width = 521;
}
);
unicode = 117;
}
{
glyphname = v;
layers = (
{
layerId = m001;
shapes = (
{
closed = 1;
nodes = (
(461.961,122.586,l),
(375.121,104.002,l),
(308.458,65.167,l),
(218.291,122.586,l),
(218.493,332.5,ls),
(218.552,392.076,o),
(211.928,430.333,o),
(179.951,459.5,cs),
(152.003,484.992,o),
(98.178,502.087,o),
(98.178,547.734,cs),
(98.178,574.71,o),
(119.308,592.505,o),
(141.554,598.936,c),
(136.66,618,l),
(113.797,615.958,o),
(91.33,609.272,o),
(71.183,598.272,cs),
(39.134,580.773,o),
(4.011,547.328,o),
(4.011,500.177,cs),
(4.011,455.838,o),
(37.217,431.339,o),
(60.377,407.356,cs),
(86.927,379.863,o),
(93.66,364,o),
(93.66,290,cs),
(93.66,70.908,l),
(232.607,-14.162,l)
);
},
{
closed = 1;
nodes = (
(125.583,91.333,l),
(107.946,113.081,l),
(48.659,65,l),
(66.296,43.253,l)
);
},
{
closed = 1;
nodes = (
(461.961,122.586,l),
(462.163,394.083,l),
(499.288,424.25,l),
(397.788,513.25,l),
(293.038,426.5,l),
(337.33,386.275,l),
(337.33,70.908,l)
);
}
);
width = 514;
}
);
unicode = 118;
}
{
glyphname = w;
layers = (
{
anchors = (
{
name = top;
pos = (450.68,560);
}
);
layerId = m001;
shapes = (
{
closed = 1;
nodes = (
(367.017,71,l),
(355.726,104.002,l),
(299.017,70.75,l),
(219.961,122.586,l),
(220.163,322.5,ls),
(220.259,417.78,o),
(210,444,o),
(148.702,483.342,cs),
(127.782,496.768,o),
(99.848,515.343,o),
(99.848,547.734,cs),
(99.848,574.71,o),
(120.978,592.505,o),
(143.224,598.936,c),
(138.33,618,l),
(62.243,611.204,o),
(5.681,556.853,o),
(5.681,500.177,cs),
(5.681,455.838,o),
(38.887,431.339,o),
(62.047,407.356,cs),
(85.207,383.374,o),
(95.33,363,o),
(95.33,314,cs),
(95.33,70.908,l),
(213.211,-14.162,l)
);
},
{
closed = 1;
nodes = (
(127.253,91.333,l),
(109.616,113.081,l),
(50.329,65,l),
(67.966,43.253,l)
);
},
{
closed = 1;
nodes = (
(589.62,71,l),
(578.329,104.002,l),
(521.62,70.75,l),
(442.565,122.586,l),
(442.767,394.083,l),
(479.892,424.25,l),
(378.392,513.25,l),
(273.642,426.5,l),
(317.935,386.275,l),
(317.935,70.908,l),
(435.815,-14.162,l)
);
},
{
closed = 1;
nodes = (
(667.917,108.979,l),
(668.12,456.81,l),
(603.745,513.25,l),
(498.995,426.5,l),
(543.288,386.275,l),
(543.288,70.908,l),
(452.954,30.667,l),
(435.815,-14.162,l)
);
},
{
closed = 1;
nodes = (
(727.12,471.307,l),
(709.483,493.055,l),
(650.198,444.974,l),
(667.835,423.227,l)
);
}
);
width = 716;
}
);
unicode = 119;
}
{
glyphname = x;
layers = (
{
layerId = m001;
shapes = (
{
closed = 1;
nodes = (
(512.981,97.95,l),
(485.731,123,l),
(455.801,97.555,o),
(440.842,91.215,o),
(430.257,91.215,cs),
(413.692,91.215,o),
(406.135,103.418,o),
(400.731,115,cs),
(233.731,473,l),
(154.231,520.5,l),
(27.231,435,l),
(42.981,411.083,l),
(55.667,419.127,o),
(68.764,431.974,o),
(88.226,431.974,cs),
(109.125,431.974,o),
(118.978,415.972,o),
(125.648,401,cs),
(276.648,62,l),
(372.814,0,l)
);
},
{
closed = 1;
nodes = (
(56.231,6.917,l),
(67.294,20.949,o),
(84.857,32.151,o),
(108.343,32.151,cs),
(130.732,32.151,o),
(148.358,22.083,o),
(160.315,6.917,c),
(170.648,6.917,l),
(210.648,124.5,l),
(191.226,135.247,o),
(166.829,145.19,o),
(138.732,145.19,cs),
(65.149,145.19,o),
(39.104,76.059,o),
(34.898,6.917,c)
);
},
{
closed = 1;
nodes = (
(368.106,510.375,l),
(344.481,510.375,l),
(182.481,109,l),
(170.981,7,l)
);
},
{
closed = 0;
nodes = (
(310.606,395.5,ls)
);
},
{
closed = 1;
nodes = (
(464.174,371.604,o),
(479.496,445.8,o),
(488.439,510.283,c),
(458.606,510.283,l),
(450.019,496.886,o),
(434.068,485.586,o),
(413.404,485.586,cs),
(394.902,485.586,o),
(377.847,495.347,o),
(368.273,510.283,c),
(357.939,510.283,l),
(310.606,395.5,l),
(332.677,383.893,o),
(359.254,371.604,o),
(390.534,371.604,cs)
);
}
);
width = 531;
}
);
unicode = 120;
}
{
glyphname = y;
layers = (
{
anchors = (
{
name = top;
pos = (285.927,568);
}
);
layerId = m001;
shapes = (
{
closed = 1;
nodes = (
(425.177,-53,ls),
(451.295,-34.569,o),
(493.809,-24.227,o),
(493.809,19.608,cs),
(493.809,56.868,o),
(465.097,56.252,o),
(465.097,138.81,cs),
(465.101,402.827,l),
(374.21,510.349,l),
(277.672,444.827,l),
(331.46,380.896,l),
(332.177,102.5,ls),
(332.438,2.762,o),
(367.335,6.212,o),
(367.335,-42.661,cs),
(367.335,-66.41,o),
(352.42,-84.241,o),
(330.887,-86.49,c),
(299.103,-53.139,o),
(253.295,-33.655,o),
(207.25,-33.655,cs),
(129.425,-33.655,o),
(70.334,-84.863,o),
(48.066,-144.01,c),
(62.446,-153.594,l),
(83.95,-137.326,o),
(110.92,-128.579,o),
(137.857,-128.579,cs),
(184.739,-128.579,o),
(218.962,-151.679,o),
(240.261,-183.5,c)
);
},
{
closed = 1;
nodes = (
(352.177,77.5,l),
(215.84,162.775,l),
(215.84,418.923,l),
(139.145,510,l),
(4.927,418.923,l),
(19.308,399.75,l),
(59.297,424.494,l),
(96.003,380.896,l),
(96.003,100.46,l),
(239.808,-0.203,l)
);
}
);
width = 518;
}
);
unicode = 121;
}
{
glyphname = z;
layers = (
{
anchors = (
{
name = top;
pos = (207.316,564);
}
);
layerId = m001;
shapes = (
{
closed = 1;
nodes = (
(58.517,26.623,o),
(99.316,42.649,o),
(155.419,42.649,cs),
(217.643,42.649,o),
(269.903,25.126,o),
(316.309,4.59,c),
(421.766,134.015,l),
(407.386,143.601,l),
(378.624,110.047,l),
(329.122,135.487,o),
(278.703,149.104,o),
(217.283,149.104,cs),
(182.692,149.104,o),
(148.1,144.015,o),
(114.986,134.01,c),
(145.496,171.5,ls),
(231.746,277.481,o),
(333.258,371.137,o),
(402.597,493.52,c),
(393.007,507.9,l),
(356.264,483.128,o),
(307.501,474.285,o),
(255.058,474.285,cs),
(192.017,474.285,o),
(144.347,488.835,o),
(95.809,507.905,c),
(19.113,364.101,l),
(38.287,354.515,l),
(62.257,392.86,l),
(101.951,374.363,o),
(140.447,364.349,o),
(190.836,364.349,cs),
(221.957,364.349,o),
(253.079,369.11,o),
(282.757,378.48,c),
(133.49,209,ls),
(81.395,146.157,o),
(35.987,80.297,o),
(14.316,9.38,c),
(23.906,-0.203,l)
);
},
{
closed = 1;
nodes = (
(71.978,215.503,l),
(287.549,215.503,l),
(369.037,311.372,l),
(354.656,325.753,l),
(331.478,301.786,l),
(114.982,301.786,l),
(33.493,205.916,l),
(47.874,191.536,l)
);
}
);
width = 432;
}
);
unicode = 122;
}
{
glyphname = braceleft;
layers = (
{
layerId = m001;
shapes = (
{
closed = 1;
nodes = (
(295,1.622,l),
(295,12.947,l),
(162.556,123.905,o),
(279.754,309.097,o),
(149.446,385.808,c),
(275.793,504.923,o),
(153.14,686.9,o),
(295,755.867,c),
(295,767.192,l),
(166,767.192,l),
(24.206,698.257,o),
(149.312,504.68,o),
(12.5,390.07,c),
(12.5,378.745,l),
(154.295,309.81,o),
(29.192,116.237,o),
(166,1.622,c)
);
}
);
width = 320;
}
);
unicode = 123;
}
{
glyphname = bar;
layers = (
{
layerId = m001;
shapes = (
{
closed = 1;
nodes = (
(136,92,l),
(136,761,l),
(29,663.849,l),
(29,-5.151,l)
);
}
);
width = 164;
}
);
unicode = 124;
}
{
glyphname = braceright;
layers = (
{
layerId = m001;
shapes = (
{
closed = 1;
nodes = (
(141.5,1.622,l),
(278.309,116.237,o),
(153.205,309.81,o),
(295,378.745,c),
(295,390.07,l),
(158.188,504.68,o),
(283.294,698.257,o),
(141.5,767.192,c),
(12.5,767.192,l),
(12.5,755.867,l),
(154.36,686.899,o),
(31.707,504.923,o),
(158.054,385.808,c),
(27.746,309.097,o),
(144.943,123.905,o),
(12.5,12.947,c),
(12.5,1.622,l)
);
}
);
width = 320;
}
);
unicode = 125;
}
{
glyphname = asciitilde;
layers = (
{
layerId = m001;
shapes = (
{
closed = 1;
nodes = (
(82.913,377.088,o),
(114.471,395.375,o),
(158.27,395.375,cs),
(229.514,395.375,o),
(273.042,355.145,o),
(345.524,355.145,cs),
(435.247,355.145,o),
(493.368,414.191,o),
(521.838,478.081,c),
(490.883,491.854,l),
(475.821,464.229,o),
(446.023,447.556,o),
(404.441,447.556,cs),
(331.913,447.556,o),
(280.488,485.707,o),
(208.189,485.707,cs),
(118.133,485.707,o),
(66.77,423.944,o),
(28.857,368.588,c),
(59.812,354.815,l)
);
}
);
width = 535;
}
);
unicode = 126;
}
{
glyphname = exclamdown;
layers = (
{
layerId = m001;
shapes = (
{
closed = 1;
nodes = (
(171.936,-10.878,l),
(128.936,543.875,l),
(100.936,543.875,l),
(54.932,165.875,ls),
(49.13,118.201,o),
(49,96,o),
(15.002,92.147,c),
(15,77.766,l),
(152.762,-10.878,l)
);
},
{
closed = 1;
nodes = (
(198.012,676.877,l),
(108.136,766.753,l),
(16.788,675.407,l),
(106.665,585.529,l)
);
}
);
width = 213;
}
);
unicode = 161;
}
{
glyphname = cent;
layers = (
{
layerId = m001;
shapes = (
{
closed = 1;
nodes = (
(180,0,l),
(327.167,129.167,l),
(314.167,146.667,l),
(256.5,105,l),
(190.319,106.593,o),
(155.035,152.81,o),
(143.5,174,c),
(143.5,434,l),
(232.5,360,l),
(327.5,432,l),
(221.5,517,l),
(15,401.878,l),
(15,102.878,l),
(166,0,l)
);
},
{
closed = 1;
nodes = (
(180.25,-59.253,l),
(180.25,71.6,l),
(152.25,71.6,l),
(152.25,-59.253,l)
);
},
{
closed = 1;
nodes = (
(180.25,440.747,l),
(180.25,571.6,l),
(152.25,571.6,l),
(152.25,440.747,l)
);
}
);
width = 342;
}
);
unicode = 162;
}
{
glyphname = sterling;
layers = (
{
anchors = (
{
name = top;
pos = (579.914,128.271);
}
);
layerId = m001;
shapes = (
{
closed = 1;
nodes = (
(174,109,o),
(187,151,o),
(187,297.271,cs),
(187,511.771,ls),
(187,709.316,o),
(328.182,732.672,o),
(385.613,732.672,cs),
(466.826,732.672,o),
(525.006,689.026,o),
(552.25,660.5,c),
(543.161,664.45,o),
(533.263,666.396,o),
(523.358,666.396,cs),
(481.247,666.396,o),
(450.177,632.332,o),
(450.177,593.811,cs),
(450.177,553.879,o),
(483.573,520.906,o),
(523.578,520.906,cs),
(569.781,520.906,o),
(603.793,561.431,o),
(603.793,607.838,cs),
(603.793,711.471,o),
(479.451,757.572,o),
(367.583,757.572,cs),
(138.571,757.572,o),
(56,566,o),
(56,455.062,cs),
(56,301.675,ls),
(56,193.316,o),
(43.026,109.586,o),
(13,21.271,c),
(25.5,8.771,l)
);
},
{
closed = 1;
nodes = (
(154.561,13.942,o),
(193.311,26.622,o),
(245.869,26.622,cs),
(321.822,26.622,o),
(394.957,-4.254,o),
(470.277,-4.254,cs),
(559.794,-4.254,o),
(625.072,43.164,o),
(651.5,109.271,c),
(598,185.271,l),
(571.446,144.485,o),
(526.244,119.293,o),
(462.661,119.293,cs),
(404.623,119.293,o),
(356.029,135.855,o),
(298.947,135.855,cs),
(280.088,135.855,o),
(261.228,134.27,o),
(242.667,130.938,c),
(349.302,208.682,o),
(362,239.432,o),
(362,293.271,cs),
(362,586,ls),
(362,633.491,o),
(376.652,675.126,o),
(423.787,675.126,cs),
(430.06,675.126,o),
(436.332,674.084,o),
(442.25,672,c),
(461.25,696,l),
(438.004,708.804,o),
(411.465,715.519,o),
(384.936,715.519,cs),
(312.545,715.519,o),
(230,670.12,o),
(230,532.271,cs),
(230,211.271,ls),
(230,126.123,o),
(201.725,88.336,o),
(95,10.271,c),
(117.5,-10.229,l)
);
},
{
closed = 1;
nodes = (
(497.919,367,l),
(500.385,474,l),
(171.385,474,l),
(168.919,367,l)
);
}
);
width = 651;
}
);
unicode = 163;
}
{
glyphname = currency;
layers = (
{
anchors = (
{
name = top;
pos = (256,560);
}
);
layerId = m001;
shapes = (
{
closed = 1;
nodes = (
(435.29,134.015,l),
(435.29,407.242,l),
(291.485,517.492,l),
(66.192,388.068,l),
(66.19,107.181,l),
(214.79,-0.203,l)
);
},
{
closed = 1;
nodes = (
(91.924,115.778,l),
(74.287,137.526,l),
(15,89.445,l),
(32.637,67.698,l)
);
},
{
closed = 1;
nodes = (
(87.75,399.816,l),
(28.463,447.896,l),
(10.826,426.148,l),
(70.113,378.068,l)
);
},
{
closed = 1;
nodes = (
(195.615,153.188,l),
(195.615,440.797,l),
(310.659,364.101,l),
(310.659,76.492,l)
);
},
{
closed = 1;
nodes = (
(489.75,101.816,l),
(430.463,149.896,l),
(412.826,128.15,l),
(472.113,80.068,l)
);
},
{
closed = 1;
nodes = (
(477.924,431.779,l),
(460.287,453.527,l),
(401,405.445,l),
(418.637,383.699,l)
);
}
);
width = 503;
}
);
unicode = 164;
}
{
glyphname = yen;
layers = (
{
layerId = m001;
shapes = (
{
closed = 1;
nodes = (
(521.02,-251.93,o),
(533.48,-248.155,o),
(545.344,-243,cs),
(584.954,-225.786,o),
(626.069,-190.116,o),
(626.069,-134.202,cs),
(626.069,-63.286,o),
(560.615,-27.756,o),
(483.674,-27.756,cs),
(352.467,-27.756,o),
(257.95,-75.515,o),
(192.347,-75.515,cs),
(153.798,-75.515,o),
(116.161,-55.984,o),
(116.161,-15.639,cs),
(116.161,34.302,o),
(170.79,52.795,o),
(218.636,52.795,cs),
(317.139,52.795,o),
(413.9,9.099,o),
(493.974,9.099,cs),
(599,9.099,o),
(619.444,80,o),
(619.344,147,cs),
(618.587,651.75,l),
(513.003,742.75,l),
(362.003,620.5,l),
(362.003,585.75,l),
(425.503,635.75,l),
(479.535,589.187,l),
(479.533,198,ls),
(479.532,86,o),
(438,54.246,o),
(378.909,54.246,cs),
(332.247,54.246,o),
(275.386,82.571,o),
(215.352,82.571,cs),
(114.348,82.571,o),
(46.774,13.011,o),
(46.774,-65.202,cs),
(46.774,-131.696,o),
(97.321,-196.884,o),
(197.508,-196.884,cs),
(288.285,-196.884,o),
(414.191,-153.354,o),
(481.356,-153.354,cs),
(510.022,-153.354,o),
(537.165,-167.001,o),
(537.165,-195.931,cs),
(537.165,-217.014,o),
(521.552,-231.47,o),
(503.52,-235.1,c),
(508.296,-254.259,l)
);
},
{
closed = 1;
nodes = (
(90.69,245.498,l),
(82.841,250.355,o),
(77.651,259.123,o),
(77.651,268.97,cs),
(77.651,294.033,o),
(100.695,301.498,o),
(126.19,301.498,cs),
(158.19,301.5,l),
(160.19,434.498,l),
(152.094,436.102,o),
(143.84,436.902,o),
(135.586,436.902,cs),
(68.978,436.902,o),
(15,386.898,o),
(15,324.106,cs),
(15,276.957,o),
(47.292,241.617,o),
(85.69,231.498,c)
);
},
{
closed = 1;
nodes = (
(283.753,63.5,l),
(283.753,604,ls),
(283.753,687,o),
(241,738.834,o),
(168.882,738.834,cs),
(91.587,738.834,o),
(42.383,678.248,o),
(39.892,613.389,c),
(63.829,613.389,l),
(63.829,644,o),
(78.507,661.396,o),
(105.395,661.396,cs),
(140.711,661.396,o),
(143.329,617.309,o),
(143.329,602,cs),
(143.329,63.5,l)
);
},
{
closed = 1;
nodes = (
(665.555,287.004,l),
(665.555,315.666,l),
(212.176,315.668,l),
(212.222,287.002,l)
);
},
{
closed = 1;
nodes = (
(377.299,40,l),
(377.297,733.333,l),
(348.635,733.333,l),
(348.633,39.954,l)
);
},
{
closed = 1;
nodes = (
(665.555,367.004,l),
(665.555,395.666,l),
(212.176,395.668,l),
(212.222,367.002,l)
);
},
{
closed = 1;
nodes = (
(669.524,664.003,l),
(651.888,685.751,l),
(592.601,637.67,l),
(610.237,615.923,l)
);
}
);
width = 684;
}
);
unicode = 165;
}
{
glyphname = brokenbar;
layers = (
{
layerId = m001;
shapes = (
{
closed = 1;
nodes = (
(136,493,l),
(136,792,l),
(29,694.849,l),
(29,395.849,l)
);
},
{
closed = 1;
nodes = (
(136,92,l),
(136,391,l),
(29,293.849,l),
(29,-5.151,l)
);
}
);
width = 164;
}
);
unicode = 166;
}
{
glyphname = dieresis;
layers = (
{
layerId = m001;
shapes = (
{
closed = 1;
nodes = (
(426.224,609.998,l),
(334.877,701.346,l),
(245,611.468,l),
(336.348,520.122,l)
);
},
{
closed = 1;
nodes = (
(196.224,609.998,l),
(104.877,701.346,l),
(15,611.468,l),
(106.348,520.122,l)
);
}
);
width = 446;
}
);
unicode = 168;
}
{
glyphname = guillemetleft;
layers = (
{
layerId = m001;
shapes = (
{
closed = 1;
nodes = (
(532.807,142.335,o),
(518.238,266.074,o),
(411,366,c),
(448.456,400.902,o),
(527.669,490.503,o),
(535,632,c),
(515.439,601.27,o),
(431.031,468.238,o),
(265,366,c),
(329.368,326.363,o),
(440.359,248.678,o),
(535,100,c)
);
},
{
closed = 1;
nodes = (
(292.807,142.335,o),
(278.238,266.074,o),
(171,366,c),
(208.456,400.902,o),
(287.669,490.503,o),
(295,632,c),
(275.439,601.27,o),
(191.031,468.238,o),
(25,366,c),
(89.368,326.363,o),
(200.359,248.678,o),
(295,100,c)
);
}
);
width = 570;
}
);
unicode = 171;
}
{
glyphname = logicalnot;
layers = (
{
layerId = m001;
shapes = (
{
closed = 1;
nodes = (
(365.215,457,l),
(366.215,134.027,l),
(473.215,134.027,l),
(472.215,457,l)
);
},
{
closed = 1;
nodes = (
(472,457,l),
(137,457,l),
(15,320,l),
(29,306,l),
(53,330,l),
(388,330,l)
);
}
);
width = 494;
}
);
unicode = 172;
}
{
glyphname = macron;
layers = (
{
layerId = m001;
shapes = (
{
closed = 1;
nodes = (
(417.986,669,l),
(145.013,670,l),
(145.013,563,l),
(417.986,562,l)
);
}
);
width = 562;
}
);
unicode = 175;
}
{
glyphname = plusminus;
layers = (
{
layerId = m001;
shapes = (
{
closed = 1;
nodes = (
(346,198,l),
(346,313,l),
(453.166,313,l),
(550.318,420,l),
(346,420,l),
(346,637,l),
(239,539.849,l),
(239,420,l),
(131.318,420,l),
(34.166,313,l),
(239,313,l),
(239,100.849,l)
);
},
{
closed = 1;
nodes = (
(453.166,-47,l),
(550.318,60,l),
(131.318,60,l),
(34.166,-47,l)
);
}
);
width = 574;
}
);
unicode = 177;
}
{
glyphname = acute;
layers = (
{
layerId = m001;
shapes = (
{
closed = 1;
nodes = (
(200.667,687,l),
(149.334,726.667,l),
(63.667,551,l),
(72.334,544.333,l)
);
}
);
width = 280;
}
);
unicode = 180;
}
{
glyphname = micro;
layers = (
{
layerId = m001;
shapes = (
{
closed = 1;
nodes = (
(209.07,-145,l),
(209.069,7.584,l),
(320.671,95.326,l),
(325.358,46.948,o),
(349.417,4.343,o),
(397.333,-2,c),
(517.333,80.5,l),
(498.833,105.5,l),
(461.669,75,l),
(442.001,88.464,o),
(435.08,113.213,o),
(434.688,143.5,cs),
(434.153,185,l),
(434.153,424.068,l),
(477.294,457.622,l),
(462.913,476.797,l),
(427.94,452.5,l),
(361.19,510,l),
(267.19,423.5,l),
(319.112,377.51,l),
(319.109,172,l),
(319.19,141.5,ls),
(319.206,135.56,o),
(319.21,129.605,o),
(319.293,123.654,c),
(271.834,88.499,l),
(209.067,147.998,l),
(209.067,192.599,o),
(209.066,237.199,o),
(209.066,281.8,cs),
(209.066,388.5,ls),
(209.066,452.75,o),
(177.176,491.105,o),
(130,508.667,c),
(11,425.333,l),
(21.19,411,l),
(29.748,418.128,o),
(43.794,427.63,o),
(59.412,427.63,cs),
(89.746,427.63,o),
(99.643,401.313,o),
(99.643,370.733,cs),
(99.584,85,l),
(99.584,-145,l)
);
}
);
width = 532;
}
);
unicode = 181;
}
{
glyphname = paragraph;
layers = (
{
anchors = (
{
name = top;
pos = (364,856);
}
);
layerId = m001;
shapes = (
{
closed = 1;
nodes = (
(481,-174.235,o),
(578.913,-40,o),
(578.913,263,cs),
(578.913,559,ls),
(578.913,665,o),
(595,709,o),
(620.913,753,c),
(608.413,765.5,l),
(464,656,o),
(446.913,639,o),
(446.913,477,cs),
(446.913,72.5,ls),
(446.913,-103.272,o),
(329.175,-151.15,o),
(255.596,-151.15,cs),
(188.244,-151.15,o),
(140.102,-114.253,o),
(117.413,-65,c),
(126.916,-69.488,o),
(137.423,-71.829,o),
(147.93,-71.829,cs),
(188.503,-71.829,o),
(219.429,-40.57,o),
(219.429,-0.013,cs),
(219.429,41.183,o),
(184.123,74.502,o),
(142.981,74.502,cs),
(92.218,74.502,o),
(55.065,29.884,o),
(55.065,-21.529,cs),
(55.065,-102.656,o),
(137.203,-174.235,o),
(261.893,-174.235,cs)
);
},
{
closed = 1;
nodes = (
(335.438,-101.629,o),
(403.913,-49.259,o),
(403.913,52,cs),
(403.913,563,ls),
(403.913,638.329,o),
(419.593,676.723,o),
(538.913,764,c),
(516.413,785,l),
(318.957,785,ls),
(120,785,o),
(13.178,663.793,o),
(13.178,528.173,cs),
(13.178,392.553,o),
(123.711,287.446,o),
(255.819,287.446,cs),
(261.186,287.446,o),
(266.555,287.629,o),
(271.913,288,c),
(271.913,-30,ls),
(271.913,-66.396,o),
(252.055,-86.167,o),
(223.913,-94,c),
(223.913,-127,l)
);
}
);
width = 634;
}
);
unicode = 182;
}
{
glyphname = guillemetright;
layers = (
{
layerId = m001;
shapes = (
{
closed = 1;
nodes = (
(359.642,248.678,o),
(470.632,326.363,o),
(535,366,c),
(368.969,468.238,o),
(284.562,601.27,o),
(265,632,c),
(272.331,490.503,o),
(351.544,400.902,o),
(389,366,c),
(281.763,266.073,o),
(267.193,142.335,o),
(265,100,c)
);
},
{
closed = 1;
nodes = (
(119.642,248.678,o),
(230.632,326.363,o),
(295,366,c),
(128.969,468.238,o),
(44.562,601.27,o),
(25,632,c),
(32.331,490.503,o),
(111.544,400.902,o),
(149,366,c),
(41.763,266.073,o),
(27.193,142.335,o),
(25,100,c)
);
}
);
width = 570;
}
);
unicode = 187;
}
{
glyphname = AE;
layers = (
{
anchors = (
{
name = top;
pos = (706,826);
}
);
layerId = m001;
shapes = (
{
closed = 1;
nodes = (
(1021.34,-17.301,o),
(1129.6,110.407,o),
(1135.57,240,c),
(1116.4,240,l),
(1079.05,162.406,o),
(996.515,96.017,o),
(887.125,96.017,cs),
(741.73,96.017,o),
(618.34,213.873,o),
(618.34,369.841,cs),
(618.34,393.3,o),
(621.28,416.76,o),
(627.153,439.473,c),
(503.067,358,l),
(503.067,92.935,o),
(707.239,-17.301,o),
(850.426,-17.301,cs)
);
},
{
closed = 1;
nodes = (
(42,-10,l),
(86.642,37.157,o),
(150.816,65.003,o),
(216.238,65.003,cs),
(273.171,65.003,o),
(329.878,43.952,o),
(373,6.772,c),
(584.5,191,l),
(555.5,224,l),
(443,127,l),
(396.931,157.523,o),
(341.68,173.817,o),
(286.449,173.817,cs),
(155.024,173.817,o),
(59.726,89.058,o),
(23,-10,c)
);
},
{
closed = 1;
nodes = (
(491.065,645.186,l),
(466.523,659.992,l),
(136.691,113.311,l),
(161.259,98.542,l)
);
},
{
closed = 1;
nodes = (
(571,271,l),
(571,374,l),
(312,374,l),
(259,271,l)
);
},
{
closed = 1;
nodes = (
(299,320.5,l),
(209.804,365.241,o),
(192.892,452.387,o),
(192.892,489.793,cs),
(192.892,592.636,o),
(276.29,669.568,o),
(379.709,669.568,cs),
(436.48,669.568,o),
(489.453,646.898,o),
(529,609,c),
(625,685,l),
(567.047,737.492,o),
(489.195,767.682,o),
(411.112,767.682,cs),
(262.946,767.682,o),
(137.909,660.515,o),
(137.909,518.308,cs),
(137.909,387.578,o),
(239.341,326.233,o),
(292,311,c)
);
},
{
closed = 1;
nodes = (
(636.333,172,l),
(632.728,198.374,o),
(632,225.051,o),
(632,251.67,cs),
(632,644,ls),
(632,695.201,o),
(645.219,728.987,o),
(673,754,c),
(651.25,772.083,l),
(579.5,703.333,l),
(503,646,l),
(503,148,l)
);
},
{
closed = 1;
nodes = (
(836.154,297.474,l),
(836.22,681.052,l),
(602.875,561.333,l),
(592.573,548.598,l),
(707.154,596.942,l),
(707.156,272.409,l),
(592.526,223.557,l),
(592.507,194.932,l)
);
},
{
closed = 1;
nodes = (
(909.519,42.571,l),
(909.517,681,l),
(880.854,681,l),
(880.854,42.525,l)
);
},
{
closed = 1;
nodes = (
(1020.72,333,l),
(1142.72,460,l),
(894.717,460,l),
(893.717,333,l)
);
},
{
closed = 1;
nodes = (
(956.573,744.556,l),
(941.632,769.015,l),
(603.517,563.439,l),
(618.5,539,l)
);
},
{
closed = 1;
nodes = (
(1150.57,699.909,l),
(1142.39,709.546,l),
(1110.84,683.363,l),
(1046.58,703.561,o),
(991.738,732.281,o),
(941.633,769.015,c),
(830.194,685.252,l),
(891.13,642.381,o),
(958.747,605.068,o),
(1031.63,575.682,c)
);
}
);
width = 1188;
}
);
unicode = 198;
}
{
glyphname = Eth;
layers = (
{
layerId = m001;
shapes = (
{
closed = 1;
nodes = (
(43.5,-31.5,l),
(97.625,17.914,o),
(170.606,46.089,o),
(243.874,46.089,cs),
(307.517,46.089,o),
(366.695,26.214,o),
(416.5,-9.5,c),
(666.5,128,l),
(703.634,203.325,o),
(732.411,303.21,o),
(732.411,407.367,cs),
(732.411,598.4,o),
(658,740,o),
(448.5,740,cs),
(175.5,740,ls),
(136.381,740,o),
(108.346,752.107,o),
(102,784.75,c),
(80.5,785.5,l),
(62.258,716.47,o),
(62.198,618,o),
(143,618,cs),
(408.5,618,ls),
(433.183,618,o),
(458.277,616.964,o),
(481.586,608.845,cs),
(567.124,579.049,o),
(596.71,483.993,o),
(596.71,370.77,cs),
(596.71,260.103,o),
(574.483,167.701,o),
(540.5,83,c),
(479.042,130.474,o),
(401.317,155.776,o),
(323.748,155.776,cs),
(175.481,155.776,o),
(70.022,73.163,o),
(15,-31.5,c)
);
},
{
closed = 1;
nodes = (
(279.416,158.42,o),
(333.7,202.622,o),
(333.705,290.999,cs),
(333.775,470.988,ls),
(333.803,541.938,o),
(346.742,589.048,o),
(393.406,617.809,c),
(388.272,625.603,o),
(383.139,633.396,o),
(378.005,641.191,c),
(324.089,607.657,o),
(305.807,550.799,o),
(305.775,471.012,cs),
(305.705,291.001,ls),
(305.701,211.558,o),
(256.088,174.728,o),
(214.86,133.954,c),
(234.55,114.046,l)
);
},
{
closed = 1;
nodes = (
(59.651,267.16,l),
(59.007,270.263,o),
(58.685,273.433,o),
(58.685,276.602,cs),
(58.685,309.869,o),
(84.766,322.882,o),
(116.933,324.998,cs),
(326.706,338.8,l),
(318.41,456.595,l),
(245.754,442.185,o),
(24.308,471.974,o),
(24.308,323.474,cs),
(24.308,303.665,o),
(29.834,283.844,o),
(40.526,267.16,c)
);
},
{
closed = 1;
nodes = (
(182.836,141.73,o),
(270.163,203.575,o),
(270.169,327,cs),
(270.174,429,l),
(270.239,507,ls),
(270.285,562.758,o),
(288.781,591.658,o),
(319.395,619,cs),
(363.062,658,l),
(339.288,655.103,l),
(203.206,566.5,ls),
(167.403,543.188,o),
(141.134,520.602,o),
(141.134,461.461,cs),
(141.13,322.33,ls),
(141.138,239,o),
(135.629,174.062,o),
(80.089,142.33,c),
(89.419,118.33,l)
);
},
{
closed = 1;
nodes = (
(414.708,40.571,l),
(414.706,679,l),
(386.044,679,l),
(386.043,40.525,l)
);
},
{
closed = 1;
nodes = (
(619.039,378.333,l),
(606.079,403.902,l),
(388.457,293.586,l),
(401.374,268,l)
);
},
{
closed = 1;
nodes = (
(596.629,475.573,l),
(583.669,501.142,l),
(390.477,403.503,l),
(403.395,377.917,l)
);
}
);
width = 747;
}
);
unicode = 208;
}
{
glyphname = multiply;
layers = (
{
layerId = m001;
shapes = (
{
closed = 1;
nodes = (
(213.164,200,l),
(524.147,504,l),
(379.803,504,l),
(68.82,200,l)
);
},
{
closed = 1;
nodes = (
(514.639,200,l),
(218.899,504,l),
(74.529,504,l),
(370.27,200,l)
);
}
);
width = 574;
}
);
unicode = 215;
}
{
glyphname = Oslash;
layers = (
{
anchors = (
{
name = top;
pos = (424,856);
}
);
layerId = m001;
shapes = (
{
closed = 1;
nodes = (
(498.023,-28.564,o),
(708.951,190.854,o),
(708.951,419.057,cs),
(708.951,589.153,o),
(601.342,711.201,o),
(478.201,765,c),
(148.534,623.25,l),
(148.534,593.5,l),
(365.284,683.5,l),
(529,612,o),
(606.692,479,o),
(606.692,316.441,cs),
(606.692,170.6,o),
(504.013,81.239,o),
(398.644,81.239,cs),
(239.797,81.239,o),
(138.928,250.011,o),
(138.928,429.619,cs),
(138.928,580.485,o),
(206.475,701.055,o),
(301.704,767.83,c),
(287.201,786.333,l),
(136.142,725.036,o),
(15.342,572.339,o),
(15.342,366.321,cs),
(15.342,140.774,o),
(155.313,-28.564,o),
(323.014,-28.564,cs)
);
},
{
closed = 1;
nodes = (
(362.952,330.754,l),
(363.019,694.333,l),
(233.952,640.223,l),
(233.954,305.69,l),
(119.325,256.837,l),
(119.306,228.212,l)
);
},
{
closed = 1;
nodes = (
(640.5,752,l),
(615.614,766.22,l),
(151.588,-45.817,l),
(176.5,-60,l)
);
},
{
closed = 1;
nodes = (
(628.519,372.086,l),
(615.559,397.655,l),
(326.583,253.586,l),
(339.5,228,l)
);
},
{
closed = 1;
nodes = (
(629.562,477.572,l),
(616.603,503.143,l),
(414.433,401.073,l),
(427.35,375.487,l)
);
}
);
width = 723;
}
);
unicode = 216;
}
{
glyphname = Thorn;
layers = (
{
layerId = m001;
shapes = (
{
closed = 1;
nodes = (
(38,33.5,l),
(85.844,85.43,o),
(155.976,116.05,o),
(226.563,116.05,cs),
(291.035,116.05,o),
(352.134,91.634,o),
(398.5,49.5,c),
(660.991,191,l),
(660.991,509,l),
(626.874,556.198,o),
(584.771,597.621,o),
(536.908,631,c),
(262.5,431,l),
(262.5,402,l),
(439.408,526.95,l),
(473.861,502.028,o),
(505.336,473.502,o),
(533.324,442,c),
(533.324,155.5,l),
(511.324,142.5,l),
(453.568,184.731,o),
(382.122,207.809,o),
(310.606,207.809,cs),
(151.222,207.809,o),
(51.293,98.831,o),
(15,33.5,c)
);
},
{
closed = 1;
nodes = (
(359.506,-111.5,l),
(359.506,-83,l),
(156.567,-83,l),
(156.567,-111.5,l)
);
},
{
closed = 1;
nodes = (
(68.576,291.5,l),
(68.542,292.287,o),
(68.525,293.075,o),
(68.525,293.863,cs),
(68.525,331,o),
(97,336.496,o),
(126.401,336.498,cs),
(171.43,336.5,l),
(173.43,434.498,l),
(109.324,447.268,o),
(39.295,402.222,o),
(39.295,327.614,cs),
(39.295,315.334,o),
(41.406,303.052,o),
(45.576,291.5,c)
);
},
{
closed = 1;
nodes = (
(296.991,-111.5,l),
(296.991,561,ls),
(296.991,668,o),
(250,741.008,o),
(171.892,741.008,cs),
(95.248,741.008,o),
(51.967,670.294,o),
(47.13,613.388,c),
(71.067,613.388,l),
(75.31,636.877,o),
(91.742,661.396,o),
(118.632,661.396,cs),
(145.522,661.396,o),
(156.567,637,o),
(156.567,592,cs),
(156.567,-111.5,l)
);
},
{
closed = 1;
nodes = (
(359.502,-111,l),
(359.5,737.04,l),
(330.839,737.04,l),
(330.837,-111.046,l)
);
},
{
closed = 1;
nodes = (
(550.379,332.086,l),
(537.42,357.656,l),
(335.25,255.587,l),
(348.167,230.001,l)
);
},
{
closed = 1;
nodes = (
(551.422,437.572,l),
(538.463,463.143,l),
(336.293,361.073,l),
(349.21,335.487,l)
);
}
);
width = 699;
}
);
unicode = 222;
}
{
glyphname = germandbls;
layers = (
{
layerId = m001;
shapes = (
{
closed = 1;
nodes = (
(355.171,-169.638,o),
(527.482,-82.871,o),
(527.482,107.827,cs),
(527.482,158.555,o),
(509.282,264.982,o),
(403.999,331,c),
(496.034,414,l),
(324.704,531,l),
(169.885,388.133,l),
(169.886,359.999,l),
(249.037,433.499,l),
(383.537,336.999,l),
(272.704,234.999,l),
(339.85,210.983,o),
(397.74,146.897,o),
(397.74,56.883,cs),
(397.74,-35.498,o),
(330.425,-119.293,o),
(229.703,-130.332,c),
(231.335,-154.249,l)
);
},
{
closed = 1;
nodes = (
(310.826,71,l),
(296.446,90.174,l),
(263.326,72.25,l),
(206.326,119.633,l),
(206.326,619,l),
(187.152,619,l),
(34.174,455.609,l),
(34.176,441.229,l),
(55,441.229,o),
(82.109,432.395,o),
(82.109,393.5,cs),
(82.109,129.221,l),
(15,86.079,l),
(29.381,66.905,l),
(67.728,90.872,l),
(173.186,-0.203,l)
);
},
{
closed = 1;
nodes = (
(206.326,678,l),
(315.444,609.5,l),
(438.806,678.667,l),
(304.944,761.5,l),
(82.108,635.5,l),
(82.108,129.222,l),
(206.326,119.633,l)
);
}
);
width = 548;
}
);
unicode = 223;
}
{
glyphname = ae;
kernLeft = a;
kernRight = e;
layers = (
{
anchors = (
{
name = top;
pos = (335.192,558.961);
}
);
layerId = m001;
shapes = (
{
closed = 1;
nodes = (
(645.385,157.981,l),
(631.005,181.949,l),
(520.755,95.666,l),
(400.917,177.155,l),
(400.917,425.21,l),
(420.092,436.003,l),
(506.374,311.372,l),
(359.869,218.718,l),
(359.869,194.75,l),
(616.624,354.515,l),
(616.624,359.308,l),
(515.961,512.699,l),
(276.287,388.068,l),
(276.287,111.253,l),
(439.266,-9.79,l)
);
},
{
closed = 1;
nodes = (
(301.737,96.333,l),
(276.287,111.253,l),
(266.69,98.41,o),
(252.45,92.389,o),
(237.723,92.389,cs),
(186.318,92.389,o),
(159.108,154.63,o),
(159.108,204.132,cs),
(159.108,231.714,o),
(166.099,251.672,o),
(178.677,270.333,c),
(166.136,276.786,l),
(84.483,236.357,o),
(39,183.026,o),
(39,126.764,cs),
(39,52.019,o),
(110.339,3.255,o),
(173.706,-5,c)
);
},
{
closed = 1;
nodes = (
(400.998,129.221,l),
(400.998,408.971,l),
(247.606,507.905,l),
(137.356,450.383,ls),
(107.79,434.958,o),
(74.88,412.85,o),
(74.88,368.852,cs),
(74.88,281.098,o),
(204.83,258.724,o),
(287.595,233.125,c),
(287.595,262.875,l),
(136.345,297.387,o),
(103.791,336.312,o),
(103.791,374.677,cs),
(103.791,406.387,o),
(128.4,426.583,o),
(151.736,436,c),
(276.368,359.308,l),
(276.366,125.709,l),
(448.936,81.29,l)
);
}
);
width = 648;
}
);
unicode = 230;
}
{
glyphname = eth;
layers = (
{
anchors = (
{
name = top;
pos = (267.6,700);
}
);
layerId = m001;
shapes = (
{
closed = 1;
nodes = (
(418.101,130.5,l),
(418.601,429.973,l),
(61.861,743.844,l),
(61.851,564.5,l),
(82.268,567.975,l),
(289.601,379.167,l),
(289.603,78.661,l),
(183.601,152.375,l),
(183.601,486.668,l),
(54.6,407.334,l),
(54.602,99.918,l),
(198.851,1,l)
);
},
{
closed = 1;
nodes = (
(246.975,650.615,l),
(227.176,670.414,l),
(79.176,495.615,l),
(98.975,475.816,l)
);
},
{
closed = 1;
nodes = (
(461.351,448.618,l),
(443.714,470.366,l),
(384.427,422.285,l),
(402.063,400.538,l)
);
}
);
width = 436;
}
);
unicode = 240;
}
{
glyphname = divide;
layers = (
{
layerId = m001;
shapes = (
{
closed = 1;
nodes = (
(72.484,330,l),
(546.568,330,l),
(668.774,466.586,l),
(654.394,480.967,l),
(631.215,457,l),
(156.206,457,l),
(34,320.413,l),
(48.381,306.033,l)
);
},
{
closed = 1;
nodes = (
(449.5,195,l),
(358.153,286.348,l),
(268.276,196.47,l),
(359.624,105.124,l)
);
},
{
closed = 1;
nodes = (
(449.5,600,l),
(358.153,691.348,l),
(268.276,601.47,l),
(359.624,510.124,l)
);
}
);
width = 699;
}
);
unicode = 247;
}
{
glyphname = oslash;
layers = (
{
anchors = (
{
name = top;
pos = (256,560);
}
);
layerId = m001;
shapes = (
{
closed = 1;
nodes = (
(452.805,576,l),
(427.919,590.22,l),
(49.894,-67.817,l),
(74.805,-82,l)
);
},
{
closed = 1;
nodes = (
(91.924,115.778,l),
(74.287,137.526,l),
(15,89.445,l),
(32.637,67.698,l)
);
},
{
closed = 1;
nodes = (
(435.29,134.015,l),
(435.29,407.242,l),
(291.485,517.492,l),
(66.192,388.068,l),
(66.19,107.181,l),
(115.561,70.926,o),
(165.196,35.7,o),
(214.79,-0.203,c)
);
},
{
closed = 1;
nodes = (
(195.615,153.188,l),
(195.615,440.797,l),
(310.659,364.101,l),
(310.659,76.492,l)
);
}
);
width = 450;
}
);
unicode = 248;
}
{
glyphname = thorn;
layers = (
{
layerId = m001;
shapes = (
{
closed = 1;
nodes = (
(106.833,-174,l),
(249.833,-88,l),
(249.831,-73.62,l),
(216.575,-68.675,o),
(203.833,-42.051,o),
(203.833,-3.5,cs),
(203.833,638.833,l),
(188.348,669.179,o),
(164.821,695.059,o),
(136.333,713.333,c),
(15,632,l),
(25.666,616.333,l),
(31.641,622.104,o),
(39.914,625.405,o),
(48.219,625.405,cs),
(74,625.405,o),
(87.663,601,o),
(87.663,568,cs),
(87.663,-174,l)
);
},
{
closed = 1;
nodes = (
(321.888,51.228,o),
(377.589,90.211,o),
(437.333,123.5,c),
(437.333,420,l),
(329.833,514.5,l),
(183.333,405,l),
(188.833,376,l),
(247.333,420.5,l),
(313.333,366,l),
(313.333,69,l),
(249.005,99.56,o),
(181.421,126.803,o),
(110.833,150,c),
(36.333,87,l),
(126.256,76.306,o),
(204.96,46.909,o),
(271.333,8,c)
);
},
{
closed = 1;
nodes = (
(474.704,432.385,l),
(457.067,454.133,l),
(397.78,406.052,l),
(415.417,384.305,l)
);
}
);
width = 489;
}
);
unicode = 254;
}
{
glyphname = idotless;
layers = (
{
anchors = (
{
name = top;
pos = (140,560);
}
);
layerId = m001;
shapes = (
{
closed = 1;
nodes = (
(326.575,95.666,l),
(302.608,114.84,l),
(259.468,86.079,l),
(225.913,119.633,l),
(225.913,421.622,l),
(149.218,512.699,l),
(15,421.622,l),
(29.381,402.449,l),
(67.728,426.416,l),
(101.282,383.275,l),
(101.282,119.633,l),
(38.968,76.492,l),
(53.348,57.318,l),
(86.902,81.286,l),
(182.771,-4.997,l)
);
}
);
width = 341;
}
);
unicode = 305;
}
{
glyphname = Lslash;
layers = (
{
layerId = m001;
shapes = (
{
closed = 1;
nodes = (
(398.09,199.687,o),
(439.905,229.354,o),
(439.91,327,cs),
(439.98,578,ls),
(440.051,663.58,o),
(462.783,729.583,o),
(539,752,cs),
(556,757,l),
(556,779,l),
(545,777,ls),
(387.397,748.345,o),
(311,665,o),
(311,471.5,cs),
(311,322.33,ls),
(311,219,o),
(298,156,o),
(249.83,122.33,c),
(259.16,98.33,l)
);
},
{
closed = 1;
nodes = (
(128.284,9.216,o),
(214.781,39.205,o),
(309.613,39.205,cs),
(385.008,39.205,o),
(460.341,18.949,o),
(525.5,-19,c),
(672.167,90.667,l),
(656.167,113.333,l),
(623.5,89.333,l),
(554.596,124.41,o),
(470.32,153.149,o),
(373.469,153.149,cs),
(221.659,153.149,o),
(111.856,76.042,o),
(55.5,-25.75,c),
(55.5,-44.5,l)
);
},
{
closed = 1;
nodes = (
(109.5,96,ls),
(183,96,o),
(267.493,200,o),
(267.5,310.5,cs),
(267.57,529,ls),
(267.597,585.272,o),
(278.93,642.63,o),
(311.813,673.087,cs),
(330.408,690.307,o),
(351.494,703.87,o),
(362.833,728.294,c),
(340.333,728.421,l),
(221.761,597.437,o),
(137.971,626.923,o),
(138,491.6,cs),
(138,284.646,ls),
(138.004,189,o),
(117.207,121.865,o),
(76.5,96,c)
);
},
{
closed = 1;
nodes = (
(634.583,481.131,l),
(621.691,506.73,l),
(11.649,200.713,l),
(24.584,175.131,l)
);
},
{
closed = 1;
nodes = (
(38.5,627,l),
(48.084,651.513,o),
(72.78,667.03,o),
(105.829,667.03,cs),
(144.22,667.03,o),
(180.109,652.466,o),
(220.418,652.466,cs),
(321.35,652.466,o),
(393.717,743.229,o),
(402,752.669,c),
(403.5,779.191,l),
(383.386,760.541,o),
(354.557,746.818,o),
(318.458,746.818,cs),
(270.394,746.818,o),
(233.461,771.05,o),
(185.563,771.05,cs),
(77.781,771.05,o),
(19.852,637.327,o),
(15,627,c)
);
}
);
width = 687;
}
);
unicode = 321;
}
{
color = 2;
glyphname = lslash;
layers = (
{
layerId = m001;
shapes = (
{
closed = 1;
nodes = (
(297.408,433.102,l),
(284.514,458.7,l),
(20.473,326.582,l),
(33.408,301,l)
);
},
{
ref = l;
}
);
width = 287;
}
);
unicode = 322;
}
{
color = 2;
glyphname = oe;
layers = (
{
layerId = m001;
shapes = (
{
closed = 1;
nodes = (
(681.386,157.981,l),
(667.006,181.949,l),
(556.756,95.666,l),
(436.918,177.155,l),
(436.918,425.21,l),
(456.093,436.003,l),
(542.375,311.372,l),
(395.87,218.718,l),
(395.87,194.75,l),
(652.625,354.515,l),
(652.625,359.308,l),
(551.962,512.699,l),
(312.288,388.068,l),
(312.288,111.253,l),
(475.267,-9.79,l)
);
},
{
ref = o;
}
);
width = 684;
}
);
metricLeft = o;
metricRight = e;
unicode = 339;
}
{
glyphname = Schwa;
layers = (
{
anchors = (
{
name = cedilla;
pos = (441.316,-36);
},
{
name = top;
pos = (469.316,824);
}
);
layerId = m001;
shapes = (
{
closed = 1;
nodes = (
(660.676,-23.917,o),
(807.68,127.756,o),
(807.68,324.153,cs),
(807.68,532.85,o),
(636,722.503,o),
(411.95,722.503,c),
(427.446,684,l),
(550.721,684,o),
(662.024,564.459,o),
(669.122,410.944,c),
(363,410.211,l),
(383,451,l),
(257.492,451,l),
(96.617,315.83,l),
(96.617,136,o),
(258.524,-23.917,o),
(461.505,-23.917,cs)
);
},
{
closed = 1;
nodes = (
(201.62,214.086,l),
(214.579,239.656,l),
(392.917,149.586,l),
(380,124,l)
);
},
{
closed = 1;
nodes = (
(362.497,2.571,l),
(362.499,387,l),
(391.161,387,l),
(391.163,2.525,l)
);
},
{
closed = 1;
nodes = (
(200.577,319.572,l),
(213.536,345.143,l),
(391.874,255.072,l),
(378.957,229.486,l)
);
},
{
closed = 1;
nodes = (
(315.694,12.887,o),
(259.896,101.102,o),
(259.896,206.08,cs),
(259.896,277.636,o),
(260,382,o),
(260,382,c),
(260,382,o),
(298.93,382,o),
(396.696,382,cs),
(668.248,382,l),
(659.177,201.209,o),
(599.472,12.887,o),
(422.013,12.887,cs)
);
},
{
closed = 1;
nodes = (
(508.998,17.571,l),
(509,402,l),
(537.662,402,l),
(537.664,17.525,l)
);
},
{
closed = 1;
nodes = (
(602.743,229.524,l),
(522.498,309.77,l),
(442.252,229.524,l),
(522.498,149.279,l)
);
},
{
closed = 1;
nodes = (
(321.748,587.507,o),
(408.218,635.15,o),
(468,680,c),
(356.5,768.833,l),
(301.895,724.916,o),
(219.015,681.225,o),
(146.5,657.5,c),
(250,556,l)
);
},
{
closed = 1;
nodes = (
(391.188,374.364,l),
(391.188,428,o),
(420.843,432.203,o),
(448.47,432.203,cs),
(668.296,432.204,l),
(660,549,l),
(440,549,ls),
(407,549,o),
(363,520,o),
(363,471,cs),
(363,436,o),
(363,374.364,o),
(363,374.364,c)
);
}
);
width = 839;
}
);
unicode = 399;
}
{
glyphname = wynn;
layers = (
{
layerId = m001;
shapes = (
{
closed = 1;
nodes = (
(106.833,-173.999,l),
(249.833,-87.999,l),
(249.831,-73.619,l),
(216.577,-68.671,o),
(203.833,-42.037,o),
(203.833,-3.499,cs),
(203.833,16.101,l),
(437.333,167,l),
(437.333,402.079,l),
(474.704,432.386,l),
(457.067,454.134,l),
(426.606,429.431,l),
(329.833,514.501,l),
(203.833,420.323,l),
(203.833,438.834,l),
(188.18,469.509,o),
(164.619,495.191,o),
(136.333,513.334,c),
(15,432.001,l),
(25.666,416.334,l),
(32.271,420.989,o),
(40.332,423.54,o),
(48.411,423.54,cs),
(72.857,423.54,o),
(87.663,405.247,o),
(87.663,380.001,cs),
(87.663,42.76,l),
(36.333,-0.646,l),
(87.663,-9,l),
(87.663,-173.999,l)
);
},
{
closed = 1;
nodes = (
(203.833,387.41,l),
(247.333,420.5,l),
(313.333,366,l),
(313.333,161,l),
(203.833,90.468,l)
);
}
);
width = 480;
}
);
unicode = 447;
}
{
glyphname = Wynn;
layers = (
{
layerId = m001;
shapes = (
{
closed = 1;
nodes = (
(389.507,-111.5,l),
(389.507,-83,l),
(389.503,16.057,l),
(403.391,7.646,o),
(416.48,-2.076,o),
(428.502,-13,c),
(690.993,353,l),
(690.993,639,l),
(656.876,686.198,o),
(614.773,727.622,o),
(566.91,761,c),
(389.502,631.698,l),
(389.502,737.04,l),
(360.841,737.04,l),
(360.841,610.808,l),
(326.993,586.139,l),
(326.993,604,ls),
(326.993,719.135,o),
(258.078,738.834,o),
(212.122,738.834,cs),
(134.827,738.834,o),
(79.62,678.248,o),
(77.132,613.388,c),
(101.069,613.388,l),
(105.312,636.877,o),
(121.744,661.396,o),
(148.634,661.396,cs),
(175.524,661.396,o),
(186.569,639,o),
(186.569,602,cs),
(186.569,436.549,l),
(122.612,439.503,o),
(69.295,390.839,o),
(69.295,327.614,cs),
(69.295,315.334,o),
(71.406,303.052,o),
(75.576,291.5,c),
(98.576,291.5,l),
(98.542,292.287,o),
(98.525,293.075,o),
(98.525,293.863,cs),
(98.525,327.591,o),
(122.974,336.625,o),
(158.2,336.625,cs),
(186.568,336.499,l),
(186.568,107.079,l),
(127.623,76.472,o),
(77.278,29.102,o),
(45.001,-29,c),
(68.001,-29,l),
(99.811,5.525,o),
(141.472,30.632,o),
(186.568,43.582,c),
(186.568,-8.112,o),
(186.568,-59.806,o),
(186.568,-111.5,c)
);
},
{
closed = 1;
nodes = (
(326.994,43.445,l),
(338.543,40.102,o),
(349.86,35.957,o),
(360.84,31.055,c),
(360.84,-83.002,l),
(326.994,-83.002,l)
);
},
{
closed = 1;
nodes = (
(345.093,97.453,o),
(333.777,97.112,o),
(326.994,96.833,c),
(326.994,556.36,l),
(360.842,580.266,l),
(360.841,96.5,l)
);
},
{
closed = 1;
nodes = (
(389.504,273.833,l),
(563.327,361.586,l),
(563.327,345,l),
(389.505,84.5,l)
);
},
{
closed = 1;
nodes = (
(389.504,378.793,l),
(563.327,466.546,l),
(563.327,393.698,l),
(389.504,305.94,l)
);
},
{
closed = 1;
nodes = (
(389.503,600.51,l),
(469.411,656.948,l),
(503.864,632.026,o),
(535.341,603.499,o),
(563.327,571.998,c),
(563.327,498.658,l),
(389.503,410.902,l)
);
}
);
width = 724;
}
);
unicode = 503;
}
{
glyphname = jdotless;
layers = (
{
anchors = (
{
name = top;
pos = (139,560);
}
);
layerId = m001;
shapes = (
{
closed = 1;
nodes = (
(92.55,-179.147,o),
(206.551,-135.046,o),
(210.575,26,cs),
(212.913,119.633,l),
(212.913,421.622,l),
(136.218,512.699,l),
(2,421.622,l),
(16.381,402.449,l),
(54.728,426.416,l),
(88.282,383.275,l),
(88.285,41,ls),
(88.286,-79,o),
(80,-151,o),
(10.575,-151,c),
(10.575,-179,l),
(13.106,-179.099,o),
(15.641,-179.147,o),
(18.174,-179.147,cs)
);
},
{
closed = 1;
nodes = (
(254.575,441.003,l),
(236.938,462.751,l),
(177.651,414.67,l),
(195.288,392.923,l)
);
}
);
width = 276;
}
);
unicode = 567;
}
{
glyphname = schwa;
layers = (
{
anchors = (
{
name = top;
pos = (230,560);
}
);
layerId = m001;
shapes = (
{
closed = 1;
nodes = (
(409.29,134.015,l),
(409.29,407.242,l),
(265.485,517.492,l),
(40.192,388.068,l),
(55.25,362.083,l),
(179,434,l),
(284.659,364.101,l),
(284.659,76.492,l),
(169.615,153.188,l),
(172.896,317,l),
(40.191,232,l),
(40.19,107.181,l),
(188.79,-0.203,l)
);
},
{
closed = 1;
nodes = (
(70,113,l),
(52.363,134.748,l),
(-6.924,86.667,l),
(10.713,64.92,l)
);
},
{
closed = 1;
nodes = (
(132,242,l),
(286,242,l),
(332.896,317,l),
(172.896,317,l),
(40,232,l)
);
}
);
width = 446;
}
);
unicode = 601;
}
{
glyphname = gravecomb;
layers = (
{
anchors = (
{
name = _top;
pos = (120,540);
}
);
layerId = m001;
shapes = (
{
closed = 1;
nodes = (
(200.667,551,l),
(115,726.667,l),
(63.667,687,l),
(192,544.333,l)
);
}
);
width = 0;
}
);
unicode = 768;
}
{
glyphname = acutecomb;
layers = (
{
anchors = (
{
name = _top;
pos = (120,540);
}
);
layerId = m001;
shapes = (
{
closed = 1;
nodes = (
(200.667,687,l),
(149.334,726.667,l),
(63.667,551,l),
(72.334,544.333,l)
);
}
);
width = 0;
}
);
unicode = 769;
}
{
glyphname = circumflexcomb;
layers = (
{
anchors = (
{
name = _top;
pos = (268,557.5);
}
);
layerId = m001;
shapes = (
{
closed = 1;
nodes = (
(216.735,644.294,l),
(325.235,543.294,l),
(398.703,622.217,l),
(274.718,737.632,l),
(96.774,561.433,l),
(114.735,543.294,l)
);
}
);
width = 0;
}
);
unicode = 770;
}
{
glyphname = tildecomb;
layers = (
{
anchors = (
{
name = _top;
pos = (276,532);
}
);
layerId = m001;
shapes = (
{
closed = 1;
nodes = (
(410.456,533.62,o),
(457.758,585.742,o),
(481.911,638.275,c),
(456.749,651.716,l),
(444.387,629.459,o),
(421.545,614.728,o),
(388.193,614.728,cs),
(322.918,614.728,o),
(281.848,655.94,o),
(216.353,655.94,cs),
(142.728,655.94,o),
(100.434,602.077,o),
(69.035,556.616,c),
(94.197,543.176,l),
(112.76,561.052,o),
(137.634,576.393,o),
(172.527,576.393,cs),
(236.241,576.393,o),
(271.839,533.62,o),
(336.8,533.62,cs)
);
}
);
width = 0;
}
);
unicode = 771;
}
{
glyphname = macroncomb;
layers = (
{
anchors = (
{
name = _top;
pos = (271.139,530.781);
}
);
layerId = m001;
shapes = (
{
closed = 1;
nodes = (
(417.986,669,l),
(145.013,670,l),
(145.013,563,l),
(417.986,562,l)
);
}
);
width = 0;
}
);
unicode = 772;
}
{
glyphname = overlinecomb;
layers = (
{
anchors = (
{
name = _top;
pos = (271.139,530.781);
}
);
layerId = m001;
shapes = (
{
closed = 1;
nodes = (
(497.872,669,l),
(75.007,670,l),
(75.007,563,l),
(497.872,562,l)
);
}
);
width = 0;
}
);
unicode = 773;
}
{
glyphname = brevecomb;
layers = (
{
anchors = (
{
name = _top;
pos = (276,532);
}
);
layerId = m001;
shapes = (
{
closed = 1;
nodes = (
(345.673,543.062,o),
(390.951,599.281,o),
(415.412,653.954,c),
(389.719,666.35,l),
(376.981,639.395,o),
(347.569,625.135,o),
(308.829,625.135,cs),
(256.807,625.135,o),
(217.514,647.134,o),
(194.824,679,c),
(126.824,619,l),
(156.795,578.188,o),
(203.277,543.062,o),
(268.234,543.062,cs)
);
}
);
width = 0;
}
);
unicode = 774;
}
{
glyphname = dotaccentcomb;
layers = (
{
anchors = (
{
name = _top;
pos = (104.118,486.1);
}
);
layerId = m001;
shapes = (
{
closed = 1;
nodes = (
(196.224,609.998,l),
(104.877,701.346,l),
(15,611.468,l),
(106.348,520.122,l)
);
}
);
width = 0;
}
);
unicode = 775;
}
{
glyphname = ringcomb;
layers = (
{
anchors = (
{
name = _top;
pos = (204,596);
}
);
layerId = m001;
shapes = (
{
closed = 1;
nodes = (
(231.888,524,o),
(274,566.112,o),
(274,618,cs),
(274,669.888,o),
(231.888,712,o),
(180,712,cs),
(128.112,712,o),
(86,669.888,o),
(86,618,cs),
(86,566.112,o),
(128.112,524,o),
(180,524,cs)
);
},
{
closed = 1;
nodes = (
(143.679,552.2,o),
(114.2,581.679,o),
(114.2,618,cs),
(114.2,654.321,o),
(143.679,683.8,o),
(180,683.8,cs),
(216.321,683.8,o),
(245.8,654.321,o),
(245.8,618,cs),
(245.8,581.679,o),
(216.321,552.2,o),
(180,552.2,cs)
);
}
);
width = 0;
}
);
unicode = 778;
}
{
glyphname = hungarumlautcomb;
layers = (
{
anchors = (
{
name = _top;
pos = (120,540);
}
);
layerId = m001;
shapes = (
{
closed = 1;
nodes = (
(200.667,687,l),
(149.334,726.667,l),
(63.667,551,l),
(72.334,544.333,l)
);
},
{
closed = 1;
nodes = (
(306.667,687,l),
(255.334,726.667,l),
(169.667,551,l),
(178.334,544.333,l)
);
}
);
width = 0;
}
);
unicode = 779;
}
{
glyphname = caroncomb;
layers = (
{
anchors = (
{
name = _top;
pos = (224.954,496.5);
}
);
layerId = m001;
shapes = (
{
closed = 1;
nodes = (
(407.669,688.991,l),
(389.122,707.198,l),
(282.262,598.34,l),
(163.991,707.169,l),
(90.898,627.735,l),
(225.738,503.66,l)
);
}
);
width = 0;
}
);
unicode = 780;
}
{
glyphname = dblgravecomb;
layers = (
{
anchors = (
{
name = _top;
pos = (250.334,540);
}
);
layerId = m001;
shapes = (
{
closed = 1;
nodes = (
(200.667,551,l),
(115,726.667,l),
(63.667,687,l),
(192,544.333,l)
);
},
{
closed = 1;
nodes = (
(306.667,551,l),
(221,726.667,l),
(169.667,687,l),
(298,544.333,l)
);
}
);
width = 0;
}
);
unicode = 783;
}
{
glyphname = commaaboverightcomb;
layers = (
{
anchors = (
{
name = _top;
pos = (-59,656);
}
);
layerId = m001;
shapes = (
{
closed = 1;
nodes = (
(65.918,580.282,o),
(69.61,582.322,o),
(71.884,585.455,cs),
(98.876,622.653,o),
(121.814,659.776,o),
(121.814,714.736,cs),
(121.814,792.255,o),
(59.547,847.143,o),
(22.489,847.143,cs),
(-6.995,847.143,o),
(-30.932,823.205,o),
(-30.932,793.721,cs),
(-30.932,736.746,o),
(56.62,740.412,o),
(56.62,637.976,cs),
(56.62,609.183,o),
(49.247,604.541,o),
(49.247,592.79,cs),
(49.247,585.887,o),
(54.851,580.282,o),
(61.754,580.282,cs)
);
}
);
width = 236;
}
);
unicode = 789;
}
{
glyphname = cedillacomb;
layers = (
{
anchors = (
{
name = _cedilla;
pos = (67.325,147.815);
}
);
layerId = m001;
shapes = (
{
closed = 1;
nodes = (
(170.603,-2.078,o),
(189.812,47.816,o),
(189.812,78.721,cs),
(189.812,123.97,o),
(150.809,154.667,o),
(115.688,170.209,c),
(8,119.014,l),
(53.208,108.467,o),
(100.631,78.229,o),
(100.631,26.57,cs),
(100.631,-20.509,o),
(56.832,-47.874,o),
(31.688,-57.94,c),
(38.188,-65.304,l)
);
}
);
width = 0;
}
);
unicode = 807;
}
{
glyphname = ogonekcomb;
layers = (
{
anchors = (
{
name = _ogonek;
pos = (149.813,130.816);
}
);
layerId = m001;
shapes = (
{
closed = 1;
nodes = (
(172.125,-143.5,l),
(133.192,-121.982,o),
(103.181,-82.315,o),
(103.181,-26.819,cs),
(103.181,38.243,o),
(146.249,84.852,o),
(195.813,100.816,c),
(88.125,171.5,l),
(49.715,148.033,o),
(14,103.229,o),
(14,45.182,cs),
(14,-55.259,o),
(130.944,-130.805,o),
(165.625,-153.667,c)
);
}
);
width = 0;
}
);
unicode = 808;
}
{
glyphname = ecomb;
layers = (
{
anchors = (
{
name = _top;
pos = (224.118,494);
}
);
layerId = m001;
shapes = (
{
closed = 1;
nodes = (
(241.52,535.975,o),
(261.827,549.934,o),
(282.136,561.354,cs),
(318.874,582.783,o),
(316.405,601,o),
(316.405,608.307,cs),
(316.405,613.017,o),
(313.867,617.189,o),
(312.597,620.996,c),
(304.981,618.459,o),
(279.597,603.231,o),
(275.789,598.154,cs),
(266.905,588.003,o),
(271.982,568.969,o),
(251.674,568.969,cs),
(240.251,568.969,o),
(230.097,575.313,o),
(221.213,577.852,c),
(241.52,601.962,o),
(266.905,623.534,o),
(288.481,646.377,cs),
(293.559,651.452,o),
(315.136,670.486,o),
(315.136,678.102,cs),
(315.136,698.404,o),
(271.982,707.287,o),
(261.827,707.287,cs),
(242.79,707.287,o),
(226.29,695.867,o),
(213.597,689.522,cs),
(185.674,671.756,o),
(155.213,657.797,o),
(155.213,613.383,cs),
(155.213,580.389,o),
(180.597,535.975,o),
(219.943,535.975,cs)
);
},
{
closed = 1;
nodes = (
(200.905,607.038,o),
(199.636,617.189,o),
(199.636,626.072,cs),
(199.636,647.646,o),
(211.059,674.295,o),
(233.904,674.295,cs),
(246.598,674.295,o),
(259.289,669.218,o),
(270.713,662.873,c),
(203.443,596.886,l)
);
}
);
width = 0;
}
);
unicode = 868;
}
{
glyphname = quoteright;
layers = (
{
layerId = m001;
shapes = (
{
closed = 1;
nodes = (
(215.548,526.305,o),
(224.625,597.7,o),
(224.625,631.18,cs),
(224.625,689.277,o),
(188.948,734.01,o),
(150.5,757.5,c),
(15,668.667,l),
(28,647.667,l),
(40.666,656,ls),
(48.025,660.841,o),
(55.516,665.467,o),
(66.932,665.467,cs),
(113.507,665.467,o),
(135.016,605.985,o),
(135.016,559.171,cs),
(135.016,503.283,o),
(106.913,462.836,o),
(66.5,442.5,c),
(73,432.333,l)
);
}
);
width = 239;
}
);
unicode = 8217;
}
{
glyphname = ellipsis;
layers = (
{
layerId = m001;
shapes = (
{
closed = 1;
nodes = (
(590,78,l),
(499,169,l),
(409,79,l),
(500,-12,l)
);
},
{
closed = 1;
nodes = (
(226,79,l),
(135,170,l),
(45,80,l),
(136,-11,l)
);
},
{
closed = 1;
nodes = (
(409,79,l),
(318,170,l),
(228,80,l),
(319,-11,l)
);
}
);
width = 635;
}
);
unicode = 8230;
}
{
glyphname = fraction;
layers = (
{
layerId = m001;
shapes = (
{
closed = 1;
nodes = (
(500.049,792,l),
(384.412,791.996,l),
(-302.68,-42.764,l),
(-188.63,-43.33,l)
);
}
);
width = 185;
}
);
unicode = 8260;
}
{
glyphname = euro;
layers = (
{
layerId = m001;
shapes = (
{
closed = 1;
nodes = (
(677,-17,o),
(799,89,o),
(806,240,c),
(787,240,l),
(745,163,o),
(661,95,o),
(548,95,cs),
(380,95,o),
(296,230,o),
(296,397,cs),
(296,545,o),
(354,656,o),
(456,708,c),
(446,723,l),
(301,676,o),
(174,535,o),
(174,351,cs),
(174,157,o),
(328,-17,o),
(522,-17,cs)
);
},
{
closed = 1;
nodes = (
(217,218,l),
(217,345,l),
(161,345,l),
(39,218,l)
);
},
{
closed = 1;
nodes = (
(217,378,l),
(217,505,l),
(161,505,l),
(39,378,l)
);
},
{
closed = 1;
nodes = (
(507,297,l),
(507,681,l),
(274,561,l),
(263,549,l),
(378,597,l),
(378,272,l),
(263,224,l),
(263,195,l)
);
},
{
closed = 1;
nodes = (
(580,43,l),
(580,681,l),
(552,681,l),
(552,43,l)
);
},
{
closed = 1;
nodes = (
(620,218,l),
(742,345,l),
(565,345,l),
(564,218,l)
);
},
{
closed = 1;
nodes = (
(627,745,l),
(612,769,l),
(302,579,l),
(317,555,l)
);
},
{
closed = 1;
nodes = (
(691,378,l),
(813,505,l),
(565,505,l),
(564,378,l)
);
},
{
closed = 1;
nodes = (
(821,700,l),
(813,710,l),
(782,683,l),
(717,704,o),
(662,732,o),
(612,769,c),
(501,685,l),
(562,642,o),
(629,605,o),
(702,576,c)
);
}
);
width = 860;
}
);
unicode = 8364;
}
{
glyphname = bitcoin;
layers = (
{
layerId = m001;
shapes = (
{
closed = 1;
nodes = (
(56.051,-32,l),
(104.093,14.604,o),
(172.626,45.426,o),
(262.43,45.426,cs),
(329.958,45.426,o),
(397.376,27.441,o),
(457.345,-3.83,c),
(791.511,169,l),
(791.511,420,l),
(744.516,458.836,o),
(686.531,490.727,o),
(621.511,509,c),
(508.345,430,l),
(564.324,410.94,o),
(616.408,382.828,o),
(660.511,350,c),
(660.511,120,l),
(578.759,82,l),
(526.25,128.555,o),
(453.053,163.164,o),
(360.903,163.164,cs),
(213.228,163.164,o),
(95.999,79.849,o),
(31.759,-32,c)
);
},
{
closed = 1;
nodes = (
(49.41,309.364,l),
(42.375,348.115,o),
(70.237,367.203,o),
(106.692,367.203,cs),
(182.519,367.204,l),
(174.223,485,l),
(139.778,478.568,o),
(104.63,477.751,o),
(73.761,463.25,cs),
(40.591,447.668,o),
(15,415.646,o),
(15,368.183,cs),
(15,347.735,o),
(20.326,327.249,o),
(30.285,309.364,c)
);
},
{
closed = 1;
nodes = (
(178.923,118.73,o),
(266.248,180.575,o),
(266.254,304,cs),
(266.324,552.478,ls),
(266.34,589.99,o),
(277.881,609.289,o),
(299.345,626.108,cs),
(447.117,741.907,l),
(413.345,739.01,l),
(341.446,693.077,o),
(269.453,647.266,o),
(197.345,601.564,cs),
(163.787,580.298,o),
(137.22,560.352,o),
(137.22,505.375,cs),
(137.22,505.25,o),
(137.22,505.125,o),
(137.22,505,cs),
(137.259,422.5,l),
(137.265,299.33,ls),
(137.268,215.161,o),
(131.717,151.058,o),
(76.174,119.33,c),
(85.504,95.33,l)
);
},
{
closed = 1;
nodes = (
(516.845,-52.429,l),
(516.843,789.74,l),
(488.181,789.74,l),
(488.179,-52.475,l)
);
},
{
closed = 1;
nodes = (
(576.845,-52.429,l),
(576.843,789.74,l),
(548.181,789.74,l),
(548.179,-52.475,l)
);
},
{
closed = 1;
nodes = (
(77.845,634.141,l),
(87.959,660.817,o),
(112.801,678.492,o),
(147.416,678.492,cs),
(192.865,678.492,o),
(224.822,654.89,o),
(270.752,654.89,cs),
(348.504,654.89,o),
(397.64,709.517,o),
(447.117,741.907,c),
(453.345,764.148,l),
(430.239,750.051,o),
(398.99,739.763,o),
(364.078,739.763,cs),
(316.73,739.763,o),
(274.854,758.674,o),
(227.513,758.674,cs),
(140.09,758.674,o),
(79.368,695.069,o),
(54.345,634.141,c)
);
},
{
closed = 1;
nodes = (
(295.845,124,l),
(359.891,185.694,o),
(446.845,225.703,o),
(446.845,350.5,cs),
(446.845,612.274,ls),
(447,653,o),
(476.834,684.145,o),
(508.345,698.401,c),
(647.845,534.181,l),
(508.299,430,l),
(546.345,422,l),
(779.345,585.5,l),
(617.595,775.23,l),
(492.937,733.824,o),
(388.114,656.047,o),
(313.845,560.51,c),
(313.845,248,ls),
(313.845,188.265,o),
(291.266,152.975,o),
(258.845,124,c)
);
}
);
width = 806;
}
);
unicode = 8383;
}
{
glyphname = enclosingcirclecomb;
layers = (
{
layerId = m001;
shapes = (
{
closed = 1;
nodes = (
(647,-152,o),
(828,28,o),
(828,250,cs),
(828,472,o),
(647,652,o),
(424,652,cs),
(201,652,o),
(20,472,o),
(20,250,cs),
(20,28,o),
(201,-152,o),
(424,-152,cs)
);
},
{
closed = 1;
nodes = (
(212,-132,o),
(40,39,o),
(40,250,cs),
(40,461,o),
(212,632,o),
(424,632,cs),
(635,632,o),
(807,461,o),
(807,250,cs),
(807,39,o),
(635,-132,o),
(424,-132,cs)
);
}
);
width = 848;
}
);
unicode = 8413;
}
{
glyphname = doubleobliquehyphen;
layers = (
{
layerId = m001;
shapes = (
{
closed = 1;
nodes = (
(348,456,l),
(320,495,l),
(49,295,l),
(77,256,l)
);
},
{
closed = 1;
nodes = (
(348,320,l),
(319,358,l),
(48,158,l),
(76,120,l)
);
}
);
width = 388;
}
);
unicode = 11799;
}
{
glyphname = rrotunda;
layers = (
{
anchors = (
{
name = top;
pos = (167.342,559);
}
);
layerId = m001;
shapes = (
{
closed = 1;
nodes = (
(289.261,106.584,l),
(274.164,121.679,l),
(250.578,100.922,l),
(159,159,l),
(214.334,203.033,o),
(287.585,259,o),
(287.585,342.195,cs),
(287.585,448.437,o),
(125.797,512.272,o),
(125.797,512.272,c),
(39,366.034,l),
(61.642,350.938,l),
(61.642,370,o),
(83,394.338,o),
(105.983,394.338,cs),
(130,394.338,o),
(173.749,380,o),
(173.749,303.229,cs),
(173.749,217,o),
(60.698,92.432,o),
(60.698,92.432,c),
(201.518,-0.971,l)
);
}
);
width = 323;
}
);
unicode = 42843;
}
{
glyphname = fi;
layers = (
{
layerId = m001;
shapes = (
{
closed = 1;
nodes = (
(566.575,95.666,l),
(542.608,114.84,l),
(499.468,86.079,l),
(465.913,119.633,l),
(465.913,503,l),
(375.222,504,l),
(285,449,l),
(304,449,o),
(341.282,451,o),
(341.282,384,cs),
(341.282,119.633,l),
(263.326,72.25,l),
(206.326,119.633,l),
(206.326,619,l),
(187.152,619,l),
(34.174,455.609,l),
(34.176,441.229,l),
(63.816,442.736,o),
(82.109,423.382,o),
(82.109,393.5,cs),
(82.109,129.221,l),
(15,86.079,l),
(29.381,66.905,l),
(67.728,90.872,l),
(173.185,-0.203,l),
(326.902,81.286,l),
(422.771,-4.997,l)
);
},
{
closed = 1;
nodes = (
(206.326,678,l),
(351.698,590,l),
(475.06,659.167,l),
(304.944,761.5,l),
(82.109,635.5,l),
(82.109,129.221,l),
(206.326,119.633,l)
);
},
{
closed = 1;
nodes = (
(328.326,449,l),
(375.222,504,l),
(140.722,504,l),
(93.826,449,l)
);
}
);
width = 552;
}
);
unicode = 64257;
}
{
glyphname = fl;
layers = (
{
layerId = m001;
shapes = (
{
closed = 1;
nodes = (
(206.326,678,l),
(315.444,609.5,l),
(438.806,678.667,l),
(304.944,761.5,l),
(82.108,635.5,l),
(82.108,129.222,l),
(206.326,119.633,l)
);
},
{
closed = 1;
nodes = (
(310.826,71,l),
(296.446,90.174,l),
(263.326,72.25,l),
(206.326,119.633,l),
(206.326,619,l),
(187.152,619,l),
(34.174,455.609,l),
(34.176,441.229,l),
(63.816,442.736,o),
(82.109,423.382,o),
(82.109,393.5,cs),
(82.109,129.221,l),
(15,86.079,l),
(29.381,66.905,l),
(67.728,90.872,l),
(173.186,-0.203,l)
);
},
{
closed = 1;
nodes = (
(378.326,449,l),
(425.222,504,l),
(140.722,504,l),
(93.826,449,l)
);
},
{
closed = 1;
nodes = (
(571.815,86.079,l),
(557.435,105.253,l),
(528.674,81.286,l),
(490.326,119.633,l),
(490.326,762.753,l),
(471.152,762.753,l),
(303.034,632.38,l),
(303.036,618,l),
(325.262,601.007,o),
(356.109,596.087,o),
(356.109,556.601,cs),
(356.109,129.221,l),
(289,86.079,l),
(303.381,66.905,l),
(341.729,90.872,l),
(447.185,-0.203,l)
);
}
);
width = 574;
}
);
unicode = 64258;
}
{
glyphname = a_n_d.dlig;
layers = (
{
layerId = m001;
shapes = (
{
closed = 1;
nodes = (
(1022,301.085,l),
(1022.41,543.099,l),
(734.111,796.75,l),
(734.104,651.813,l),
(750.603,654.62,l),
(918.158,502.042,l),
(918.158,259.19,l),
(832.496,318.763,l),
(832.496,588.916,l),
(728.245,524.802,l),
(728.245,276.37,l),
(844.818,196.43,l)
);
},
{
closed = 1;
nodes = (
(204.913,245.491,l),
(204.233,256.521,l),
(197.755,253.913,o),
(190.771,252.602,o),
(183.788,252.602,cs),
(134.111,252.602,o),
(108.875,316.411,o),
(108.875,361.805,cs),
(108.875,381.664,o),
(117.178,398.857,o),
(123.846,403.924,c),
(113.812,409.086,l),
(48.491,376.742,o),
(12.104,334.079,o),
(12.104,289.069,cs),
(12.104,229.272,o),
(69.175,190.261,o),
(119.869,183.657,c)
);
},
{
closed = 1;
nodes = (
(938.952,27.5,l),
(938.952,64.5,l),
(146.452,64.5,l),
(146.452,27.5,l)
);
},
{
closed = 1;
nodes = (
(376.752,260.307,l),
(372.961,275.681,l),
(338.453,252.689,l),
(300.103,291.034,l),
(300.103,514.834,l),
(177.389,593.981,l),
(89.189,547.964,ls),
(65.536,535.623,o),
(39.208,515.537,o),
(39.208,480.339,cs),
(39.208,410.136,o),
(141.853,389.747,o),
(209.38,374.157,c),
(209.38,397.957,l),
(157.021,410.045,o),
(62.337,430.689,o),
(62.337,484.999,cs),
(62.337,506.058,o),
(82.421,520.731,o),
(105.978,533.257,c),
(200.398,475.104,l),
(200.397,248.953,l),
(265.398,183.837,l)
);
},
{
closed = 1;
nodes = (
(520.058,253.566,l),
(485.193,284.556,l),
(485.193,534.231,l),
(419.34,607.694,l),
(307,530.219,l),
(314.987,519.955,l),
(345.978,539.325,l),
(380.603,499.229,l),
(380.603,284.556,l),
(349.611,257.439,l),
(442.582,183.837,l)
);
},
{
closed = 1;
nodes = (
(752.483,265.186,l),
(742.311,281.417,l),
(710.382,258.904,l),
(671.136,296.177,l),
(671.136,521.166,l),
(570.416,607.694,l),
(444.392,509.179,l),
(456.657,497.301,l),
(511.311,540.667,l),
(578.164,483.735,l),
(578.164,284.556,l),
(551.049,257.439,l),
(632.398,183.837,l)
);
},
{
closed = 1;
nodes = (
(1053.48,562.825,l),
(1046.61,571.386,l),
(998.694,532.528,l),
(1005.56,523.969,l)
);
}
);
width = 1068;
}
);
}
{
glyphname = doubleobliquehyphen.alt;
layers = (
{
layerId = m001;
shapes = (
{
closed = 1;
nodes = (
(95.232,231.704,l),
(285.302,311.894,l),
(327.873,435.06,l),
(315.324,440.842,l),
(306.769,418.772,l),
(116.121,338.338,l),
(73.551,215.172,l),
(86.1,209.39,l)
);
},
{
closed = 1;
nodes = (
(95.232,88.478,l),
(285.302,168.669,l),
(327.873,291.835,l),
(315.324,297.617,l),
(306.769,275.548,l),
(116.121,195.113,l),
(73.551,71.947,l),
(86.1,66.165,l)
);
}
);
width = 401;
}
);
}
{
glyphname = f_f;
layers = (
{
layerId = m001;
shapes = (
{
closed = 1;
nodes = (
(312.729,73.167,l),
(418.185,-0.203,l),
(555.826,71,l),
(541.446,90.174,l),
(508.326,72.25,l),
(451.326,118.633,l),
(451.326,599,l),
(432.152,599,l),
(393.899,583.625,o),
(362.694,552.353,o),
(345.847,514.725,cs),
(329,477.098,o),
(327.109,434.727,o),
(327.109,393.5,cs),
(327.109,111.516,l),
(263.326,72.25,l),
(206.326,119.633,l),
(206.326,619,l),
(187.152,619,l),
(34.174,455.609,l),
(34.176,441.229,l),
(63.816,442.736,o),
(82.109,423.382,o),
(82.109,393.5,cs),
(82.109,129.221,l),
(15,86.079,l),
(29.381,66.905,l),
(67.728,90.872,l),
(173.185,-0.203,l)
);
},
{
closed = 1;
nodes = (
(206.326,678,l),
(327.109,615.5,l),
(450.47,684.667,l),
(304.944,761.5,l),
(82.109,635.5,l),
(82.109,129.221,l),
(206.326,119.633,l)
);
},
{
closed = 1;
nodes = (
(288.326,449,l),
(335.222,504,l),
(140.722,504,l),
(93.826,449,l)
);
},
{
closed = 1;
nodes = (
(533.326,449,l),
(580.222,504,l),
(255.722,504,l),
(246.826,449,l)
);
},
{
closed = 1;
nodes = (
(451.326,119.633,l),
(451.326,658,l),
(479,676,l),
(578.167,614,l),
(697.666,678,l),
(563.806,760.833,l),
(327.109,615.5,l),
(327.109,111.516,l)
);
}
);
width = 573;
}
);
}
{
glyphname = f_f_i;
layers = (
{
layerId = m001;
shapes = (
{
closed = 1;
nodes = (
(816.575,95.666,l),
(792.608,114.84,l),
(749.468,86.079,l),
(715.913,119.633,l),
(715.913,503,l),
(625.222,504,l),
(535,449,l),
(560,449,o),
(568,447,o),
(580.078,432,cs),
(588.992,420.93,o),
(591.282,403.877,o),
(591.282,384,cs),
(591.282,119.633,l),
(508.326,72.25,l),
(456.326,119.633,l),
(456.326,599,l),
(432.152,599,l),
(393.899,583.625,o),
(362.694,552.353,o),
(345.847,514.725,cs),
(329,477.098,o),
(327.109,434.727,o),
(327.109,393.5,cs),
(327.109,111.516,l),
(263.326,72.25,l),
(206.326,119.633,l),
(206.326,619,l),
(187.152,619,l),
(34.174,455.609,l),
(34.176,441.229,l),
(63.816,442.736,o),
(82.109,423.382,o),
(82.109,393.5,cs),
(82.109,129.221,l),
(15,86.079,l),
(29.381,66.905,l),
(67.728,90.872,l),
(173.185,-0.203,l),
(312.728,73.167,l),
(418.185,-0.203,l),
(576.902,81.286,l),
(672.771,-4.997,l)
);
},
{
closed = 0;
nodes = (
(332.109,129.221,ls)
);
},
{
closed = 1;
nodes = (
(206.326,678,l),
(338.031,609.333,l),
(450.47,684.667,l),
(304.944,761.5,l),
(82.109,635.5,l),
(82.109,129.221,l),
(206.326,119.633,l)
);
},
{
closed = 1;
nodes = (
(578.326,449,l),
(625.222,504,l),
(170.722,504,l),
(123.826,449,l)
);
},
{
closed = 1;
nodes = (
(456.904,682.833,l),
(602.276,594.833,l),
(725.638,664,l),
(555.522,766.333,l),
(332.688,640.333,l),
(332.688,134.054,l),
(456.904,124.466,l)
);
}
);
width = 768;
}
);
}
{
glyphname = f_f_l;
layers = (
{
layerId = m001;
shapes = (
{
closed = 1;
nodes = (
(312.729,73.167,l),
(418.185,-0.203,l),
(555.826,71,l),
(541.446,90.174,l),
(508.326,72.25,l),
(451.326,118.633,l),
(451.326,599,l),
(432.152,599,l),
(393.899,583.625,o),
(362.694,552.353,o),
(345.847,514.725,cs),
(329,477.098,o),
(327.109,434.727,o),
(327.109,393.5,cs),
(327.109,111.516,l),
(263.326,72.25,l),
(206.326,119.633,l),
(206.326,619,l),
(187.152,619,l),
(34.174,455.609,l),
(34.176,441.229,l),
(63.816,442.736,o),
(82.109,423.382,o),
(82.109,393.5,cs),
(82.109,129.221,l),
(15,86.079,l),
(29.381,66.905,l),
(67.728,90.872,l),
(173.185,-0.203,l)
);
},
{
closed = 1;
nodes = (
(206.326,678,l),
(327.109,615.5,l),
(450.47,684.667,l),
(304.944,761.5,l),
(82.109,635.5,l),
(82.109,129.221,l),
(206.326,119.633,l)
);
},
{
closed = 1;
nodes = (
(288.326,449,l),
(335.222,504,l),
(140.722,504,l),
(93.826,449,l)
);
},
{
closed = 1;
nodes = (
(643.326,449,l),
(690.222,504,l),
(255.722,504,l),
(246.826,449,l)
);
},
{
closed = 1;
nodes = (
(451.326,119.633,l),
(451.326,658,l),
(479,676,l),
(578.167,614,l),
(697.666,678,l),
(563.806,760.833,l),
(327.109,615.5,l),
(327.109,111.516,l)
);
},
{
closed = 1;
nodes = (
(816.815,86.079,l),
(802.435,105.253,l),
(773.674,81.286,l),
(735.326,119.633,l),
(735.326,762.753,l),
(716.152,762.753,l),
(548.034,647.38,l),
(548.036,633,l),
(570.262,616.007,o),
(601.109,611.087,o),
(601.109,571.601,cs),
(601.109,129.221,l),
(534,86.079,l),
(548.381,66.905,l),
(586.729,90.872,l),
(692.185,-0.203,l)
);
}
);
width = 831;
}
);
}
{
glyphname = n_d.dlig;
layers = (
{
layerId = m001;
shapes = (
{
closed = 1;
nodes = (
(730.003,301.085,l),
(730.406,543.099,l),
(442.111,796.75,l),
(442.104,651.813,l),
(458.603,654.62,l),
(626.158,502.042,l),
(626.158,259.19,l),
(540.496,318.763,l),
(540.496,588.916,l),
(436.245,524.802,l),
(436.245,276.37,l),
(552.818,196.43,l)
);
},
{
closed = 1;
nodes = (
(646.952,27.5,l),
(646.952,64.5,l),
(184.452,64.5,l),
(184.452,27.5,l)
);
},
{
closed = 1;
nodes = (
(228.058,253.566,l),
(193.193,284.556,l),
(193.193,534.231,l),
(127.34,607.694,l),
(15,530.219,l),
(22.987,519.955,l),
(53.977,539.325,l),
(88.603,499.229,l),
(88.603,284.556,l),
(57.611,257.439,l),
(150.582,183.837,l)
);
},
{
closed = 1;
nodes = (
(460.483,265.186,l),
(450.311,281.417,l),
(418.382,258.904,l),
(379.136,296.177,l),
(379.136,521.166,l),
(278.416,607.694,l),
(152.392,509.179,l),
(164.657,497.301,l),
(219.311,540.667,l),
(286.164,483.735,l),
(286.164,284.556,l),
(259.049,257.439,l),
(340.398,183.837,l)
);
},
{
closed = 1;
nodes = (
(761.478,562.825,l),
(754.607,571.386,l),
(706.694,532.528,l),
(713.563,523.969,l)
);
}
);
width = 776;
}
);
}
{
glyphname = o_f.dlig;
layers = (
{
layerId = m001;
shapes = (
{
closed = 1;
nodes = (
(523.229,726.562,l),
(610.523,671.762,l),
(709.213,727.096,l),
(602.123,793.362,l),
(423.854,692.562,l),
(423.854,287.539,l),
(523.229,279.868,l)
);
},
{
closed = 1;
nodes = (
(79.707,276.785,l),
(65.598,294.184,l),
(18.168,255.719,l),
(32.277,238.32,l)
);
},
{
closed = 1;
nodes = (
(568.952,27.5,l),
(568.952,64.5,l),
(106.452,64.5,l),
(106.452,27.5,l)
);
},
{
closed = 1;
nodes = (
(354.4,291.374,l),
(354.4,509.956,l),
(239.356,598.156,l),
(59.122,494.617,l),
(59.12,269.906,l),
(178,184,l)
);
},
{
closed = 1;
nodes = (
(162.66,306.713,l),
(162.66,536.8,l),
(254.695,475.442,l),
(254.695,245.355,l)
);
},
{
closed = 1;
nodes = (
(606.829,240.962,l),
(595.325,256.301,l),
(568.829,241.962,l),
(523.229,279.868,l),
(523.229,679.362,l),
(507.89,679.362,l),
(385.507,548.649,l),
(385.509,537.145,l),
(402.168,537.145,o),
(423.855,530.078,o),
(423.855,498.962,cs),
(423.855,287.539,l),
(370.168,253.025,l),
(381.673,237.687,l),
(412.351,256.859,l),
(496.717,184,l)
);
},
{
closed = 1;
nodes = (
(588.829,543.362,l),
(626.346,587.362,l),
(470.745,587.362,l),
(433.229,543.362,l)
);
}
);
width = 722;
}
);
}
{
glyphname = r_d.dlig;
layers = (
{
layerId = m001;
shapes = (
{
closed = 1;
nodes = (
(608.646,301.085,l),
(609.049,543.099,l),
(320.754,796.75,l),
(320.747,651.813,l),
(337.245,654.62,l),
(504.801,502.042,l),
(504.801,259.19,l),
(419.139,318.763,l),
(419.139,588.916,l),
(314.888,524.802,l),
(314.888,276.37,l),
(431.461,196.43,l)
);
},
{
closed = 1;
nodes = (
(575.595,27.5,l),
(575.595,64.5,l),
(113.095,64.5,l),
(113.095,27.5,l)
);
},
{
closed = 1;
nodes = (
(279.848,278.265,l),
(273.095,289.5,l),
(231.408,258.033,l),
(190.131,291.571,l),
(190.131,562.163,l),
(122.374,635.024,l),
(15,562.163,l),
(21.595,553,l),
(52.273,572.174,l),
(84.026,531.485,l),
(84.026,291.571,l),
(34.174,257.059,l),
(41.595,248.5,l),
(67.595,267.5,l),
(160.418,191.867,l)
);
},
{
closed = 1;
nodes = (
(319.756,523.507,o),
(334.821,583.452,o),
(341.18,635.265,c),
(317.312,635.265,l),
(310.443,624.548,o),
(297.684,615.507,o),
(281.153,615.507,cs),
(266.35,615.507,o),
(252.706,623.316,o),
(245.047,635.265,c),
(236.78,635.265,l),
(178.513,569.132,l),
(196.731,546.865,o),
(224.052,523.507,o),
(261.607,523.507,cs)
);
},
{
closed = 1;
nodes = (
(639.88,561.515,l),
(633.01,570.075,l),
(585.097,531.218,l),
(591.966,522.658,l)
);
}
);
width = 654;
}
);
}
{
glyphname = s_t.dlig;
layers = (
{
layerId = m001;
shapes = (
{
closed = 1;
nodes = (
(71.326,154.178,l),
(52.485,163.121,o),
(37.583,182.05,o),
(37.583,208.833,cs),
(37.583,258.396,o),
(99.924,306.094,o),
(137.093,338.053,cs),
(234.8,421.968,ls),
(284.198,464.392,o),
(303.816,510.419,o),
(310.274,573.324,c),
(288.158,573.324,l),
(280.44,498.525,o),
(249.234,463.22,o),
(220.825,438.847,cs),
(123.124,354.934,ls),
(33.386,277.875,o),
(15,248.935,o),
(15,206.618,cs),
(15,169.899,o),
(36.733,144.051,o),
(63.727,133.628,c)
);
},
{
closed = 1;
nodes = (
(518.164,27.5,l),
(518.164,64.5,l),
(55.664,64.5,l),
(55.664,27.5,l)
);
},
{
closed = 1;
nodes = (
(71.326,154.178,l),
(65.097,157.677,o),
(60.179,164.304,o),
(60.179,173.586,cs),
(60.179,192.632,o),
(78.725,203.166,o),
(97.028,203.166,cs),
(124.777,203.166,o),
(144.435,185.296,o),
(154.987,166.579,c),
(309.439,260.429,l),
(309.439,378.575,l),
(237.304,431.974,l),
(159.066,367.042,l),
(208.535,327.651,l),
(208.535,225.763,l),
(194.091,257.525,o),
(161.936,285.907,o),
(117.179,285.907,cs),
(70.037,285.907,o),
(31.886,250.348,o),
(31.886,204.659,cs),
(31.886,185.353,o),
(39.166,166.063,o),
(52.161,151.705,c)
);
},
{
closed = 1;
nodes = (
(169.86,382.6,l),
(130.879,422.41,l),
(130.878,524.309,l),
(143.411,493.187,o),
(173.559,466.489,o),
(216.264,466.489,cs),
(266.354,466.489,o),
(305.121,504.111,o),
(305.121,554.716,cs),
(305.121,559.64,o),
(304.709,564.563,o),
(303.878,569.417,c),
(287.875,573.328,l),
(285.874,554.79,o),
(269.256,540.718,o),
(248.73,540.718,cs),
(222.298,540.718,o),
(202.961,558.155,o),
(191.631,574.892,c),
(29.975,481.027,l),
(29.976,371.519,l),
(95.418,319.893,l)
);
},
{
closed = 1;
nodes = (
(570.817,242.566,l),
(564.242,251.232,l),
(520.047,222.424,l),
(475.828,260.565,l),
(475.828,644.345,l),
(460.823,644.345,l),
(333.276,546.475,l),
(333.278,535.221,l),
(333.933,535.254,o),
(334.589,535.271,o),
(335.245,535.271,cs),
(357.461,535.271,o),
(370.791,520.772,o),
(370.791,497.869,cs),
(370.791,276.697,l),
(318.271,242.934,l),
(326.909,233.065,l),
(354.92,250.321,l),
(457.368,167,l)
);
},
{
closed = 1;
nodes = (
(562.664,509.97,l),
(562.664,552.99,l),
(411.326,552.99,l),
(374.645,509.969,l)
);
}
);
width = 585;
}
);
}
{
glyphname = t_h.dlig;
layers = (
{
layerId = m001;
shapes = (
{
closed = 1;
nodes = (
(311.597,263.5,l),
(302.093,276.242,l),
(213.847,222.5,l),
(172.557,260.333,l),
(172.557,644.345,l),
(157.552,644.345,l),
(30.006,546.475,l),
(30.007,535.221,l),
(30.662,535.254,o),
(31.317,535.271,o),
(31.973,535.271,cs),
(54.189,535.271,o),
(67.519,520.773,o),
(67.519,497.869,cs),
(67.519,276.697,l),
(15,242.934,l),
(22.392,232.667,l),
(51.069,250.756,l),
(152.097,167,l)
);
},
{
closed = 1;
nodes = (
(544.892,27.5,l),
(544.892,64.5,l),
(82.392,64.5,l),
(82.392,27.5,l)
);
},
{
closed = 1;
nodes = (
(318.191,528,l),
(354.892,571.043,l),
(168.21,571.043,l),
(131.51,528,l)
);
},
{
closed = 1;
nodes = (
(442.225,233,l),
(435.362,242.667,l),
(416.949,230.329,l),
(396.919,252.75,l),
(396.919,785.628,l),
(381.914,785.628,l),
(254.367,695.595,l),
(254.369,684.342,l),
(274.549,678.199,o),
(291.881,669.816,o),
(291.881,643.076,cs),
(291.881,227.149,l),
(344.69,165.476,l)
);
},
{
closed = 1;
nodes = (
(644.725,252,l),
(636.362,260.167,l),
(599.446,231.917,l),
(578.238,254.333,l),
(578.238,490.524,l),
(612.001,516.784,l),
(604.498,524.286,l),
(574.487,501.778,l),
(494.455,576.806,l),
(388.725,477.782,l),
(388.725,459.26,l),
(440.43,507.686,l),
(486.952,464.265,l),
(487.059,276,l),
(451.892,243,l),
(528.392,164.5,l)
);
}
);
width = 659;
}
);
}
{
glyphname = t_h_e.dlig;
layers = (
{
layerId = m001;
shapes = (
{
closed = 1;
nodes = (
(311.597,263.5,l),
(302.093,276.242,l),
(213.847,222.5,l),
(172.557,260.333,l),
(172.557,644.345,l),
(157.552,644.345,l),
(30.006,546.475,l),
(30.007,535.221,l),
(30.662,535.254,o),
(31.317,535.271,o),
(31.973,535.271,cs),
(54.189,535.271,o),
(67.519,520.773,o),
(67.519,497.869,cs),
(67.519,276.697,l),
(15,242.934,l),
(22.392,232.667,l),
(51.069,250.756,l),
(152.097,167,l)
);
},
{
closed = 1;
nodes = (
(821.892,27.5,l),
(821.892,64.5,l),
(129.392,64.5,l),
(129.392,27.5,l)
);
},
{
closed = 1;
nodes = (
(318.191,528,l),
(354.892,571.043,l),
(168.21,571.043,l),
(131.51,528,l)
);
},
{
closed = 1;
nodes = (
(442.225,233,l),
(435.362,242.667,l),
(416.949,230.329,l),
(396.919,252.75,l),
(396.919,785.628,l),
(381.914,785.628,l),
(254.367,695.595,l),
(254.369,684.342,l),
(274.549,678.199,o),
(291.881,669.816,o),
(291.881,643.076,cs),
(291.881,227.149,l),
(344.69,165.476,l)
);
},
{
closed = 1;
nodes = (
(644.725,252,l),
(635,264,l),
(596,236,l),
(578.238,254.333,l),
(578.238,490.524,l),
(612.001,516.784,l),
(604.498,524.286,l),
(574.487,501.778,l),
(494.455,576.806,l),
(388.725,477.782,l),
(388.725,459.26,l),
(440.43,507.686,l),
(486.952,464.265,l),
(487.059,276,l),
(451.892,243,l),
(528.392,164.5,l)
);
},
{
closed = 1;
nodes = (
(927.286,298.717,l),
(915.782,317.892,l),
(827.583,248.865,l),
(731.712,314.057,l),
(731.712,512.5,l),
(747.052,521.135,l),
(816.078,421.43,l),
(698.874,347.307,l),
(698.874,328.132,l),
(904.278,455.943,l),
(904.278,459.778,l),
(823.747,582.491,l),
(632.009,482.787,l),
(632.009,261.334,l),
(762.392,164.5,l)
);
}
);
width = 948;
}
);
}
